<svg width="100" height="100" viewBox="0 0 100 100" fill="none" xmlns="http://www.w3.org/2000/svg">
<path d="M10 52.3479C10 62.9566 14.2143 73.1307 21.7157 80.6322C29.2172 88.1336 39.3913 92.3479 50 92.3479C60.6087 92.3479 70.7828 88.1336 78.2843 80.6322C85.7857 73.1307 90 62.9566 90 52.3479C90 41.7392 85.7857 31.5651 78.2843 24.0636C70.7828 16.5622 60.6087 12.3479 50 12.3479C39.3913 12.3479 29.2172 16.5622 21.7157 24.0636C14.2143 31.5651 10 41.7392 10 52.3479Z" fill="#B8ECFF"/>
<path d="M87.0501 46.9331C87.0893 46.7764 87.1098 46.6156 87.1111 46.4541C87.1128 46.0685 87.0063 45.6901 86.8037 45.362C86.6012 45.0339 86.3107 44.7692 85.9652 44.5978C85.6198 44.4265 85.2332 44.3555 84.8494 44.3928C84.4657 44.4302 84.1 44.5744 83.7941 44.8091C83.2458 44.1613 82.5117 43.6977 81.6912 43.481C80.8707 43.2643 80.0034 43.305 79.2068 43.5975C78.4102 43.8901 77.7228 44.4204 77.2375 45.1167C76.7523 45.8129 76.4928 46.6414 76.4941 47.4901V47.5161C76.4081 47.5018 76.3212 47.4931 76.2341 47.4901C75.6848 47.4901 75.1581 47.7083 74.7697 48.0966C74.3813 48.485 74.1631 49.0118 74.1631 49.5611C74.1631 50.1103 74.3813 50.6371 74.7697 51.0255C75.1581 51.4139 75.6848 51.6321 76.2341 51.6321H85.5541C86.104 51.6333 86.6399 51.4591 87.084 51.1349C87.5281 50.8107 87.8573 50.3533 88.0237 49.8292C88.19 49.3051 88.185 48.7416 88.0091 48.2206C87.8333 47.6996 87.496 47.2482 87.0461 46.9321L87.0501 46.9331Z" fill="white"/>
<path d="M74.4 48.6C74.5724 48.9387 74.8349 49.2233 75.1587 49.4223C75.4825 49.6214 75.8549 49.7271 76.235 49.728H85.555C86.0737 49.7266 86.5801 49.5692 87.0081 49.2762C87.4361 48.9832 87.7661 48.5681 87.955 48.085C88.112 48.4773 88.1705 48.9022 88.1253 49.3224C88.0801 49.7426 87.9327 50.1454 87.6959 50.4954C87.4591 50.8455 87.1402 51.1322 86.767 51.3305C86.3937 51.5288 85.9776 51.6327 85.555 51.633H76.235C75.8787 51.6326 75.5285 51.5403 75.2183 51.3652C74.908 51.19 74.6481 50.9379 74.4637 50.633C74.2792 50.3282 74.1765 49.981 74.1653 49.6248C74.1542 49.2687 74.235 48.9157 74.4 48.6Z" fill="#E5FEFF"/>
<path d="M87.0501 46.9331C87.0893 46.7764 87.1098 46.6156 87.1111 46.4541C87.1128 46.0685 87.0063 45.6901 86.8037 45.362C86.6012 45.0339 86.3107 44.7692 85.9652 44.5978C85.6198 44.4265 85.2332 44.3555 84.8494 44.3928C84.4657 44.4302 84.1 44.5744 83.7941 44.8091C83.2458 44.1613 82.5117 43.6977 81.6912 43.481C80.8707 43.2643 80.0034 43.305 79.2068 43.5975C78.4102 43.8901 77.7228 44.4204 77.2375 45.1167C76.7523 45.8129 76.4928 46.6414 76.4941 47.4901V47.5161C76.4081 47.5018 76.3212 47.4931 76.2341 47.4901C75.6848 47.4901 75.1581 47.7083 74.7697 48.0966C74.3813 48.485 74.1631 49.0118 74.1631 49.5611C74.1631 50.1103 74.3813 50.6371 74.7697 51.0255C75.1581 51.4139 75.6848 51.6321 76.2341 51.6321H85.5541C86.104 51.6333 86.6399 51.4591 87.084 51.1349C87.5281 50.8107 87.8573 50.3533 88.0237 49.8292C88.19 49.3051 88.185 48.7416 88.0091 48.2206C87.8333 47.6996 87.496 47.2482 87.0461 46.9321L87.0501 46.9331Z" stroke="#45413C" stroke-linecap="round" stroke-linejoin="round"/>
<path d="M22.2329 81.139C29.83 88.4663 40.0154 92.4939 50.5692 92.3441C61.123 92.1942 71.1899 87.8791 78.5759 80.339C76.3139 74.6663 72.3833 69.8139 67.3039 66.4234C62.2245 63.0329 56.2355 61.264 50.1291 61.3507C44.0227 61.4374 38.0864 63.3756 33.1053 66.909C28.1242 70.4423 24.333 75.4044 22.2329 81.139Z" fill="#00DFEB"/>
<path d="M50.5579 61.3469C44.3776 61.3467 38.3464 63.245 33.2804 66.7849C28.2143 70.3248 24.3579 75.3354 22.2329 81.1389C23.7985 82.6493 25.484 84.0302 27.2729 85.2679C30.0677 81.8718 33.5713 79.128 37.5383 77.2287C41.5052 75.3293 45.8396 74.3205 50.2375 74.2729C54.6355 74.2253 58.9906 75.14 62.9978 76.9529C67.005 78.7658 70.5672 81.4332 73.4349 84.7679C75.2701 83.4389 76.9899 81.9573 78.5759 80.3389C76.3413 74.7339 72.4769 69.9279 67.4821 66.5422C62.4874 63.1566 56.592 61.3468 50.5579 61.3469Z" fill="#4AEFF7"/>
<path d="M59.239 62.6161H54.756C53.7835 62.5936 52.8342 62.914 52.0743 63.5212C51.3144 64.1284 50.7925 64.9837 50.6 65.9371C50.5036 66.5102 50.5334 67.0975 50.687 67.6579C50.8407 68.2184 51.1147 68.7387 51.4899 69.1825C51.8651 69.6263 52.3325 69.983 52.8596 70.2279C53.3867 70.4727 53.9608 70.5997 54.542 70.6001C55.0312 70.6008 55.5137 70.7137 55.9524 70.93C56.3912 71.1464 56.7745 71.4605 57.0729 71.8481C57.3713 72.2358 57.5769 72.6867 57.6738 73.1662C57.7707 73.6457 57.7564 74.141 57.632 74.6141C57.4327 75.3095 57.0088 75.9193 56.4265 76.3484C55.8442 76.7775 55.1361 77.0017 54.413 76.9861H43.018C40.918 76.9434 38.8801 77.6997 37.3163 79.1019C35.7526 80.5042 34.7796 82.4479 34.594 84.5401C34.4868 86.4949 35.1038 88.4206 36.327 89.9491C41.929 91.9788 47.9129 92.7344 53.8436 92.161C59.7743 91.5875 65.5026 89.6995 70.612 86.6341C70.5623 86.5908 70.4988 86.5667 70.433 86.5661H67.315C66.8906 86.5661 66.4837 86.3975 66.1836 86.0975C65.8835 85.7974 65.715 85.3905 65.715 84.9661V82.9741C65.715 82.5498 65.8835 82.1428 66.1836 81.8427C66.4837 81.5427 66.8906 81.3741 67.315 81.3741H74.142C74.9606 81.3743 75.7595 81.1227 76.4303 80.6535C77.1011 80.1843 77.6114 79.5201 77.892 78.7511C76.0912 74.9019 73.4993 71.4756 70.2853 68.6954C67.0713 65.9153 63.3073 63.8438 59.239 62.6161Z" fill="#6DD627"/>
<path d="M22.313 80.921C24.4452 75.2348 28.244 70.3246 33.2124 66.8327C38.1809 63.3408 44.0876 61.4299 50.1598 61.3498C56.2321 61.2697 62.1871 63.0243 67.2459 66.384C72.3047 69.7437 76.2316 74.552 78.513 80.18" stroke="#45413C" stroke-linecap="round" stroke-linejoin="round"/>
<path d="M59.239 62.6161H54.756C53.7836 62.5936 52.8342 62.914 52.0744 63.5212C51.3145 64.1284 50.7925 64.9837 50.6 65.9371C50.5037 66.5102 50.5334 67.0975 50.6871 67.6579C50.8408 68.2184 51.1148 68.7387 51.49 69.1825C51.8652 69.6263 52.3326 69.983 52.8597 70.2279C53.3867 70.4727 53.9608 70.5997 54.542 70.6001C55.0312 70.6008 55.5137 70.7137 55.9525 70.93C56.3912 71.1464 56.7746 71.4605 57.073 71.8481C57.3714 72.2358 57.5769 72.6867 57.6738 73.1662C57.7708 73.6457 57.7564 74.141 57.632 74.6141C57.5937 74.7691 57.5425 74.9206 57.479 75.0671L57.312 75.0281C61.9914 76.1005 66.3461 78.2775 70.012 81.3771H74.14C74.9586 81.3773 75.7575 81.1257 76.4283 80.6565C77.0991 80.1873 77.6094 79.5231 77.89 78.7541C76.0898 74.9046 73.4983 71.4778 70.2847 68.6971C67.071 65.9164 63.3073 63.8444 59.239 62.6161Z" fill="#9CEB60"/>
<path d="M70.612 86.6341C70.5623 86.5908 70.4988 86.5667 70.433 86.5661H67.315C66.8906 86.5661 66.4837 86.3975 66.1836 86.0975C65.8835 85.7974 65.715 85.3905 65.715 84.9661V82.9741C65.715 82.5498 65.8835 82.1428 66.1836 81.8427C66.4837 81.5427 66.8906 81.3741 67.315 81.3741H74.142C74.9606 81.3743 75.7595 81.1227 76.4303 80.6535C77.1011 80.1843 77.6114 79.5201 77.892 78.7511C76.0912 74.9019 73.4993 71.4756 70.2853 68.6954C67.0713 65.9153 63.3073 63.8438 59.239 62.6161H54.756C53.7835 62.5936 52.8342 62.914 52.0743 63.5212C51.3144 64.1284 50.7925 64.9837 50.6 65.9371C50.5036 66.5102 50.5334 67.0975 50.687 67.6579C50.8407 68.2184 51.1147 68.7387 51.4899 69.1825C51.8651 69.6263 52.3325 69.983 52.8596 70.2279C53.3867 70.4727 53.9608 70.5997 54.542 70.6001C55.0312 70.6008 55.5137 70.7137 55.9524 70.93C56.3912 71.1464 56.7745 71.4605 57.0729 71.8481C57.3713 72.2358 57.5769 72.6867 57.6738 73.1662C57.7707 73.6457 57.7564 74.141 57.632 74.6141C57.4327 75.3095 57.0088 75.9193 56.4265 76.3484C55.8442 76.7775 55.1361 77.0017 54.413 76.9861H43.018C40.918 76.9434 38.8801 77.6997 37.3163 79.1019C35.7526 80.5042 34.7796 82.4479 34.594 84.5401C34.4868 86.4949 35.1038 88.4206 36.327 89.9491" stroke="#45413C" stroke-linecap="round" stroke-linejoin="round"/>
<path opacity="0.15" d="M33.667 67.3191C33.667 67.7612 35.3527 68.1852 38.3533 68.4978C41.3539 68.8105 45.4235 68.9861 49.667 68.9861C53.9105 68.9861 57.9801 68.8105 60.9807 68.4978C63.9813 68.1852 65.667 67.7612 65.667 67.3191C65.667 66.877 63.9813 66.453 60.9807 66.1404C57.9801 65.8277 53.9105 65.6521 49.667 65.6521C45.4235 65.6521 41.3539 65.8277 38.3533 66.1404C35.3527 66.453 33.667 66.877 33.667 67.3191Z" fill="#45413C"/>
<path d="M48.04 7.6521C45.1315 7.65316 42.3423 8.80905 40.2856 10.8657C38.229 12.9224 37.0731 15.7115 37.072 18.6201C37.072 23.6651 44.694 32.4831 47.228 35.2911C47.3312 35.4055 47.4572 35.497 47.5979 35.5596C47.7387 35.6222 47.891 35.6545 48.045 35.6545C48.1991 35.6545 48.3514 35.6222 48.4921 35.5596C48.6329 35.497 48.7589 35.4055 48.862 35.2911C51.4 32.4831 59.007 23.6651 59.007 18.6201C59.0074 17.1797 58.724 15.7534 58.173 14.4226C57.622 13.0918 56.8142 11.8826 55.7958 10.864C54.7774 9.84549 53.5682 9.03759 52.2375 8.48647C50.9067 7.93536 49.4804 7.65184 48.04 7.6521ZM47.8 21.9101C47.1494 21.9099 46.5134 21.7168 45.9725 21.3551C45.4316 20.9935 45.01 20.4796 44.7612 19.8784C44.5123 19.2773 44.4473 18.6158 44.5744 17.9776C44.7014 17.3395 45.0148 16.7534 45.475 16.2934C45.9351 15.8334 46.5214 15.5201 47.1595 15.3932C47.7977 15.2664 48.4592 15.3316 49.0603 15.5806C49.6614 15.8297 50.1752 16.2514 50.5366 16.7924C50.8981 17.3334 51.091 17.9694 51.091 18.6201C51.0915 19.0524 51.0068 19.4805 50.8416 19.88C50.6764 20.2794 50.4339 20.6424 50.1282 20.948C49.8225 21.2536 49.4595 21.4959 49.06 21.661C48.6605 21.8261 48.2323 21.9108 47.8 21.9101Z" fill="#FF6242"/>
<path d="M58.89 19.7841C58.9648 19.4005 59.0039 19.0109 59.007 18.6201C59.0209 17.171 58.7474 15.7335 58.2024 14.3908C57.6575 13.048 56.8518 11.8265 55.832 10.7969C54.8122 9.76735 53.5985 8.95006 52.261 8.3923C50.9235 7.83454 49.4887 7.54736 48.0395 7.54736C46.5904 7.54736 45.1556 7.83454 43.8181 8.3923C42.4806 8.95006 41.2668 9.76735 40.247 10.7969C39.2272 11.8265 38.4216 13.048 37.8766 14.3908C37.3317 15.7335 37.0582 17.171 37.072 18.6201C37.0751 19.0109 37.1143 19.4005 37.189 19.7841L37.238 19.4681C37.6797 16.8929 39.0269 14.5603 41.0368 12.8908C43.0466 11.2213 45.5867 10.3248 48.1992 10.3629C50.8117 10.401 53.3246 11.3713 55.2849 13.0987C57.2451 14.8262 58.5237 17.1971 58.89 19.7841Z" fill="#FF6242"/>
<path d="M48.04 7.6521C45.1315 7.65316 42.3423 8.80905 40.2856 10.8657C38.229 12.9224 37.0731 15.7115 37.072 18.6201C37.072 23.6651 44.694 32.4831 47.228 35.2911C47.3312 35.4055 47.4572 35.497 47.5979 35.5596C47.7387 35.6222 47.891 35.6545 48.045 35.6545C48.1991 35.6545 48.3514 35.6222 48.4921 35.5596C48.6329 35.497 48.7589 35.4055 48.862 35.2911C51.4 32.4831 59.007 23.6651 59.007 18.6201C59.0074 17.1797 58.724 15.7534 58.173 14.4226C57.622 13.0918 56.8142 11.8826 55.7958 10.864C54.7774 9.84549 53.5682 9.03759 52.2375 8.48647C50.9067 7.93536 49.4804 7.65184 48.04 7.6521ZM47.8 21.9101C47.1494 21.9099 46.5134 21.7168 45.9725 21.3551C45.4316 20.9935 45.01 20.4796 44.7612 19.8784C44.5123 19.2772 44.4473 18.6158 44.5744 17.9776C44.7014 17.3395 45.0148 16.7534 45.475 16.2934C45.9351 15.8334 46.5214 15.5201 47.1595 15.3932C47.7977 15.2664 48.4592 15.3316 49.0603 15.5806C49.6614 15.8297 50.1752 16.2514 50.5366 16.7924C50.8981 17.3334 51.091 17.9694 51.091 18.6201C51.0915 19.0524 51.0068 19.4805 50.8416 19.88C50.6764 20.2794 50.4339 20.6424 50.1282 20.948C49.8225 21.2536 49.4595 21.4959 49.06 21.661C48.6605 21.8261 48.2323 21.9108 47.8 21.9101Z" stroke="#45413C" stroke-linecap="round" stroke-linejoin="round"/>
<path d="M27.8999 30.9331C27.9392 30.7764 27.9596 30.6156 27.9609 30.4541C27.9626 30.0685 27.8561 29.6901 27.6536 29.362C27.451 29.0339 27.1605 28.7692 26.8151 28.5978C26.4696 28.4265 26.0831 28.3555 25.6993 28.3928C25.3155 28.4302 24.9499 28.5744 24.6439 28.8091C24.0957 28.1613 23.3616 27.6977 22.5411 27.481C21.7206 27.2643 20.8533 27.305 20.0567 27.5975C19.2601 27.8901 18.5726 28.4204 18.0874 29.1167C17.6022 29.8129 17.3426 30.6414 17.3439 31.4901V31.5161C17.2579 31.5018 17.1711 31.4931 17.0839 31.4901C16.5347 31.4901 16.0079 31.7083 15.6195 32.0966C15.2311 32.485 15.0129 33.0118 15.0129 33.5611C15.0129 34.1103 15.2311 34.6371 15.6195 35.0255C16.0079 35.4139 16.5347 35.6321 17.0839 35.6321H26.4039C26.9538 35.6333 27.4897 35.4591 27.9339 35.1349C28.378 34.8107 28.7071 34.3533 28.8735 33.8292C29.0399 33.3051 29.0348 32.7416 28.859 32.2206C28.6832 31.6996 28.3458 31.2482 27.8959 30.9321L27.8999 30.9331Z" fill="white"/>
<path d="M15.257 32.6C15.4291 32.9387 15.6915 33.2233 16.0151 33.4223C16.3387 33.6214 16.7111 33.7272 17.091 33.728H26.411C26.9298 33.7268 27.4362 33.5694 27.8642 33.2764C28.2923 32.9833 28.6222 32.5682 28.811 32.085C28.968 32.4773 29.0265 32.9022 28.9813 33.3224C28.9361 33.7426 28.7887 34.1454 28.5519 34.4954C28.3151 34.8455 27.9962 35.1322 27.623 35.3305C27.2498 35.5288 26.8336 35.6327 26.411 35.633H17.091C16.7346 35.633 16.3842 35.541 16.0737 35.3659C15.7633 35.1908 15.5033 34.9386 15.3188 34.6336C15.1344 34.3286 15.0318 33.9811 15.021 33.6249C15.0101 33.2686 15.0914 32.9156 15.257 32.6Z" fill="#E5FEFF"/>
<path d="M27.8999 30.9331C27.9392 30.7764 27.9596 30.6156 27.9609 30.4541C27.9626 30.0685 27.8561 29.6901 27.6536 29.362C27.451 29.0339 27.1605 28.7692 26.8151 28.5978C26.4696 28.4265 26.0831 28.3555 25.6993 28.3928C25.3155 28.4302 24.9499 28.5744 24.6439 28.8091C24.0957 28.1613 23.3616 27.6977 22.5411 27.481C21.7206 27.2643 20.8533 27.305 20.0567 27.5975C19.2601 27.8901 18.5726 28.4204 18.0874 29.1167C17.6022 29.8129 17.3426 30.6414 17.3439 31.4901V31.5161C17.2579 31.5018 17.1711 31.4931 17.0839 31.4901C16.5347 31.4901 16.0079 31.7083 15.6195 32.0966C15.2311 32.485 15.0129 33.0118 15.0129 33.5611C15.0129 34.1103 15.2311 34.6371 15.6195 35.0255C16.0079 35.4139 16.5347 35.6321 17.0839 35.6321H26.4039C26.9538 35.6333 27.4897 35.4591 27.9339 35.1349C28.378 34.8107 28.7071 34.3533 28.8735 33.8292C29.0399 33.3051 29.0348 32.7416 28.859 32.2206C28.6832 31.6996 28.3458 31.2482 27.8959 30.9321L27.8999 30.9331Z" stroke="#45413C" stroke-linecap="round" stroke-linejoin="round"/>
<path d="M67.2521 64.3889H57.6521V48.8169H63.3621C64.7387 48.8172 66.0588 49.3642 67.032 50.3377C68.0053 51.3111 68.5521 52.6313 68.5521 54.0079V63.0909C68.5516 63.4353 68.4144 63.7655 68.1706 64.0088C67.9269 64.2522 67.5965 64.3889 67.2521 64.3889Z" fill="white" stroke="#45413C" stroke-linecap="round" stroke-linejoin="round"/>
<path d="M34.292 63.091C34.292 63.4357 34.429 63.7664 34.6728 64.0102C34.9166 64.254 35.2473 64.3909 35.592 64.3909H57.649V47C57.649 46.6552 57.5121 46.3245 57.2683 46.0807C57.0245 45.8369 56.6938 45.7 56.349 45.7H35.59C35.2453 45.7 34.9146 45.8369 34.6708 46.0807C34.427 46.3245 34.29 46.6552 34.29 47L34.292 63.091Z" fill="#FFE500"/>
<path d="M34.292 47C34.292 46.6552 34.429 46.3245 34.6728 46.0807C34.9165 45.8369 35.2472 45.7 35.592 45.7H56.352C56.6968 45.7 57.0274 45.8369 57.2712 46.0807C57.515 46.3245 57.652 46.6552 57.652 47V48.816H34.292V47Z" fill="#FFF48C"/>
<path d="M34.292 63.091C34.292 63.4357 34.429 63.7664 34.6728 64.0102C34.9166 64.254 35.2473 64.3909 35.592 64.3909H57.649V47C57.649 46.6552 57.5121 46.3245 57.2683 46.0807C57.0245 45.8369 56.6938 45.7 56.349 45.7H35.59C35.2453 45.7 34.9146 45.8369 34.6708 46.0807C34.427 46.3245 34.29 46.6552 34.29 47L34.292 63.091Z" stroke="#45413C" stroke-linecap="round" stroke-linejoin="round"/>
<path d="M34.292 63.0909C34.292 63.4357 34.429 63.7663 34.6728 64.0101C34.9165 64.2539 35.2472 64.3909 35.592 64.3909H57.649V61.2749H34.292V63.0909Z" fill="#E0E0E0" stroke="#45413C" stroke-linecap="round" stroke-linejoin="round"/>
<path d="M37.406 64.3889C37.4058 65.005 37.5883 65.6074 37.9305 66.1198C38.2727 66.6322 38.7591 67.0316 39.3283 67.2675C39.8974 67.5034 40.5238 67.5652 41.1281 67.4452C41.7324 67.3251 42.2876 67.0285 42.7233 66.5929C43.159 66.1573 43.4558 65.6023 43.5761 64.998C43.6964 64.3937 43.6347 63.7673 43.399 63.1981C43.1632 62.6288 42.764 62.1423 42.2517 61.7999C41.7394 61.4576 41.1371 61.2749 40.521 61.2749C39.6951 61.2752 38.9031 61.6033 38.319 62.1872C37.7349 62.7711 37.4065 63.563 37.406 64.3889Z" fill="#87898C"/>
<path d="M54.5349 64.3889C54.5349 65.0048 54.7175 65.6069 55.0597 66.1189C55.4019 66.631 55.8882 67.0302 56.4572 67.2659C57.0262 67.5016 57.6524 67.5632 58.2564 67.4431C58.8605 67.3229 59.4153 67.0263 59.8508 66.5908C60.2863 66.1553 60.5829 65.6005 60.7031 64.9964C60.8232 64.3924 60.7616 63.7662 60.5259 63.1972C60.2902 62.6282 59.8911 62.1419 59.379 61.7997C58.8669 61.4575 58.2648 61.2749 57.6489 61.2749C56.8231 61.2752 56.0312 61.6033 55.4473 62.1873C54.8633 62.7712 54.5352 63.5631 54.5349 64.3889Z" fill="#87898C"/>
<path d="M37.406 64.3889C37.4058 65.005 37.5883 65.6074 37.9305 66.1198C38.2727 66.6322 38.7591 67.0316 39.3283 67.2675C39.8974 67.5034 40.5238 67.5652 41.1281 67.4452C41.7324 67.3251 42.2876 67.0285 42.7233 66.5929C43.159 66.1573 43.4558 65.6023 43.5761 64.998C43.6964 64.3937 43.6347 63.7673 43.399 63.1981C43.1632 62.6288 42.764 62.1423 42.2517 61.7999C41.7394 61.4576 41.1371 61.2749 40.521 61.2749C39.6951 61.2752 38.9031 61.6033 38.319 62.1872C37.7349 62.7711 37.4065 63.563 37.406 64.3889Z" stroke="#45413C" stroke-linecap="round" stroke-linejoin="round"/>
<path d="M54.5349 64.3889C54.5349 65.0048 54.7175 65.6069 55.0597 66.1189C55.4019 66.631 55.8882 67.0302 56.4572 67.2659C57.0262 67.5016 57.6524 67.5632 58.2564 67.4431C58.8605 67.3229 59.4153 67.0263 59.8508 66.5908C60.2863 66.1553 60.5829 65.6005 60.7031 64.9964C60.8232 64.3924 60.7616 63.7662 60.5259 63.1972C60.2902 62.6282 59.8911 62.1419 59.379 61.7997C58.8669 61.4575 58.2648 61.2749 57.6489 61.2749C56.8231 61.2752 56.0312 61.6033 55.4473 62.1873C54.8633 62.7712 54.5352 63.5631 54.5349 64.3889Z" stroke="#45413C" stroke-linecap="round" stroke-linejoin="round"/>
<path d="M65.4349 56.5999H60.7629V51.9319H62.8399C63.5278 51.9332 64.1871 52.207 64.6734 52.6934C65.1598 53.1798 65.4336 53.8391 65.4349 54.5269V56.5999Z" fill="#00B8F0" stroke="#45413C" stroke-linecap="round" stroke-linejoin="round"/>
<path d="M65.4351 64.389H67.2521C67.5968 64.389 67.9275 64.252 68.1713 64.0082C68.4151 63.7644 68.5521 63.4338 68.5521 63.089V60.5H65.4351V64.389Z" fill="#FF8A14" stroke="#45413C" stroke-linecap="round" stroke-linejoin="round"/>
</svg>
