<svg width="100" height="100" viewBox="0 0 100 100" fill="none" xmlns="http://www.w3.org/2000/svg">
<path d="M10 50C10 60.6087 14.2143 70.7828 21.7157 78.2843C29.2172 85.7857 39.3913 90 50 90C60.6087 90 70.7828 85.7857 78.2843 78.2843C85.7857 70.7828 90 60.6087 90 50C90 39.3913 85.7857 29.2172 78.2843 21.7157C70.7828 14.2143 60.6087 10 50 10C39.3913 10 29.2172 14.2143 21.7157 21.7157C14.2143 29.2172 10 39.3913 10 50Z" fill="#DAEDF7" stroke="#DAEDF7"/>
<path opacity="0.15" d="M31.25 78.831C31.25 79.2885 32.7348 79.7272 35.3777 80.0507C38.0207 80.3742 41.6053 80.556 45.343 80.556C49.0807 80.556 52.6653 80.3742 55.3083 80.0507C57.9512 79.7272 59.436 79.2885 59.436 78.831C59.436 78.3735 57.9512 77.9347 55.3083 77.6112C52.6653 77.2877 49.0807 77.106 45.343 77.106C41.6053 77.106 38.0207 77.2877 35.3777 77.6112C32.7348 77.9347 31.25 78.3735 31.25 78.831Z" fill="#45413C"/>
<path d="M73.4939 29.994C73.4936 28.78 73.0112 27.6158 72.1527 26.7575C71.2942 25.8992 70.1299 25.417 68.9159 25.417H21.7699C20.5559 25.417 19.3916 25.8992 18.5331 26.7575C17.6746 27.6158 17.1922 28.78 17.1919 29.994V61.245H73.4919L73.4939 29.994Z" fill="#00B8F0"/>
<path d="M73.494 48.4641H54.561C53.5002 48.4641 52.4828 48.8855 51.7326 49.6357C50.9825 50.3858 50.561 51.4032 50.561 52.4641V61.2441H73.494V48.4641Z" fill="#009FD9"/>
<path d="M54.8109 25.417H21.7699C20.5559 25.417 19.3916 25.8992 18.5331 26.7575C17.6746 27.6158 17.1922 28.78 17.1919 29.994V61.245H18.9819L54.8109 25.417Z" fill="#4ACFFF"/>
<path d="M52.167 74.8931H38.519L39.372 68.0691H51.314L52.167 74.8931Z" fill="#DAEDF7"/>
<path d="M51.634 70.6281H39.052L39.372 68.0691H51.314L51.634 70.6281Z" fill="#ADC4D9"/>
<path d="M52.167 74.8931H38.519L39.372 68.0691H51.314L52.167 74.8931Z" stroke="#45413C" stroke-linecap="round" stroke-linejoin="round"/>
<path d="M55.1151 78.3061H35.5711C35.3949 78.3082 35.2209 78.2662 35.0651 78.1839C34.9092 78.1017 34.7764 77.9817 34.6787 77.8351C34.581 77.6884 34.5216 77.5196 34.5057 77.3441C34.4899 77.1686 34.5182 76.9919 34.5881 76.8301C34.8665 76.25 35.3031 75.7603 35.8477 75.4176C36.3923 75.0749 37.0226 74.8931 37.6661 74.8931H53.0201C53.6639 74.8927 54.2947 75.0743 54.8396 75.4171C55.3846 75.7598 55.8216 76.2496 56.1001 76.8301C56.17 76.992 56.1983 77.1689 56.1824 77.3446C56.1665 77.5203 56.1068 77.6892 56.0089 77.8359C55.911 77.9826 55.7779 78.1025 55.6218 78.1846C55.4657 78.2668 55.2915 78.3085 55.1151 78.3061Z" fill="#DAEDF7" stroke="#45413C" stroke-linecap="round" stroke-linejoin="round"/>
<path d="M68.9161 68.0691C69.5173 68.0691 70.1126 67.9507 70.668 67.7206C71.2234 67.4906 71.7281 67.1534 72.1532 66.7283C72.5783 66.3031 72.9156 65.7985 73.1456 65.243C73.3757 64.6876 73.4941 64.0923 73.4941 63.4911V61.2451H17.1941V63.4911C17.1941 64.7053 17.6764 65.8697 18.535 66.7283C19.3935 67.5868 20.5579 68.0691 21.7721 68.0691H68.9161Z" fill="white"/>
<path d="M68.916 68.0689C69.5172 68.0689 70.1125 67.9505 70.668 67.7204C71.2234 67.4904 71.7281 67.1531 72.1532 66.728C72.5783 66.3029 72.9155 65.7983 73.1456 65.2428C73.3756 64.6874 73.494 64.0921 73.494 63.4909V61.2439H50.561V68.0689H68.916Z" fill="#ADC4D9"/>
<path d="M68.9161 68.0691C69.5173 68.0691 70.1126 67.9507 70.668 67.7206C71.2234 67.4906 71.7281 67.1534 72.1532 66.7283C72.5783 66.3031 72.9155 65.7985 73.1456 65.243C73.3757 64.6876 73.4941 64.0923 73.4941 63.4911V61.2451H17.1941V63.4911C17.1941 64.7053 17.6764 65.8697 18.535 66.7283C19.3935 67.5868 20.5579 68.0691 21.7721 68.0691H68.9161Z" stroke="#45413C" stroke-linecap="round" stroke-linejoin="round"/>
<path d="M73.4939 29.994C73.4936 28.78 73.0112 27.6158 72.1527 26.7575C71.2942 25.8992 70.1299 25.417 68.9159 25.417H21.7699C20.5559 25.417 19.3916 25.8992 18.5331 26.7575C17.6746 27.6158 17.1922 28.78 17.1919 29.994V61.245H73.4919L73.4939 29.994Z" stroke="#45413C" stroke-linecap="round" stroke-linejoin="round"/>
<path d="M44.343 64.657C44.343 64.9222 44.4484 65.1765 44.6359 65.3641C44.8235 65.5516 45.0778 65.657 45.343 65.657C45.6082 65.657 45.8626 65.5516 46.0501 65.3641C46.2377 65.1765 46.343 64.9222 46.343 64.657C46.343 64.3918 46.2377 64.1374 46.0501 63.9499C45.8626 63.7623 45.6082 63.657 45.343 63.657C45.0778 63.657 44.8235 63.7623 44.6359 63.9499C44.4484 64.1374 44.343 64.3918 44.343 64.657Z" fill="#45413C"/>
<path d="M53.561 51.4641H85V80.8061H53.561V51.4641Z" fill="#DEBB7E"/>
<path opacity="0.7" d="M85 53.4081C85 52.8925 84.7952 52.3981 84.4307 52.0335C84.0661 51.6689 83.5716 51.4641 83.056 51.4641H55.505C54.9895 51.4641 54.495 51.6689 54.1304 52.0335C53.7658 52.3981 53.561 52.8925 53.561 53.4081V58.1551C53.561 57.6395 53.7658 57.1451 54.1304 56.7805C54.495 56.4159 54.9895 56.2111 55.505 56.2111H83.056C83.5716 56.2111 84.0661 56.4159 84.4307 56.7805C84.7952 57.1451 85 57.6395 85 58.1551V53.4081Z" fill="#F7E5C6"/>
<path d="M72.4249 59.9381C72.4249 60.2033 72.3196 60.4577 72.132 60.6452C71.9445 60.8328 71.6902 60.9381 71.4249 60.9381H67.1379C66.8727 60.9381 66.6184 60.8328 66.4308 60.6452C66.2433 60.4577 66.1379 60.2033 66.1379 59.9381V51.4641H72.4249V59.9381Z" fill="white" stroke="#45413C" stroke-linecap="round" stroke-linejoin="round"/>
<path d="M53.561 51.4641H85V80.8061H53.561V51.4641Z" stroke="#45413C" stroke-linecap="round" stroke-linejoin="round"/>
<path d="M66.77 70.1189H82.402V78.2069H66.77V70.1189Z" fill="white" stroke="#45413C" stroke-linecap="round" stroke-linejoin="round"/>
<path d="M69.6299 72.3621V75.9641" stroke="#45413C" stroke-linecap="round" stroke-linejoin="round"/>
<path d="M71.8569 72.3621V75.9641" stroke="#45413C" stroke-linecap="round" stroke-linejoin="round"/>
<path d="M75.5691 72.3621V75.9641" stroke="#45413C" stroke-linecap="round" stroke-linejoin="round"/>
<path d="M77.7219 72.3621V75.9641" stroke="#45413C" stroke-linecap="round" stroke-linejoin="round"/>
<path d="M79.875 72.3621V75.9641" stroke="#45413C" stroke-linecap="round" stroke-linejoin="round"/>
</svg>
