<svg width="100" height="100" viewBox="0 0 100 100" fill="none" xmlns="http://www.w3.org/2000/svg">
<path d="M89.5999 51.5611C89.6007 45.6509 88.2785 39.8156 85.7304 34.4829C83.1823 29.1503 79.4729 24.4556 74.8742 20.7433C70.2755 17.0309 64.9042 14.3949 59.1541 13.0287C53.4041 11.6624 47.4211 11.6006 41.644 12.8477C35.867 14.0947 30.4423 16.6191 25.7678 20.2357C21.0934 23.8522 17.2877 28.4692 14.63 33.748C11.9722 39.0268 10.5297 44.8336 10.4083 50.7425C10.2868 56.6514 11.4896 62.5125 13.9283 67.8961H86.0715C88.4013 62.7657 89.6044 57.1956 89.5999 51.5611Z" fill="#B8ECFF"/>
<path d="M13.9282 67.8962C17.0692 74.8301 22.1421 80.7118 28.5395 84.837C34.9369 88.9622 42.3877 91.1562 49.9999 91.1562C57.612 91.1562 65.0628 88.9622 71.4602 84.837C77.8576 80.7118 82.9305 74.8301 86.0715 67.8962H13.9282Z" fill="#DAEDF7"/>
<path d="M11.3901 67.8962H88.6101" stroke="#45413C" stroke-linecap="round" stroke-linejoin="round"/>
<path d="M6.93506 67.8962H9.41006" stroke="#45413C" stroke-linecap="round" stroke-linejoin="round"/>
<path d="M90.5901 67.8962H93.0651" stroke="#45413C" stroke-linecap="round" stroke-linejoin="round"/>
<path d="M32.2237 55.4451H23.8582C23.5956 55.4451 23.3438 55.5494 23.1581 55.735C22.9725 55.9207 22.8682 56.1725 22.8682 56.4351V67.8696H33.2137V56.4351C33.2137 56.1725 33.1094 55.9207 32.9237 55.735C32.738 55.5494 32.4862 55.4451 32.2237 55.4451Z" fill="#FF6242"/>
<path d="M32.2237 55.4451H23.8582C23.5956 55.4451 23.3438 55.5494 23.1581 55.735C22.9725 55.9207 22.8682 56.1725 22.8682 56.4351V59.8011C22.8682 59.5122 22.9829 59.2353 23.1871 59.031C23.3914 58.8268 23.6683 58.7121 23.9572 58.7121H32.1247C32.4135 58.7121 32.6905 58.8268 32.8947 59.031C33.0989 59.2353 33.2137 59.5122 33.2137 59.8011V56.4351C33.2137 56.1725 33.1094 55.9207 32.9237 55.735C32.738 55.5494 32.4862 55.4451 32.2237 55.4451Z" fill="#FF6242"/>
<path d="M32.2237 55.4451H23.8582C23.5956 55.4451 23.3438 55.5494 23.1581 55.735C22.9725 55.9207 22.8682 56.1725 22.8682 56.4351V67.8696H33.2137V56.4351C33.2137 56.1725 33.1094 55.9207 32.9237 55.735C32.738 55.5494 32.4862 55.4451 32.2237 55.4451Z" stroke="#45413C" stroke-linecap="round" stroke-linejoin="round"/>
<path d="M46.9251 38.5693H38.5596C38.297 38.5693 38.0452 38.6736 37.8595 38.8593C37.6739 39.045 37.5696 39.2968 37.5696 39.5593V67.8733H47.9151V39.5593C47.9151 39.2968 47.8108 39.045 47.6251 38.8593C47.4395 38.6736 47.1876 38.5693 46.9251 38.5693Z" fill="#00B8F0"/>
<path d="M46.9251 38.5693H38.5596C38.297 38.5693 38.0452 38.6736 37.8595 38.8593C37.6739 39.045 37.5696 39.2968 37.5696 39.5593V42.9253C37.5696 42.6365 37.6843 42.3595 37.8885 42.1553C38.0928 41.9511 38.3698 41.8363 38.6586 41.8363H46.8261C47.1149 41.8363 47.3919 41.9511 47.5961 42.1553C47.8003 42.3595 47.9151 42.6365 47.9151 42.9253V39.5593C47.9151 39.2968 47.8108 39.045 47.6251 38.8593C47.4395 38.6736 47.1876 38.5693 46.9251 38.5693Z" fill="#4ACFFF"/>
<path d="M46.9251 38.5693H38.5596C38.297 38.5693 38.0452 38.6736 37.8595 38.8593C37.6739 39.045 37.5696 39.2968 37.5696 39.5593V67.8733H47.9151V39.5593C47.9151 39.2968 47.8108 39.045 47.6251 38.8593C47.4395 38.6736 47.1876 38.5693 46.9251 38.5693Z" stroke="#45413C" stroke-linecap="round" stroke-linejoin="round"/>
<path d="M76.3282 26.6895H67.9627C67.7001 26.6895 67.4483 26.7938 67.2626 26.9794C67.077 27.1651 66.9727 27.4169 66.9727 27.6795V67.8735H77.3182V27.6795C77.3182 27.4169 77.2139 27.1651 77.0282 26.9794C76.8425 26.7938 76.5907 26.6895 76.3282 26.6895Z" fill="#6DD627"/>
<path d="M76.3282 26.6895H67.9627C67.7001 26.6895 67.4483 26.7938 67.2626 26.9794C67.077 27.1651 66.9727 27.4169 66.9727 27.6795V31.0455C66.9727 30.7566 67.0874 30.4796 67.2916 30.2754C67.4958 30.0712 67.7728 29.9565 68.0617 29.9565H76.2292C76.518 29.9565 76.795 30.0712 76.9992 30.2754C77.2034 30.4796 77.3182 30.7566 77.3182 31.0455V27.6795C77.3182 27.4169 77.2139 27.1651 77.0282 26.9794C76.8425 26.7938 76.5907 26.6895 76.3282 26.6895Z" fill="#9CEB60"/>
<path d="M76.3282 26.6895H67.9627C67.7001 26.6895 67.4483 26.7938 67.2626 26.9794C67.077 27.1651 66.9727 27.4169 66.9727 27.6795V67.8735H77.3182V27.6795C77.3182 27.4169 77.2139 27.1651 77.0282 26.9794C76.8425 26.7938 76.5907 26.6895 76.3282 26.6895Z" stroke="#45413C" stroke-linecap="round" stroke-linejoin="round"/>
<path d="M61.6265 44.0144H53.261C52.9984 44.0144 52.7466 44.1187 52.561 44.3044C52.3753 44.49 52.271 44.7418 52.271 45.0044V67.8734H62.6165V45.0044C62.6165 44.8744 62.5909 44.7457 62.5411 44.6255C62.4914 44.5054 62.4185 44.3963 62.3265 44.3044C62.2346 44.2124 62.1255 44.1395 62.0054 44.0898C61.8852 44.04 61.7565 44.0144 61.6265 44.0144Z" fill="#FFE500"/>
<path d="M61.6265 44.0144H53.261C52.9984 44.0144 52.7466 44.1187 52.561 44.3044C52.3753 44.49 52.271 44.7418 52.271 45.0044V48.3704C52.271 48.0816 52.3857 47.8046 52.59 47.6004C52.7942 47.3961 53.0712 47.2814 53.36 47.2814H61.5275C61.8163 47.2814 62.0933 47.3961 62.2975 47.6004C62.5018 47.8046 62.6165 48.0816 62.6165 48.3704V45.0044C62.6165 44.8744 62.5909 44.7457 62.5411 44.6255C62.4914 44.5054 62.4185 44.3963 62.3265 44.3044C62.2346 44.2124 62.1255 44.1395 62.0054 44.0898C61.8852 44.04 61.7565 44.0144 61.6265 44.0144Z" fill="#FFF48C"/>
<path d="M61.6265 44.0144H53.261C52.9984 44.0144 52.7466 44.1187 52.561 44.3044C52.3753 44.49 52.271 44.7418 52.271 45.0044V67.8734H62.6165V45.0044C62.6165 44.8744 62.5909 44.7457 62.5411 44.6255C62.4914 44.5054 62.4185 44.3963 62.3265 44.3044C62.2346 44.2124 62.1255 44.1395 62.0054 44.0898C61.8852 44.04 61.7565 44.0144 61.6265 44.0144Z" stroke="#45413C" stroke-linecap="round" stroke-linejoin="round"/>
<path d="M28.0419 38.5397C27.7378 38.5402 27.441 38.4474 27.1914 38.2738C26.9418 38.1001 26.7515 37.8541 26.6463 37.5688C26.541 37.2836 26.5258 36.9729 26.6028 36.6788C26.6798 36.3847 26.8452 36.1213 27.0766 35.9241L41.7831 23.3838C42.0109 23.1896 42.2921 23.0687 42.5897 23.0371C42.8874 23.0055 43.1877 23.0645 43.4512 23.2066L57.0261 30.5197L70.9614 11.9077C71.0784 11.7517 71.2249 11.6203 71.3927 11.5209C71.5606 11.4216 71.7463 11.3562 71.9393 11.3286C72.1324 11.3011 72.329 11.3118 72.5179 11.3602C72.7068 11.4086 72.8843 11.4937 73.0403 11.6107C73.1964 11.7277 73.3278 11.8743 73.4272 12.0421C73.5265 12.2099 73.5918 12.3957 73.6194 12.5887C73.647 12.7818 73.6363 12.9784 73.5879 13.1673C73.5395 13.3562 73.4544 13.5337 73.3374 13.6897L58.6329 33.3244C58.4196 33.609 58.1112 33.8077 57.7638 33.8842C57.4164 33.9607 57.0531 33.9099 56.74 33.7412L42.9335 26.3033L29.0052 38.1833C28.7367 38.4129 28.3951 38.5393 28.0419 38.5397Z" fill="#9CEB60" stroke="#46B000" stroke-linecap="round" stroke-linejoin="round"/>
<path d="M24.0808 37.0537C24.0808 38.104 24.498 39.1112 25.2407 39.8539C25.9833 40.5965 26.9906 41.0138 28.0408 41.0138C29.0911 41.0138 30.0983 40.5965 30.841 39.8539C31.5836 39.1112 32.0008 38.104 32.0008 37.0537C32.0008 36.0035 31.5836 34.9963 30.841 34.2536C30.0983 33.511 29.0911 33.0938 28.0408 33.0938C26.9906 33.0938 25.9833 33.511 25.2407 34.2536C24.498 34.9963 24.0808 36.0035 24.0808 37.0537Z" fill="#C8FFA1" stroke="#46B000"/>
<path d="M38.7822 24.5144C38.7822 25.5647 39.1994 26.5719 39.9421 27.3146C40.6847 28.0572 41.692 28.4744 42.7422 28.4744C43.7925 28.4744 44.7997 28.0572 45.5424 27.3146C46.285 26.5719 46.7022 25.5647 46.7022 24.5144C46.7022 23.4642 46.285 22.4569 45.5424 21.7143C44.7997 20.9717 43.7925 20.5544 42.7422 20.5544C41.692 20.5544 40.6847 20.9717 39.9421 21.7143C39.1994 22.4569 38.7822 23.4642 38.7822 24.5144Z" fill="#C8FFA1" stroke="#46B000"/>
<path d="M53.4839 32.4344C53.4839 33.4846 53.9011 34.4919 54.6437 35.2345C55.3864 35.9772 56.3936 36.3944 57.4439 36.3944C58.4941 36.3944 59.5014 35.9772 60.244 35.2345C60.9867 34.4919 61.4039 33.4846 61.4039 32.4344C61.4039 31.3841 60.9867 30.3769 60.244 29.6342C59.5014 28.8916 58.4941 28.4744 57.4439 28.4744C56.3936 28.4744 55.3864 28.8916 54.6437 29.6342C53.9011 30.3769 53.4839 31.3841 53.4839 32.4344Z" fill="#C8FFA1" stroke="#46B000"/>
<path d="M68.1853 12.7989C68.1853 13.8491 68.6025 14.8564 69.3452 15.599C70.0878 16.3417 71.095 16.7589 72.1453 16.7589C73.1956 16.7589 74.2028 16.3417 74.9454 15.599C75.6881 14.8564 76.1053 13.8491 76.1053 12.7989C76.1053 11.7486 75.6881 10.7414 74.9454 9.99872C74.2028 9.25608 73.1956 8.83887 72.1453 8.83887C71.095 8.83887 70.0878 9.25608 69.3452 9.99872C68.6025 10.7414 68.1853 11.7486 68.1853 12.7989Z" fill="#C8FFA1" stroke="#46B000"/>
</svg>
