<svg width="100" height="100" viewBox="0 0 100 100" fill="none" xmlns="http://www.w3.org/2000/svg">
<path d="M90 54.292C90.0008 48.3221 88.6653 42.4278 86.0914 37.0413C83.5176 31.6548 79.7707 26.9127 75.1256 23.1628C70.4804 19.4129 65.0548 16.7503 59.2467 15.3703C53.4386 13.9903 47.3952 13.9278 41.5597 15.1875C35.7243 16.4472 30.2448 18.997 25.5232 22.6501C20.8015 26.3032 16.9574 30.9668 14.2728 36.2989C11.5882 41.6311 10.1311 47.4965 10.0084 53.4651C9.8858 59.4337 11.1007 65.354 13.564 70.792H86.436C88.7893 65.6098 90.0046 59.9834 90 54.292Z" fill="#B8ECFF"/>
<path d="M13.564 70.792C16.7367 77.7959 21.8608 83.737 28.3228 87.9039C34.7849 92.0708 42.3109 94.2869 50 94.2869C57.689 94.2869 65.2151 92.0708 71.6771 87.9039C78.1391 83.737 83.2633 77.7959 86.436 70.792H13.564Z" fill="#DAEDF7"/>
<path d="M11 70.792H89" stroke="#45413C" stroke-linecap="round" stroke-linejoin="round"/>
<path d="M6.5 70.792H9" stroke="#45413C" stroke-linecap="round" stroke-linejoin="round"/>
<path d="M91 70.792H93.5" stroke="#45413C" stroke-linecap="round" stroke-linejoin="round"/>
<path d="M42.4201 51.509C39.701 51.5058 37.0942 50.4243 35.1715 48.5016C33.2488 46.5789 32.1672 43.9721 32.1641 41.253V31.885C32.1791 31.0222 32.5324 30.1999 33.1478 29.5951C33.7633 28.9903 34.5917 28.6514 35.4546 28.6514C36.3175 28.6514 37.1458 28.9903 37.7613 29.5951C38.3767 30.1999 38.73 31.0222 38.7451 31.885V41.253C38.7464 42.2273 39.134 43.1612 39.8229 43.8502C40.5118 44.5391 41.4458 44.9267 42.4201 44.928H50.0361V51.509H42.4201Z" fill="#BF8256" stroke="#45413C" stroke-linecap="round" stroke-linejoin="round"/>
<path d="M34.5083 21.5537L38.0283 21.5415L38.0465 26.8215L34.5265 26.8336L34.5083 21.5537Z" fill="#BF8256" stroke="#45413C" stroke-linecap="round" stroke-linejoin="round"/>
<path d="M39.308 31.2179C39.2138 31.8111 38.9084 32.3504 38.4481 32.7363C37.9878 33.1221 37.4036 33.3287 36.803 33.3179L33.725 33.2999C33.2238 33.2967 32.7443 33.0949 32.3917 32.7387C32.0391 32.3826 31.8421 31.9011 31.844 31.3999L31.868 27.6149C31.8712 27.1137 32.073 26.6342 32.4292 26.2816C32.7853 25.929 33.2668 25.732 33.768 25.7339L36.846 25.7529C37.4466 25.7495 38.0282 25.9633 38.4836 26.3549C38.9389 26.7466 39.2374 27.2896 39.324 27.8839C39.4618 28.9913 39.4564 30.1119 39.308 31.2179Z" fill="#BF8256" stroke="#45413C" stroke-linecap="round" stroke-linejoin="round"/>
<path d="M34.742 25.761C35.3425 25.7578 35.924 25.9717 36.3793 26.3633C36.8346 26.7549 37.1332 27.2978 37.22 27.892C37.3563 29.0013 37.3496 30.1235 37.2 31.231C37.1145 31.7734 36.8507 32.2719 36.4503 32.6477C36.0499 33.0235 35.5357 33.2551 34.989 33.306L36.803 33.318C37.4035 33.3288 37.9878 33.1222 38.4481 32.7364C38.9084 32.3505 39.2138 31.8112 39.308 31.218C39.4581 30.1105 39.4649 28.9882 39.328 27.879C39.2412 27.2848 38.9426 26.7419 38.4873 26.3503C38.032 25.9587 37.4505 25.7448 36.85 25.748L33.772 25.729C33.6848 25.7312 33.5979 25.7396 33.512 25.754L34.742 25.761Z" fill="#E09F7E"/>
<path d="M39.308 31.2179C39.2138 31.8111 38.9084 32.3504 38.4481 32.7363C37.9878 33.1221 37.4036 33.3287 36.803 33.3179L33.725 33.2999C33.2238 33.2967 32.7443 33.0949 32.3917 32.7387C32.0391 32.3826 31.8421 31.9011 31.844 31.3999L31.868 27.6149C31.8712 27.1137 32.073 26.6342 32.4292 26.2816C32.7853 25.929 33.2668 25.732 33.768 25.7339L36.846 25.7529C37.4466 25.7495 38.0282 25.9633 38.4836 26.3549C38.9389 26.7466 39.2374 27.2896 39.324 27.8839C39.4618 28.9913 39.4564 30.1119 39.308 31.2179Z" stroke="#45413C" stroke-linecap="round" stroke-linejoin="round"/>
<path d="M79.357 51.509C82.0761 51.5058 84.6829 50.4243 86.6056 48.5016C88.5282 46.5789 89.6098 43.9721 89.613 41.253V31.885C89.5979 31.0222 89.2446 30.1999 88.6292 29.5951C88.0137 28.9903 87.1854 28.6514 86.3225 28.6514C85.4596 28.6514 84.6312 28.9903 84.0158 29.5951C83.4003 30.1999 83.047 31.0222 83.032 31.885V41.253C83.0306 42.2273 82.643 43.1612 81.9541 43.8502C81.2652 44.5391 80.3312 44.9267 79.357 44.928H71.741V51.509H79.357Z" fill="#BF8256" stroke="#45413C" stroke-linecap="round" stroke-linejoin="round"/>
<path d="M60.892 43.7571H78.585C78.8961 43.7571 79.1945 43.8807 79.4145 44.1006C79.6345 44.3206 79.758 44.619 79.758 44.9301V52.3451C79.758 52.6562 79.6345 52.9545 79.4145 53.1745C79.1945 53.3945 78.8961 53.5181 78.585 53.5181H74.5C73.8776 53.5181 73.2806 53.7654 72.8405 54.2055C72.4003 54.6456 72.153 55.2426 72.153 55.8651V70.8241H49.622V55.8651C49.622 55.2426 49.3748 54.6456 48.9346 54.2055C48.4945 53.7654 47.8975 53.5181 47.275 53.5181H43.192C42.8809 53.5181 42.5826 53.3945 42.3626 53.1745C42.1426 52.9545 42.019 52.6562 42.019 52.3451V44.9301C42.019 44.619 42.1426 44.3206 42.3626 44.1006C42.5826 43.8807 42.8809 43.7571 43.192 43.7571H60.885" fill="#87898C"/>
<path d="M79.7619 44.9301V47.9461C79.7611 47.6351 79.6373 47.3371 79.4175 47.1172C79.1977 46.8972 78.8998 46.7731 78.5889 46.7721H43.1889C42.8778 46.7729 42.5796 46.8968 42.3596 47.1168C42.1396 47.3368 42.0157 47.635 42.0149 47.9461V44.9301C42.0159 44.6191 42.14 44.3212 42.36 44.1015C42.5799 43.8817 42.8779 43.7579 43.1889 43.7571H78.5889C78.8997 43.7581 79.1974 43.8821 79.4172 44.1018C79.6369 44.3216 79.7608 44.6193 79.7619 44.9301Z" fill="#87898C"/>
<path d="M60.892 43.7571H78.585C78.8961 43.7571 79.1945 43.8807 79.4145 44.1006C79.6345 44.3206 79.758 44.619 79.758 44.9301V52.3451C79.758 52.6562 79.6345 52.9545 79.4145 53.1745C79.1945 53.3945 78.8961 53.5181 78.585 53.5181H74.5C73.8776 53.5181 73.2806 53.7654 72.8405 54.2055C72.4003 54.6456 72.153 55.2426 72.153 55.8651V70.8241H49.622V55.8651C49.622 55.2426 49.3748 54.6456 48.9346 54.2055C48.4945 53.7654 47.8975 53.5181 47.275 53.5181H43.192C42.8809 53.5181 42.5826 53.3945 42.3626 53.1745C42.1426 52.9545 42.019 52.6562 42.019 52.3451V44.9301C42.019 44.619 42.1426 44.3206 42.3626 44.1006C42.5826 43.8807 42.8809 43.7571 43.192 43.7571H60.885" stroke="#45413C" stroke-linecap="round" stroke-linejoin="round"/>
<path d="M56.665 44.0819C56.6821 45.1908 57.1346 46.2485 57.9248 47.0266C58.715 47.8048 59.7795 48.2409 60.8885 48.2409C61.9976 48.2409 63.0621 47.8048 63.8523 47.0266C64.6425 46.2485 65.095 45.1908 65.112 44.0819V37.8999H56.665V44.0819Z" fill="#BF8256" stroke="#45413C" stroke-linecap="round" stroke-linejoin="round"/>
<path d="M65.112 44.0789C65.005 44.1279 64.905 44.1789 64.793 44.2249C62.276 45.1707 59.5011 45.1707 56.984 44.2249C56.872 44.1799 56.772 44.1249 56.665 44.0789V37.8999H65.112V44.0789Z" fill="#BF8256"/>
<path d="M56.665 44.0819C56.6821 45.1908 57.1346 46.2485 57.9248 47.0266C58.715 47.8048 59.7795 48.2409 60.8885 48.2409C61.9976 48.2409 63.0621 47.8048 63.8523 47.0266C64.6425 46.2485 65.095 45.1908 65.112 44.0819V37.8999H56.665V44.0819Z" stroke="#45413C" stroke-linecap="round" stroke-linejoin="round"/>
<path d="M60.9191 48.2389L57.3731 50.6769C57.2322 50.7734 57.072 50.8381 56.9036 50.8663C56.7352 50.8946 56.5626 50.8858 56.398 50.8406C56.2333 50.7954 56.0804 50.7148 55.9501 50.6045C55.8197 50.4942 55.715 50.3568 55.6431 50.2019L53.1101 44.7129C52.9966 44.4665 52.972 44.1884 53.0403 43.9259C53.1087 43.6634 53.2659 43.4327 53.4851 43.2729L55.9331 41.4929L60.9191 48.2389Z" fill="#87898C" stroke="#45413C" stroke-linecap="round" stroke-linejoin="round"/>
<path d="M60.9189 48.239L64.466 50.677C64.6071 50.7741 64.7677 50.8393 64.9367 50.8678C65.1056 50.8963 65.2788 50.8876 65.444 50.8421C65.6092 50.7967 65.7625 50.7157 65.8931 50.6047C66.0236 50.4938 66.1284 50.3556 66.1999 50.2L68.7329 44.711C68.8464 44.4646 68.8711 44.1865 68.8027 43.924C68.7344 43.6614 68.5772 43.4307 68.3579 43.271L65.91 41.491L60.9189 48.239Z" fill="#87898C" stroke="#45413C" stroke-linecap="round" stroke-linejoin="round"/>
<path d="M87.6069 9.9359C87.9853 11.1514 87.9927 12.4521 87.6281 13.6717C87.2634 14.8914 86.5434 15.9746 85.5599 16.7829L93.0739 40.8609C93.1898 41.1669 93.242 41.4934 93.2271 41.8203C93.2122 42.1472 93.1306 42.4676 92.9874 42.7619C92.8441 43.0561 92.6422 43.3179 92.3941 43.5312C92.1459 43.7445 91.8567 43.9049 91.5444 44.0023C91.232 44.0998 90.9029 44.1323 90.5775 44.098C90.2521 44.0636 89.9371 43.963 89.6519 43.8025C89.3668 43.6419 89.1175 43.4247 88.9194 43.1642C88.7213 42.9038 88.5785 42.6056 88.4999 42.2879L80.9859 18.2099C79.8383 18.1155 78.7376 17.7129 77.8 17.0446C76.8623 16.3763 76.1226 15.4671 75.659 14.4132C75.1954 13.3592 75.025 12.1996 75.166 11.0568C75.307 9.91405 75.754 8.83059 76.4599 7.9209C76.5496 7.80614 76.669 7.71808 76.8052 7.66621C76.9413 7.61434 77.0891 7.60063 77.2324 7.62656C77.3758 7.6525 77.5094 7.71709 77.6187 7.81337C77.728 7.90965 77.809 8.03397 77.8529 8.1729L79.2419 12.6219C79.3053 12.8212 79.4442 12.9878 79.6289 13.0859L81.6289 14.1349C81.8173 14.233 82.0369 14.2527 82.2398 14.1895C82.4427 14.1264 82.6124 13.9856 82.7119 13.7979L83.7609 11.7979C83.8556 11.6123 83.8749 11.3974 83.8149 11.1979L82.4279 6.7449C82.3851 6.6059 82.381 6.45786 82.416 6.31671C82.4511 6.17556 82.5239 6.04663 82.6268 5.94379C82.7296 5.84095 82.8585 5.76809 82.9997 5.73304C83.1408 5.698 83.2889 5.7021 83.4279 5.7449C84.4111 6.05402 85.3049 6.59672 86.0327 7.32659C86.7604 8.05645 87.3006 8.95175 87.6069 9.9359Z" fill="#F8F8F8"/>
<path d="M87.607 9.9359C87.9854 11.1514 87.9928 12.4521 87.6282 13.6717C87.2635 14.8914 86.5435 15.9746 85.56 16.7829L93.074 40.8609C93.168 41.1612 93.2019 41.477 93.1737 41.7904C93.1455 42.1037 93.0557 42.4085 92.9096 42.6871C92.7635 42.9658 92.5639 43.2129 92.3222 43.4143C92.0805 43.6157 91.8014 43.7675 91.501 43.8609L82.24 14.1879C82.3406 14.1572 82.4342 14.1069 82.5153 14.04C82.5965 13.9731 82.6637 13.8908 82.713 13.7979L83.762 11.7979C83.8567 11.6123 83.876 11.3974 83.816 11.1979L82.428 6.7449C82.3852 6.6059 82.3811 6.45786 82.4161 6.31671C82.4512 6.17556 82.524 6.04663 82.6269 5.94379C82.7297 5.84095 82.8586 5.76809 82.9998 5.73304C83.141 5.698 83.289 5.7021 83.428 5.7449C84.4113 6.05402 85.305 6.59672 86.0328 7.32659C86.7606 8.05645 87.3007 8.95175 87.607 9.9359Z" fill="#E0E0E0"/>
<path d="M87.6069 9.9359C87.9853 11.1514 87.9927 12.4521 87.6281 13.6717C87.2634 14.8914 86.5434 15.9746 85.5599 16.7829L93.0739 40.8609C93.1898 41.1669 93.242 41.4934 93.2271 41.8203C93.2122 42.1472 93.1306 42.4676 92.9874 42.7619C92.8441 43.0561 92.6422 43.3179 92.3941 43.5312C92.1459 43.7445 91.8567 43.9049 91.5444 44.0023C91.232 44.0998 90.9029 44.1323 90.5775 44.098C90.2521 44.0636 89.9371 43.963 89.6519 43.8025C89.3668 43.6419 89.1175 43.4247 88.9194 43.1642C88.7213 42.9038 88.5785 42.6056 88.4999 42.2879L80.9859 18.2099C79.8383 18.1155 78.7376 17.7129 77.8 17.0446C76.8623 16.3763 76.1226 15.4671 75.659 14.4132C75.1954 13.3592 75.025 12.1996 75.166 11.0568C75.307 9.91405 75.754 8.83059 76.4599 7.9209C76.5496 7.80614 76.669 7.71808 76.8052 7.66621C76.9413 7.61434 77.0891 7.60063 77.2324 7.62656C77.3758 7.6525 77.5094 7.71709 77.6187 7.81337C77.728 7.90965 77.809 8.03397 77.8529 8.1729L79.2419 12.6219C79.3053 12.8212 79.4442 12.9878 79.6289 13.0859L81.6289 14.1349C81.8173 14.233 82.0369 14.2527 82.2398 14.1895C82.4427 14.1264 82.6124 13.9856 82.7119 13.7979L83.7609 11.7979C83.8556 11.6123 83.8749 11.3974 83.8149 11.1979L82.4279 6.7449C82.3851 6.6059 82.381 6.45786 82.416 6.31671C82.4511 6.17556 82.5239 6.04663 82.6268 5.94379C82.7296 5.84095 82.8585 5.76809 82.9997 5.73304C83.1408 5.698 83.2889 5.7021 83.4279 5.7449C84.4111 6.05402 85.3049 6.59672 86.0327 7.32659C86.7604 8.05645 87.3006 8.95175 87.6069 9.9359Z" stroke="#45413C" stroke-linecap="round" stroke-linejoin="round"/>
<path d="M85.384 31.206C85.6247 31.7562 86.0561 32.201 86.5987 32.4582C87.1414 32.7155 87.7587 32.768 88.337 32.606L91.311 31.806C91.5511 31.7418 91.7762 31.6309 91.9734 31.4798C92.1706 31.3286 92.3362 31.14 92.4605 30.9249C92.5848 30.7097 92.6656 30.4721 92.6981 30.2258C92.7306 29.9794 92.7143 29.729 92.65 29.489L91.673 25.833C91.609 25.5928 91.4982 25.3676 91.347 25.1703C91.1959 24.973 91.0074 24.8073 90.7922 24.6829C90.577 24.5584 90.3394 24.4776 90.093 24.445C89.8466 24.4125 89.5962 24.4287 89.356 24.493L86.383 25.288C85.8008 25.4359 85.2917 25.7894 84.9497 26.2832C84.6076 26.777 84.4558 27.3779 84.522 27.975C84.6693 29.0846 84.959 30.1705 85.384 31.206Z" fill="#BF8256" stroke="#45413C" stroke-linecap="round" stroke-linejoin="round"/>
<path d="M88.426 24.774C87.8439 24.9221 87.3349 25.2756 86.9929 25.7694C86.6509 26.2632 86.499 26.864 86.565 27.461C86.7127 28.5686 87.0024 29.6525 87.427 30.686C87.6462 31.1895 88.027 31.6054 88.5091 31.8682C88.9912 32.131 89.5471 32.2256 90.089 32.137L88.337 32.606C87.7586 32.7681 87.1411 32.7156 86.5983 32.4584C86.0554 32.2011 85.6239 31.7563 85.383 31.206C84.9592 30.1723 84.6698 29.0885 84.522 27.981C84.4558 27.384 84.6076 26.7831 84.9497 26.2893C85.2917 25.7954 85.8008 25.4419 86.383 25.294L89.356 24.499C89.441 24.4792 89.5272 24.4652 89.614 24.457L88.426 24.774Z" fill="#E09F7E"/>
<path d="M85.384 31.206C85.6247 31.7562 86.0561 32.201 86.5987 32.4582C87.1414 32.7155 87.7587 32.768 88.337 32.606L91.311 31.806C91.5511 31.7418 91.7762 31.6309 91.9734 31.4798C92.1706 31.3286 92.3362 31.14 92.4605 30.9249C92.5848 30.7097 92.6656 30.4721 92.6981 30.2258C92.7306 29.9794 92.7143 29.729 92.65 29.489L91.673 25.833C91.609 25.5928 91.4982 25.3676 91.347 25.1703C91.1959 24.973 91.0074 24.8073 90.7922 24.6829C90.577 24.5584 90.3394 24.4776 90.093 24.445C89.8466 24.4125 89.5962 24.4287 89.356 24.493L86.383 25.288C85.8008 25.4359 85.2917 25.7894 84.9497 26.2832C84.6076 26.777 84.4558 27.3779 84.522 27.975C84.6693 29.0846 84.959 30.1705 85.384 31.206Z" stroke="#45413C" stroke-linecap="round" stroke-linejoin="round"/>
<path d="M80.2542 28.4605L82.7801 26.009L86.4574 29.798L83.9314 32.2495L80.2542 28.4605Z" fill="#BF8256" stroke="#45413C" stroke-linecap="round" stroke-linejoin="round"/>
<path d="M60.9189 48.239V70.824V48.239Z" fill="#87898C"/>
<path d="M60.9189 48.239V70.824" stroke="#45413C" stroke-linecap="round" stroke-linejoin="round"/>
<path d="M49.1061 26.8861V23.9771C49.1345 20.9099 50.3729 17.9779 52.5519 15.819C54.7309 13.6601 57.6742 12.449 60.7416 12.449C63.8089 12.449 66.7522 13.6601 68.9312 15.819C71.1102 17.9779 72.3486 20.9099 72.3771 23.9771V26.8861C72.9942 26.8861 73.5861 27.1313 74.0225 27.5677C74.4589 28.0041 74.7041 28.5959 74.7041 29.2131C74.7041 29.8303 74.4589 30.4221 74.0225 30.8585C73.5861 31.2949 72.9942 31.5401 72.3771 31.5401C72.3281 31.5401 72.2831 31.5291 72.2341 31.5261C71.8227 34.2799 70.4362 36.7945 68.327 38.6121C66.2177 40.4297 63.5259 41.4295 60.7416 41.4295C57.9572 41.4295 55.2654 40.4297 53.1561 38.6121C51.0469 36.7945 49.6604 34.2799 49.2491 31.5261C49.2011 31.5261 49.1551 31.5401 49.1061 31.5401C48.4889 31.5401 47.897 31.2949 47.4606 30.8585C47.0242 30.4221 46.7791 29.8303 46.7791 29.2131C46.7791 28.5959 47.0242 28.0041 47.4606 27.5677C47.897 27.1313 48.4889 26.8861 49.1061 26.8861Z" fill="#BF8256" stroke="#45413C" stroke-linecap="round" stroke-linejoin="round"/>
<path d="M65.978 31.831C65.978 32.2166 66.1312 32.5864 66.4039 32.8591C66.6766 33.1318 67.0464 33.285 67.432 33.285C67.8177 33.285 68.1875 33.1318 68.4602 32.8591C68.7328 32.5864 68.886 32.2166 68.886 31.831C68.886 31.4453 68.7328 31.0755 68.4602 30.8028C68.1875 30.5301 67.8177 30.377 67.432 30.377C67.0464 30.377 66.6766 30.5301 66.4039 30.8028C66.1312 31.0755 65.978 31.4453 65.978 31.831Z" fill="#BF8256"/>
<path d="M52.5969 31.831C52.5969 32.2166 52.7501 32.5864 53.0228 32.8591C53.2955 33.1318 53.6653 33.285 54.0509 33.285C54.4365 33.285 54.8064 33.1318 55.0791 32.8591C55.3517 32.5864 55.5049 32.2166 55.5049 31.831C55.5049 31.4453 55.3517 31.0755 55.0791 30.8028C54.8064 30.5301 54.4365 30.377 54.0509 30.377C53.6653 30.377 53.2955 30.5301 53.0228 30.8028C52.7501 31.0755 52.5969 31.4453 52.5969 31.831Z" fill="#BF8256"/>
<path d="M64.2419 34.7859C63.2979 35.6839 62.0449 36.1847 60.7419 36.1847C59.439 36.1847 58.1859 35.6839 57.2419 34.7859" stroke="#45413C" stroke-linecap="round" stroke-linejoin="round"/>
<path d="M54.342 28.05C54.4875 27.706 54.731 27.4126 55.0422 27.2062C55.3535 26.9999 55.7186 26.8899 56.092 26.8899C56.4655 26.8899 56.8306 26.9999 57.1418 27.2062C57.4531 27.4126 57.6966 27.706 57.842 28.05" stroke="#45413C" stroke-linecap="round" stroke-linejoin="round"/>
<path d="M63.6599 28.05C63.8053 27.706 64.0489 27.4126 64.3601 27.2062C64.6714 26.9999 65.0365 26.8899 65.4099 26.8899C65.7833 26.8899 66.1485 26.9999 66.4597 27.2062C66.7709 27.4126 67.0145 27.706 67.1599 28.05" stroke="#45413C" stroke-linecap="round" stroke-linejoin="round"/>
<path d="M60.742 11.761C53.935 11.709 49.106 16.121 49.106 23.396V26.886C49.5879 26.886 50.0533 26.71 50.4146 26.3911C50.7759 26.0721 51.0082 25.6322 51.068 25.154L51.433 22.232C51.4332 21.3234 51.6651 20.4298 52.1067 19.6358C52.5484 18.8417 53.1852 18.1734 53.957 17.694C54.2035 17.5291 54.5014 17.4592 54.7956 17.497C55.0897 17.5349 55.3602 17.678 55.557 17.9C56.2278 18.584 57.0371 19.1168 57.9307 19.4626C58.8242 19.8084 59.7814 19.9592 60.738 19.905C61.6952 19.9598 62.6531 19.8092 63.5474 19.4634C64.4416 19.1176 65.2516 18.5845 65.923 17.9C66.1197 17.678 66.3902 17.5349 66.6843 17.497C66.9785 17.4592 67.2764 17.5291 67.523 17.694C68.2945 18.1736 68.931 18.842 69.3725 19.636C69.814 20.43 70.0457 21.3235 70.046 22.232L70.411 25.154C70.4707 25.6322 70.703 26.0721 71.0643 26.3911C71.4256 26.71 71.891 26.886 72.373 26.886V23.4C72.377 16.121 67.549 11.709 60.742 11.761Z" fill="#614B44"/>
<path d="M60.742 11.761C53.935 11.709 49.106 16.121 49.106 23.396V25.723C49.106 18.448 53.935 14.036 60.742 14.089C67.549 14.036 72.377 18.448 72.377 25.723V23.4C72.377 16.121 67.549 11.709 60.742 11.761Z" fill="#A86C4D"/>
<path d="M71.871 27.139C71.3294 27.4015 70.8719 27.8102 70.5501 28.3189C70.2284 28.8276 70.0552 29.4161 70.05 30.018C70.0623 31.8888 69.5276 33.7224 68.5118 35.2935C67.4959 36.8645 66.0431 38.1045 64.332 38.861C63.9498 38.9604 63.5481 38.9573 63.1675 38.852C62.7869 38.7466 62.4407 38.5428 62.164 38.261C62.0481 38.1535 61.9121 38.07 61.7639 38.0153C61.6156 37.9606 61.458 37.9356 61.3 37.942H60.183C60.0252 37.9353 59.8677 37.9601 59.7195 38.0149C59.5714 38.0696 59.4356 38.1533 59.32 38.261C59.0431 38.5428 58.6968 38.7466 58.316 38.8519C57.9352 38.9573 57.5334 38.9604 57.151 38.861C55.4401 38.1043 53.9876 36.8643 52.9719 35.2933C51.9562 33.7223 51.4217 31.8887 51.434 30.018C51.4285 29.4161 51.255 28.8276 50.9331 28.319C50.6112 27.8104 50.1536 27.4017 49.612 27.139L49.106 26.886V29.978C49.0597 33.1148 50.258 36.1422 52.4386 38.3976C54.6192 40.6529 57.6045 41.9526 60.741 42.012C63.8779 41.9531 66.8636 40.6536 69.0444 38.3982C71.2253 36.1427 72.4236 33.115 72.377 29.978V26.886L71.871 27.139Z" fill="#614B44" stroke="#45413C" stroke-linecap="round" stroke-linejoin="round"/>
<path d="M60.742 11.761C53.935 11.709 49.106 16.121 49.106 23.396V26.886C49.5879 26.886 50.0533 26.71 50.4146 26.3911C50.7759 26.0721 51.0082 25.6322 51.068 25.154L51.433 22.232C51.4332 21.3234 51.6651 20.4298 52.1067 19.6358C52.5484 18.8417 53.1852 18.1734 53.957 17.694C54.2035 17.5291 54.5014 17.4592 54.7956 17.497C55.0897 17.5349 55.3602 17.678 55.557 17.9C56.2278 18.584 57.0371 19.1168 57.9307 19.4626C58.8242 19.8084 59.7814 19.9592 60.738 19.905C61.6952 19.9598 62.6531 19.8092 63.5474 19.4634C64.4416 19.1176 65.2516 18.5845 65.923 17.9C66.1197 17.678 66.3902 17.5349 66.6843 17.497C66.9785 17.4592 67.2764 17.5291 67.523 17.694C68.2945 18.1736 68.9311 18.842 69.3725 19.636C69.814 20.43 70.0457 21.3235 70.046 22.232L70.411 25.154C70.4707 25.6322 70.703 26.0721 71.0643 26.3911C71.4256 26.71 71.891 26.886 72.373 26.886V23.4C72.377 16.121 67.549 11.709 60.742 11.761Z" stroke="#45413C" stroke-linecap="round" stroke-linejoin="round"/>
<path opacity="0.15" d="M17.8159 90.906C17.8159 91.4194 19.9173 91.9119 23.6577 92.2749C27.3981 92.638 32.4712 92.842 37.7609 92.842C43.0507 92.842 48.1238 92.638 51.8642 92.2749C55.6046 91.9119 57.7059 91.4194 57.7059 90.906C57.7059 90.3925 55.6046 89.9001 51.8642 89.537C48.1238 89.1739 43.0507 88.97 37.7609 88.97C32.4712 88.97 27.3981 89.1739 23.6577 89.537C19.9173 89.9001 17.8159 90.3925 17.8159 90.906Z" fill="#45413C"/>
<path d="M41.8359 67.2731V62.1801H33.6869V67.2731H28.2539V60.4821C28.2547 59.762 28.5411 59.0717 29.0503 58.5625C29.5595 58.0533 30.2498 57.7669 30.9699 57.7661H44.5519C45.2721 57.7669 45.9626 58.0533 46.4719 58.5624C46.9812 59.0716 47.2678 59.7619 47.2689 60.4821V67.2731H41.8359Z" fill="#FFE500" stroke="#45413C" stroke-linecap="round" stroke-linejoin="round"/>
<path d="M16.03 65.915H59.492V90.362H16.03V65.915Z" fill="#FFE500"/>
<path d="M59.492 82.2129V86.2879C59.4928 86.8231 59.388 87.3532 59.1835 87.8479C58.9791 88.3425 58.679 88.7919 58.3005 89.1704C57.9221 89.5489 57.4727 89.8489 56.978 90.0534C56.4834 90.2578 55.9533 90.3627 55.418 90.3619H20.105C19.5697 90.3628 19.0395 90.2581 18.5447 90.0537C18.05 89.8493 17.6004 89.5492 17.2219 89.1708C16.8433 88.7923 16.5432 88.3428 16.3386 87.8481C16.1341 87.3534 16.0292 86.8232 16.03 86.2879V82.2129C16.0292 82.7482 16.1341 83.2785 16.3386 83.7733C16.5431 84.268 16.8433 84.7176 17.2218 85.0961C17.6004 85.4747 18.0499 85.7748 18.5447 85.9793C19.0394 86.1838 19.5697 86.2887 20.105 86.2879H55.418C55.9533 86.2886 56.4835 86.1836 56.9781 85.979C57.4727 85.7745 57.9222 85.4743 58.3006 85.0958C58.6791 84.7172 58.9791 84.2677 59.1835 83.773C59.388 83.2783 59.4928 82.7482 59.492 82.2129Z" fill="#EBCB00"/>
<path d="M33.687 74.064H41.836V90.362H33.687V74.064Z" stroke="#45413C" stroke-linecap="round" stroke-linejoin="round"/>
<path d="M16.03 65.915H59.492V90.362H16.03V65.915Z" stroke="#45413C" stroke-linecap="round" stroke-linejoin="round"/>
<path d="M59.492 69.99V74.064H16.03V69.99C16.0292 69.4547 16.1341 68.9244 16.3386 68.4297C16.5431 67.9349 16.8433 67.4854 17.2218 67.1068C17.6004 66.7283 18.0499 66.4281 18.5447 66.2236C19.0394 66.0191 19.5697 65.9143 20.105 65.915H55.418C55.9533 65.9144 56.4835 66.0193 56.9781 66.2239C57.4727 66.4285 57.9222 66.7286 58.3006 67.1072C58.6791 67.4857 58.9791 67.9352 59.1835 68.4299C59.388 68.9246 59.4928 69.4548 59.492 69.99Z" fill="#45413C"/>
<path d="M59.492 69.99V74.064C59.4928 73.5288 59.388 72.9987 59.1835 72.5041C58.9791 72.0094 58.679 71.56 58.3005 71.1815C57.9221 70.8031 57.4727 70.503 56.978 70.2986C56.4834 70.0941 55.9533 69.9893 55.418 69.99H20.105C19.5697 69.9891 19.0395 70.0939 18.5447 70.2983C18.05 70.5027 17.6004 70.8027 17.2219 71.1812C16.8433 71.5596 16.5432 72.0091 16.3386 72.5038C16.1341 72.9985 16.0292 73.5287 16.03 74.064V69.99C16.0292 69.4547 16.1341 68.9244 16.3386 68.4297C16.5431 67.9349 16.8433 67.4854 17.2218 67.1068C17.6004 66.7283 18.0499 66.4281 18.5447 66.2236C19.0394 66.0191 19.5697 65.9143 20.105 65.915H55.418C55.9533 65.9144 56.4835 66.0193 56.9781 66.2239C57.4727 66.4285 57.9222 66.7286 58.3006 67.1072C58.6791 67.4857 58.9791 67.9352 59.1835 68.4299C59.388 68.9246 59.4928 69.4548 59.492 69.99Z" fill="#87898C"/>
<path d="M59.492 69.99V74.064H16.03V69.99C16.0292 69.4547 16.1341 68.9244 16.3386 68.4297C16.5431 67.9349 16.8433 67.4854 17.2218 67.1068C17.6004 66.7283 18.0499 66.4281 18.5447 66.2236C19.0394 66.0191 19.5697 65.9143 20.105 65.915H55.418C55.9533 65.9144 56.4835 66.0193 56.9781 66.2239C57.4727 66.4285 57.9222 66.7286 58.3006 67.1072C58.6791 67.4857 58.9791 67.9352 59.1835 68.4299C59.388 68.9246 59.4928 69.4548 59.492 69.99Z" stroke="#45413C" stroke-linecap="round" stroke-linejoin="round"/>
<path d="M22.821 71.3479H30.97V76.7809H22.821V71.3479Z" fill="#87898C" stroke="#45413C" stroke-linecap="round" stroke-linejoin="round"/>
<path d="M44.552 71.3479H52.701V76.7809H44.552V71.3479Z" fill="#87898C" stroke="#45413C" stroke-linecap="round" stroke-linejoin="round"/>
<path d="M66.786 60.8511C66.4778 60.8512 66.1726 60.7907 65.8879 60.6728C65.6031 60.555 65.3444 60.3822 65.1264 60.1643C64.9085 59.9465 64.7356 59.6878 64.6176 59.4031C64.4997 59.1184 64.439 58.8133 64.439 58.5051V54.9851H69.132V58.5051C69.132 59.1273 68.8848 59.724 68.4448 60.164C68.0049 60.6039 67.4082 60.8511 66.786 60.8511Z" fill="#87898C" stroke="#45413C" stroke-linecap="round" stroke-linejoin="round"/>
<path d="M55.053 60.8511C54.4308 60.8511 53.8341 60.6039 53.3942 60.164C52.9542 59.724 52.707 59.1273 52.707 58.5051V54.9851H57.4V58.5051C57.4 58.8133 57.3393 59.1184 57.2214 59.4031C57.1034 59.6878 56.9305 59.9465 56.7126 60.1643C56.4946 60.3822 56.2359 60.555 55.9511 60.6728C55.6664 60.7907 55.3612 60.8512 55.053 60.8511Z" fill="#87898C" stroke="#45413C" stroke-linecap="round" stroke-linejoin="round"/>
</svg>
