<svg width="100" height="100" viewBox="0 0 100 100" fill="none" xmlns="http://www.w3.org/2000/svg">
<path d="M10 50C10 60.6087 14.2143 70.7828 21.7157 78.2843C29.2172 85.7857 39.3913 90 50 90C60.6087 90 70.7828 85.7857 78.2843 78.2843C85.7857 70.7828 90 60.6087 90 50C90 39.3913 85.7857 29.2172 78.2843 21.7157C70.7828 14.2143 60.6087 10 50 10C39.3913 10 29.2172 14.2143 21.7157 21.7157C14.2143 29.2172 10 39.3913 10 50Z" fill="#DAEDF7" stroke="#DAEDF7"/>
<path d="M11.917 21.635H89.917V70.635H11.917V21.635Z" fill="#ADC4D9"/>
<path d="M15.917 25.635H85.917V65.635H15.917V25.635Z" fill="#00DBA8"/>
<path d="M79.477 25.635L30.487 65.635H15.917V25.635H79.477Z" fill="#00DBA8"/>
<path d="M15.917 25.635H85.917V65.635H15.917V25.635Z" stroke="#45413C" stroke-linecap="round" stroke-linejoin="round"/>
<path d="M40.5759 41.9731C40.5759 43.8901 41.3374 45.7286 42.693 47.0841C44.0485 48.4396 45.8869 49.2011 47.8039 49.2011C49.7209 49.2011 51.5594 48.4396 52.9149 47.0841C54.2704 45.7286 55.0319 43.8901 55.0319 41.9731C55.0319 41.0239 54.845 40.084 54.4817 39.2071C54.1185 38.3301 53.5861 37.5333 52.9149 36.8622C52.2437 36.191 51.4469 35.6586 50.57 35.2953C49.693 34.9321 48.7531 34.7451 47.8039 34.7451C46.8547 34.7451 45.9148 34.9321 45.0379 35.2953C44.1609 35.6586 43.3641 36.191 42.693 36.8622C42.0218 37.5333 41.4894 38.3301 41.1261 39.2071C40.7629 40.084 40.5759 41.0239 40.5759 41.9731Z" fill="#00DBA8" stroke="white" stroke-linecap="round" stroke-linejoin="round"/>
<path d="M43.6741 41.973C43.6741 43.0684 44.1092 44.1188 44.8837 44.8934C45.6582 45.6679 46.7087 46.103 47.8041 46.103C48.8994 46.103 49.9499 45.6679 50.7244 44.8934C51.4989 44.1188 51.9341 43.0684 51.9341 41.973C51.9341 40.8777 51.4989 39.8272 50.7244 39.0527C49.9499 38.2781 48.8994 37.843 47.8041 37.843C46.7087 37.843 45.6582 38.2781 44.8837 39.0527C44.1092 39.8272 43.6741 40.8777 43.6741 41.973Z" fill="#8CFFE4"/>
<path d="M27.394 31.7261H23.534L21.604 35.0691L23.534 38.4121H27.394L29.324 35.0691L27.394 31.7261Z" stroke="#00C798" stroke-linecap="round" stroke-linejoin="round"/>
<path d="M33.184 35.0691H29.324L27.394 38.4121L29.324 41.7551H33.184L35.114 38.4121L33.184 35.0691Z" stroke="#00C798" stroke-linecap="round" stroke-linejoin="round"/>
<path d="M27.394 38.4121H23.534L21.604 41.7551L23.534 45.0981H27.394L29.324 41.7551L27.394 38.4121Z" stroke="#00C798" stroke-linecap="round" stroke-linejoin="round"/>
<path d="M27.394 31.7261L30.427 28.6931" stroke="#00C798" stroke-linecap="round" stroke-linejoin="round"/>
<path d="M23.5 49.5H33.5" stroke="#00C798" stroke-linecap="round" stroke-linejoin="round"/>
<path d="M23.5 53.5H33.5" stroke="#00C798" stroke-linecap="round" stroke-linejoin="round"/>
<path d="M23.5 57.5H27.5" stroke="#00C798" stroke-linecap="round" stroke-linejoin="round"/>
<path d="M54.065 70.1709C51.7474 70.168 49.5257 69.246 47.887 67.6071C46.2484 65.9683 45.3266 63.7464 45.324 61.4289V53.4449C45.324 52.7011 45.6194 51.9877 46.1454 51.4618C46.6713 50.9359 47.3847 50.6404 48.1285 50.6404C48.8723 50.6404 49.5856 50.9359 50.1116 51.4618C50.6375 51.9877 50.933 52.7011 50.933 53.4449V61.4289C50.9338 62.2594 51.264 63.0557 51.8511 63.643C52.4383 64.2304 53.2345 64.5608 54.065 64.5619H60.557V70.1709H54.065Z" fill="#BF8256" stroke="#45413C" stroke-linecap="round" stroke-linejoin="round"/>
<path d="M48.7241 43.1331H51.7241V51.6331H48.7241V43.1331Z" fill="#BF8256" stroke="#45413C" stroke-linecap="round" stroke-linejoin="round"/>
<path d="M48.9333 51.3664L52.4902 48.6099L54.3279 50.9811L50.771 53.7377L48.9333 51.3664Z" fill="#BF8256" stroke="#45413C" stroke-linecap="round" stroke-linejoin="round"/>
<path d="M46.549 54.1201C46.0395 54.1738 45.5279 54.0413 45.1085 53.7473C44.689 53.4532 44.3902 53.0173 44.267 52.5201L43.6 49.9831C43.5463 49.7782 43.5335 49.5647 43.5624 49.3548C43.5913 49.145 43.6612 48.9428 43.7681 48.76C43.8751 48.5772 44.0171 48.4172 44.1859 48.2892C44.3547 48.1612 44.547 48.0677 44.752 48.0141L47.873 47.1981C48.0779 47.1445 48.2914 47.1317 48.5012 47.1605C48.7111 47.1894 48.9132 47.2593 49.0961 47.3663C49.2789 47.4733 49.4389 47.6152 49.5669 47.784C49.6949 47.9528 49.7883 48.1452 49.842 48.3501L50.506 50.8881C50.6417 51.3819 50.5944 51.908 50.3728 52.3697C50.1511 52.8313 49.7701 53.1972 49.3 53.4001C48.4176 53.7568 47.493 53.9988 46.549 54.1201Z" fill="#BF8256" stroke="#45413C" stroke-linecap="round" stroke-linejoin="round"/>
<path d="M50.0321 49.1561C50.1675 49.6498 50.1199 50.1758 49.8981 50.6372C49.6763 51.0987 49.2952 51.4644 48.8251 51.6671C47.9421 52.0241 47.0168 52.2661 46.0721 52.3871C45.6061 52.4383 45.1363 52.3322 44.7376 52.0855C44.3389 51.8389 44.0342 51.4659 43.8721 51.0261L44.2631 52.5211C44.3863 53.0183 44.6852 53.4541 45.1046 53.7482C45.524 54.0423 46.0356 54.1747 46.5451 54.1211C47.4905 53.9998 48.4164 53.7575 49.3001 53.4001C49.77 53.1972 50.1509 52.8314 50.3725 52.37C50.5941 51.9086 50.6415 51.3827 50.5061 50.8891L49.8421 48.3511C49.8212 48.28 49.7955 48.2106 49.7651 48.1431L50.0321 49.1561Z" fill="#E09F7E"/>
<path d="M46.549 54.1201C46.0395 54.1738 45.5279 54.0413 45.1085 53.7473C44.689 53.4532 44.3902 53.0173 44.267 52.5201L43.6 49.9831C43.5463 49.7782 43.5335 49.5647 43.5624 49.3548C43.5913 49.145 43.6612 48.9428 43.7681 48.76C43.8751 48.5772 44.0171 48.4172 44.1859 48.2892C44.3547 48.1612 44.547 48.0677 44.752 48.0141L47.873 47.1981C48.0779 47.1445 48.2914 47.1317 48.5012 47.1605C48.7111 47.1894 48.9132 47.2593 49.0961 47.3663C49.2789 47.4733 49.4389 47.6152 49.5669 47.784C49.6949 47.9528 49.7883 48.1452 49.842 48.3501L50.506 50.8881C50.6417 51.3819 50.5944 51.908 50.3728 52.3697C50.1511 52.8313 49.7701 53.1972 49.3 53.4001C48.4176 53.7568 47.493 53.9988 46.549 54.1201Z" stroke="#45413C" stroke-linecap="round" stroke-linejoin="round"/>
<path d="M60.2 88.13V73.883C60.2 73.3526 59.9893 72.8439 59.6142 72.4688C59.2391 72.0937 58.7304 71.883 58.2 71.883H54.72C54.4548 71.883 54.2004 71.7776 54.0129 71.5901C53.8253 71.4026 53.72 71.1482 53.72 70.883V64.563C53.72 64.2978 53.8253 64.0434 54.0129 63.8559C54.2004 63.6683 54.4548 63.563 54.72 63.563H69.8C71.849 63.5614 73.8783 63.9638 75.7717 64.7473C77.6651 65.5307 79.3855 66.6797 80.8344 68.1286C82.2833 69.5775 83.4323 71.2979 84.2157 73.1913C84.9991 75.0847 85.4015 77.1139 85.4 79.163V80.363C85.4013 80.4947 85.3764 80.6253 85.3266 80.7473C85.2768 80.8692 85.2032 80.98 85.1101 81.0731C85.0169 81.1662 84.9062 81.2398 84.7842 81.2896C84.6623 81.3394 84.5317 81.3643 84.4 81.363H79.4V88.13" fill="#FFE500"/>
<path d="M60.2 88.13V73.883C60.2 73.3526 59.9893 72.8439 59.6142 72.4688C59.2391 72.0937 58.7304 71.883 58.2 71.883H54.72C54.4548 71.883 54.2004 71.7776 54.0129 71.5901C53.8253 71.4026 53.72 71.1482 53.72 70.883V64.563C53.72 64.2978 53.8253 64.0434 54.0129 63.8559C54.2004 63.6683 54.4548 63.563 54.72 63.563H69.8C71.849 63.5614 73.8783 63.9638 75.7717 64.7473C77.6651 65.5307 79.3855 66.6797 80.8344 68.1286C82.2833 69.5775 83.4323 71.2979 84.2157 73.1913C84.9991 75.0847 85.4015 77.1139 85.4 79.163V80.363C85.4013 80.4947 85.3764 80.6253 85.3266 80.7473C85.2768 80.8692 85.2032 80.98 85.1101 81.0731C85.0169 81.1662 84.9062 81.2398 84.7842 81.2896C84.6623 81.3394 84.5317 81.3643 84.4 81.363H79.4V88.13" stroke="#45413C" stroke-linecap="round" stroke-linejoin="round"/>
<path d="M79.407 81.367V77.572" stroke="#45413C" stroke-linecap="round" stroke-linejoin="round"/>
<path d="M79.4 88.13V77.572C79.4593 74.361 79.9178 71.1698 80.765 68.072C79.2808 66.6059 77.5173 65.4528 75.579 64.681C74.912 69.962 69.848 75.175 69.848 75.175C69.848 75.175 64.049 69.2 64.049 63.563H60.207V88.13" fill="#009FD9"/>
<path d="M79.4 88.13V77.572C79.4593 74.361 79.9178 71.1698 80.765 68.072C79.2808 66.6059 77.5173 65.4528 75.579 64.681C74.912 69.962 69.848 75.175 69.848 75.175C69.848 75.175 64.049 69.2 64.049 63.563H60.207V88.13" stroke="#45413C" stroke-linecap="round" stroke-linejoin="round"/>
<path d="M66.207 63.8399C66.207 64.7947 66.5863 65.7103 67.2614 66.3855C67.9366 67.0606 68.8523 67.4399 69.807 67.4399C70.7618 67.4399 71.6775 67.0606 72.3526 66.3855C73.0277 65.7103 73.407 64.7947 73.407 63.8399V58.5669H66.207V63.8399Z" fill="#BF8256" stroke="#45413C" stroke-linecap="round" stroke-linejoin="round"/>
<path d="M73.407 63.8379C73.316 63.8789 73.23 63.9239 73.135 63.9619C70.9892 64.7679 68.6238 64.7679 66.478 63.9619C66.383 63.9239 66.298 63.8789 66.207 63.8379V58.5669H73.407V63.8379Z" fill="#BF8256"/>
<path d="M66.207 63.8399C66.207 64.7947 66.5863 65.7103 67.2614 66.3855C67.9366 67.0606 68.8523 67.4399 69.807 67.4399C70.7618 67.4399 71.6775 67.0606 72.3526 66.3855C73.0277 65.7103 73.407 64.7947 73.407 63.8399V58.5669H66.207V63.8399Z" stroke="#45413C" stroke-linecap="round" stroke-linejoin="round"/>
<path d="M64.9349 72.129L65.3579 75.519L69.8579 77.572L74.1579 75.556L75.0299 72.503L77.4139 71.551L77.7699 65.773C77.0727 65.3522 76.3438 64.9861 75.5899 64.678C74.9229 69.959 69.8589 75.172 69.8589 75.172C69.8589 75.172 64.0489 69.2 64.0489 63.563H62.1799V70.045L64.9349 72.129Z" fill="#4ACFFF" stroke="#45413C" stroke-linecap="round" stroke-linejoin="round"/>
<path d="M69.855 75.1719V88.1299" stroke="#45413C" stroke-linecap="round" stroke-linejoin="round"/>
<path d="M84.207 88.1329V81.3669H79.407V88.1329" fill="#BF8256"/>
<path d="M84.207 88.1329V81.3669H79.407V88.1329" stroke="#45413C" stroke-linecap="round" stroke-linejoin="round"/>
<path d="M74.4729 36.2329C74.4729 38.7189 72.4589 57.7329 69.9729 57.7329C67.4869 57.7329 65.4729 38.7189 65.4729 36.2329C65.4729 33.7469 67.4879 31.2329 69.9729 31.2329C72.4579 31.2329 74.4729 33.7479 74.4729 36.2329Z" fill="#614B44"/>
<path d="M69.9729 34.7329C71.0159 34.8125 72.0047 35.2295 72.7896 35.9208C73.5746 36.6122 74.1132 37.5403 74.3239 38.5649C74.4239 37.4649 74.4729 36.6319 74.4729 36.2329C74.4729 33.7479 72.4589 31.2329 69.9729 31.2329C67.4869 31.2329 65.4729 33.7479 65.4729 36.2329C65.4729 36.6329 65.5259 37.4609 65.6229 38.5649C65.8335 37.5405 66.372 36.6124 67.1568 35.9211C67.9415 35.2298 68.9301 34.8127 69.9729 34.7329Z" fill="#A86C4D"/>
<path d="M74.4729 36.2329C74.4729 38.7189 72.4589 57.7329 69.9729 57.7329C67.4869 57.7329 65.4729 38.7189 65.4729 36.2329C65.4729 33.7469 67.4879 31.2329 69.9729 31.2329C72.4579 31.2329 74.4729 33.7479 74.4729 36.2329Z" stroke="#45413C"/>
<path d="M79.9729 50.2129V47.7129C79.9729 45.0607 78.9193 42.5172 77.044 40.6418C75.1686 38.7665 72.6251 37.7129 69.9729 37.7129C67.3207 37.7129 64.7772 38.7665 62.9018 40.6418C61.0265 42.5172 59.9729 45.0607 59.9729 47.7129V50.2129C59.4425 50.2129 58.9338 50.4236 58.5587 50.7987C58.1836 51.1737 57.9729 51.6825 57.9729 52.2129C57.9729 52.7433 58.1836 53.252 58.5587 53.6271C58.9338 54.0022 59.4425 54.2129 59.9729 54.2129C60.0149 54.2129 60.0549 54.2029 60.0959 54.2009C60.4493 56.5678 61.6409 58.7291 63.4538 60.2914C65.2666 61.8537 67.5802 62.713 69.9734 62.713C72.3666 62.713 74.6802 61.8537 76.493 60.2914C78.3059 58.7291 79.4975 56.5678 79.8509 54.2009C79.8919 54.2009 79.9309 54.2129 79.9729 54.2129C80.5033 54.2129 81.012 54.0022 81.3871 53.6271C81.7622 53.252 81.9729 52.7433 81.9729 52.2129C81.9729 51.6825 81.7622 51.1737 81.3871 50.7987C81.012 50.4236 80.5033 50.2129 79.9729 50.2129Z" fill="#BF8256" stroke="#45413C" stroke-linecap="round" stroke-linejoin="round"/>
<path d="M62.9729 54.4629C62.9729 54.7944 63.1046 55.1124 63.339 55.3468C63.5734 55.5812 63.8914 55.7129 64.2229 55.7129C64.5544 55.7129 64.8724 55.5812 65.1068 55.3468C65.3412 55.1124 65.4729 54.7944 65.4729 54.4629C65.4729 54.1314 65.3412 53.8134 65.1068 53.579C64.8724 53.3446 64.5544 53.2129 64.2229 53.2129C63.8914 53.2129 63.5734 53.3446 63.339 53.579C63.1046 53.8134 62.9729 54.1314 62.9729 54.4629Z" fill="#BF8256"/>
<path d="M74.4729 54.4629C74.4729 54.7944 74.6046 55.1124 74.839 55.3468C75.0734 55.5812 75.3914 55.7129 75.7229 55.7129C76.0544 55.7129 76.3724 55.5812 76.6068 55.3468C76.8412 55.1124 76.9729 54.7944 76.9729 54.4629C76.9729 54.1314 76.8412 53.8134 76.6068 53.579C76.3724 53.3446 76.0544 53.2129 75.7229 53.2129C75.3914 53.2129 75.0734 53.3446 74.839 53.579C74.6046 53.8134 74.4729 54.1314 74.4729 54.4629Z" fill="#BF8256"/>
<path d="M72.9729 57C72.1675 57.777 71.092 58.2112 69.9729 58.2112C68.8538 58.2112 67.7783 57.777 66.9729 57" stroke="#45413C" stroke-linecap="round" stroke-linejoin="round"/>
<path d="M67.4729 51.2129C67.3495 50.9168 67.1412 50.6638 66.8743 50.4858C66.6074 50.3079 66.2937 50.2129 65.9729 50.2129C65.6521 50.2129 65.3384 50.3079 65.0715 50.4858C64.8046 50.6638 64.5963 50.9168 64.4729 51.2129" stroke="#45413C" stroke-linecap="round" stroke-linejoin="round"/>
<path d="M75.4729 51.2129C75.3495 50.9168 75.1412 50.6638 74.8743 50.4858C74.6074 50.3079 74.2937 50.2129 73.9729 50.2129C73.6521 50.2129 73.3384 50.3079 73.0715 50.4858C72.8046 50.6638 72.5963 50.9168 72.4729 51.2129" stroke="#45413C" stroke-linecap="round" stroke-linejoin="round"/>
<path d="M59.9729 50.2129V49.7129C59.9729 49.7129 59.9729 48.7129 61.4729 48.7129H68.4729C68.7371 48.7185 68.9996 48.6706 69.2448 48.5721C69.49 48.4735 69.7127 48.3264 69.8995 48.1396C70.0864 47.9527 70.2335 47.73 70.332 47.4849C70.4306 47.2397 70.4785 46.9771 70.4729 46.7129C70.4729 44.8979 70.4729 41.4339 74.5879 40.8129C74.7559 40.7884 74.9273 40.7998 75.0906 40.8464C75.2539 40.8931 75.4055 40.9738 75.5353 41.0834C75.6651 41.1929 75.7701 41.3288 75.8435 41.4819C75.9168 41.6351 75.9569 41.8021 75.9609 41.9719C76.0049 44.5539 76.4989 50.2159 79.9729 50.2159C80.3834 50.2157 80.7838 50.3429 81.1189 50.5799C81.5504 48.8824 81.5885 47.1088 81.2303 45.3944C80.872 43.6799 80.1269 42.07 79.0518 40.6873C77.9766 39.3047 76.5999 38.1859 75.0265 37.4162C73.4532 36.6466 71.7249 36.2466 69.9734 36.2466C68.2219 36.2466 66.4936 36.6466 64.9203 37.4162C63.3469 38.1859 61.9702 39.3047 60.895 40.6873C59.8199 42.07 59.0748 43.6799 58.7165 45.3944C58.3583 47.1088 58.3964 48.8824 58.8279 50.5799C59.1623 50.342 59.5624 50.2137 59.9729 50.2129Z" fill="#614B44"/>
<path d="M69.9729 40.2329C71.3282 40.2316 72.673 40.4707 73.9449 40.9389C74.1449 40.8876 74.3592 40.8446 74.5879 40.8099C74.7515 40.7861 74.9182 40.7964 75.0777 40.84C75.2371 40.8837 75.3858 40.9599 75.5144 41.0637C75.6431 41.1676 75.7489 41.2969 75.8252 41.4435C75.9015 41.5901 75.9467 41.751 75.9579 41.9159C77.3493 42.767 78.544 43.904 79.4629 45.2517C80.3818 46.5993 81.0038 48.1268 81.2879 49.7329C81.5888 48.0758 81.522 46.3728 81.0923 44.7444C80.6626 43.1159 79.8805 41.6017 78.8012 40.3088C77.7219 39.0159 76.3717 37.9758 74.8462 37.2621C73.3207 36.5484 71.6571 36.1785 69.9729 36.1785C68.2887 36.1785 66.6251 36.5484 65.0996 37.2621C63.5741 37.9758 62.2239 39.0159 61.1446 40.3088C60.0653 41.6017 59.2832 43.1159 58.8535 44.7444C58.4238 46.3728 58.357 48.0758 58.6579 49.7329C59.1277 47.0726 60.5191 44.6626 62.588 42.9255C64.657 41.1885 67.2714 40.2352 69.9729 40.2329Z" fill="#A86C4D"/>
<path d="M59.9729 50.2129V49.7129C59.9729 49.7129 59.9729 48.7129 61.4729 48.7129H68.4729C68.7371 48.7185 68.9996 48.6706 69.2448 48.5721C69.49 48.4735 69.7127 48.3264 69.8995 48.1396C70.0864 47.9527 70.2335 47.73 70.332 47.4849C70.4306 47.2397 70.4785 46.9771 70.4729 46.7129C70.4729 44.8979 70.4729 41.4339 74.5879 40.8129C74.7559 40.7884 74.9273 40.7998 75.0906 40.8464C75.2539 40.8931 75.4055 40.9738 75.5353 41.0834C75.6651 41.1929 75.7701 41.3288 75.8435 41.4819C75.9168 41.6351 75.9569 41.8021 75.9609 41.9719C76.0049 44.5539 76.4989 50.2159 79.9729 50.2159C80.3834 50.2157 80.7838 50.3429 81.1189 50.5799C81.5504 48.8824 81.5885 47.1088 81.2303 45.3944C80.872 43.6799 80.1269 42.07 79.0518 40.6873C77.9766 39.3047 76.5999 38.1859 75.0265 37.4162C73.4532 36.6466 71.7249 36.2466 69.9734 36.2466C68.2219 36.2466 66.4936 36.6466 64.9203 37.4162C63.3469 38.1859 61.9702 39.3047 60.895 40.6873C59.8199 42.07 59.0748 43.6799 58.7165 45.3944C58.3583 47.1088 58.3964 48.8824 58.8279 50.5799C59.1623 50.342 59.5624 50.2137 59.9729 50.2129Z" stroke="#45413C" stroke-linecap="round" stroke-linejoin="round"/>
<path d="M60.9719 57.0539C61.0049 59.2219 60.4339 60.7329 59.7229 60.7329C59.0329 60.7329 58.4729 59.0549 58.4729 56.9829C58.4729 54.9109 59.0329 53.2329 59.7229 53.2329" stroke="#45413C" stroke-linecap="round" stroke-linejoin="round"/>
<path d="M78.975 57.0539C78.942 59.2219 79.513 60.7329 80.223 60.7329C80.914 60.7329 81.473 59.0549 81.473 56.9829C81.473 54.9109 80.914 53.2329 80.223 53.2329" stroke="#45413C" stroke-linecap="round" stroke-linejoin="round"/>
</svg>
