<svg width="100" height="100" viewBox="0 0 100 100" fill="none" xmlns="http://www.w3.org/2000/svg">
<path d="M6.03003 50C6.03003 60.6087 10.2443 70.7828 17.7458 78.2843C25.2472 85.7857 35.4214 90 46.03 90C56.6387 90 66.8128 85.7857 74.3143 78.2843C81.8158 70.7828 86.03 60.6087 86.03 50C86.03 39.3913 81.8158 29.2172 74.3143 21.7157C66.8128 14.2143 56.6387 10 46.03 10C35.4214 10 25.2472 14.2143 17.7458 21.7157C10.2443 29.2172 6.03003 39.3913 6.03003 50Z" fill="#DAEDF7" stroke="#DAEDF7"/>
<path d="M65.9599 72.1889H13.1649C12.6637 72.1889 12.1829 71.99 11.8282 71.6359C11.4734 71.2817 11.2737 70.8012 11.2729 70.2999V38.2419H67.8519V70.2999C67.8512 70.8012 67.6515 71.2817 67.2967 71.6359C66.942 71.99 66.4612 72.1889 65.9599 72.1889Z" fill="#00B8F0"/>
<path d="M11.2729 38.2419V70.0999C11.2729 70.6532 11.4927 71.1838 11.8839 71.575C12.2751 71.9662 12.8057 72.1859 13.3589 72.1859H16.936L50.8829 38.2419H11.2729Z" fill="#4ACFFF"/>
<path d="M65.9599 72.1889H13.1649C12.6637 72.1889 12.1829 71.99 11.8282 71.6359C11.4734 71.2817 11.2737 70.8012 11.2729 70.2999V38.2419H67.8519V70.2999C67.8512 70.8012 67.6515 71.2817 67.2967 71.6359C66.942 71.99 66.4612 72.1889 65.9599 72.1889Z" stroke="#45413C" stroke-linecap="round" stroke-linejoin="round"/>
<path d="M67.8519 38.2419H11.2729V32.3419C11.2729 31.7879 11.493 31.2565 11.8848 30.8648C12.2766 30.473 12.8079 30.2529 13.3619 30.2529H65.762C66.316 30.2529 66.8473 30.473 67.2391 30.8648C67.6309 31.2565 67.8509 31.7879 67.8509 32.3419L67.8519 38.2419Z" fill="#DAEDF7"/>
<path d="M65.5489 30.2539H13.5759C13.2738 30.2539 12.9748 30.3134 12.6957 30.429C12.4167 30.5446 12.1631 30.714 11.9495 30.9276C11.736 31.1411 11.5665 31.3947 11.451 31.6737C11.3354 31.9528 11.2759 32.2519 11.2759 32.5539V35.7019C11.2759 35.0919 11.5182 34.5069 11.9495 34.0756C12.3809 33.6442 12.9659 33.4019 13.5759 33.4019H65.5489C66.1589 33.4019 66.7439 33.6442 67.1752 34.0756C67.6066 34.5069 67.8489 35.0919 67.8489 35.7019V32.5569C67.8493 32.2546 67.7901 31.9552 67.6747 31.6758C67.5592 31.3964 67.3899 31.1425 67.1763 30.9286C66.9627 30.7147 66.709 30.545 66.4297 30.4293C66.1505 30.3135 65.8512 30.2539 65.5489 30.2539Z" fill="white"/>
<path d="M67.8519 38.2419H11.2729V32.3419C11.2729 31.7879 11.493 31.2565 11.8848 30.8648C12.2766 30.473 12.8079 30.2529 13.3619 30.2529H65.762C66.316 30.2529 66.8473 30.473 67.2391 30.8648C67.6309 31.2565 67.8509 31.7879 67.8509 32.3419L67.8519 38.2419Z" stroke="#45413C" stroke-linecap="round" stroke-linejoin="round"/>
<path d="M13.936 34.248C13.936 34.4228 13.9705 34.5959 14.0374 34.7573C14.1042 34.9188 14.2023 35.0656 14.3259 35.1892C14.4495 35.3127 14.5962 35.4108 14.7577 35.4777C14.9192 35.5446 15.0922 35.579 15.267 35.579C15.4418 35.579 15.6149 35.5446 15.7764 35.4777C15.9379 35.4108 16.0846 35.3127 16.2082 35.1892C16.3318 35.0656 16.4298 34.9188 16.4967 34.7573C16.5636 34.5959 16.598 34.4228 16.598 34.248C16.598 34.0732 16.5636 33.9001 16.4967 33.7386C16.4298 33.5772 16.3318 33.4304 16.2082 33.3068C16.0846 33.1832 15.9379 33.0852 15.7764 33.0183C15.6149 32.9514 15.4418 32.917 15.267 32.917C15.0922 32.917 14.9192 32.9514 14.7577 33.0183C14.5962 33.0852 14.4495 33.1832 14.3259 33.3068C14.2023 33.4304 14.1042 33.5772 14.0374 33.7386C13.9705 33.9001 13.936 34.0732 13.936 34.248Z" fill="#FF6242" stroke="#45413C" stroke-linecap="round" stroke-linejoin="round"/>
<path d="M19.261 34.248C19.261 34.4228 19.2954 34.5959 19.3623 34.7573C19.4292 34.9188 19.5272 35.0656 19.6508 35.1892C19.7744 35.3127 19.9212 35.4108 20.0826 35.4777C20.2441 35.5446 20.4172 35.579 20.592 35.579C20.7668 35.579 20.9399 35.5446 21.1013 35.4777C21.2628 35.4108 21.4096 35.3127 21.5331 35.1892C21.6567 35.0656 21.7548 34.9188 21.8217 34.7573C21.8886 34.5959 21.923 34.4228 21.923 34.248C21.923 34.0732 21.8886 33.9001 21.8217 33.7386C21.7548 33.5772 21.6567 33.4304 21.5331 33.3068C21.4096 33.1832 21.2628 33.0852 21.1013 33.0183C20.9399 32.9514 20.7668 32.917 20.592 32.917C20.4172 32.917 20.2441 32.9514 20.0826 33.0183C19.9212 33.0852 19.7744 33.1832 19.6508 33.3068C19.5272 33.4304 19.4292 33.5772 19.3623 33.7386C19.2954 33.9001 19.261 34.0732 19.261 34.248Z" fill="#FFE500" stroke="#45413C" stroke-linecap="round" stroke-linejoin="round"/>
<path d="M24.5859 34.248C24.5859 34.601 24.7262 34.9395 24.9758 35.1892C25.2254 35.4388 25.5639 35.579 25.9169 35.579C26.2699 35.579 26.6085 35.4388 26.8581 35.1892C27.1077 34.9395 27.2479 34.601 27.2479 34.248C27.2479 33.895 27.1077 33.5564 26.8581 33.3068C26.6085 33.0572 26.2699 32.917 25.9169 32.917C25.5639 32.917 25.2254 33.0572 24.9758 33.3068C24.7262 33.5564 24.5859 33.895 24.5859 34.248Z" fill="#6DD627" stroke="#45413C" stroke-linecap="round" stroke-linejoin="round"/>
<path d="M16.5979 44.2319H37.2329V48.2259H16.5979V44.2319Z" fill="white" stroke="#45413C" stroke-linecap="round" stroke-linejoin="round"/>
<path d="M16.5979 51.554H37.2329V55.548H16.5979V51.554Z" fill="white" stroke="#45413C" stroke-linecap="round" stroke-linejoin="round"/>
<path d="M16.5979 60.208H63.1919V68.196H16.5979V60.208Z" fill="white" stroke="#45413C" stroke-linecap="round" stroke-linejoin="round"/>
<path opacity="0.15" d="M67.8519 32.4589C67.8526 32.1696 67.7962 31.883 67.6859 31.6155C67.5756 31.348 67.4137 31.1049 67.2093 30.9C67.005 30.6952 66.7622 30.5327 66.495 30.4218C66.2277 30.311 65.9412 30.2539 65.6519 30.2539H31.4999C30.6235 34.9074 31.0637 39.7131 32.771 44.1299C34.4782 48.5467 37.3847 52.3992 41.1631 55.2534C44.9414 58.1077 49.4417 59.8504 54.1569 60.2853C58.8722 60.7202 63.6152 59.8299 67.8519 57.7149V32.4589Z" fill="#45413C"/>
<path d="M68.3745 49.6251L72.2785 45.7212L79.1112 52.5541L75.2072 56.458L68.3745 49.6251Z" fill="#F8F8F8" stroke="#45413C" stroke-linecap="round" stroke-linejoin="round"/>
<path d="M39.6782 46.8303C41.2338 49.0605 43.2135 50.9624 45.5041 52.4276C47.7948 53.8927 50.3516 54.8923 53.0286 55.3693C55.7056 55.8463 58.4503 55.7913 61.1061 55.2075C63.7618 54.6238 66.2766 53.5227 68.5068 51.967C70.737 50.4114 72.639 48.4317 74.1041 46.141C75.5692 43.8504 76.5688 41.2935 77.0458 38.6165C77.5228 35.9396 77.4678 33.1948 76.8841 30.5391C76.3003 27.8833 75.1992 25.3686 73.6435 23.1384C72.0879 20.9082 70.1082 19.0062 67.8175 17.5411C65.5269 16.076 62.97 15.0764 60.293 14.5994C57.6161 14.1224 54.8713 14.1774 52.2156 14.7611C49.5598 15.3449 47.0451 16.446 44.8149 18.0016C42.5847 19.5573 40.6827 21.5369 39.2176 23.8276C37.7525 26.1183 36.7529 28.6751 36.2759 31.3521C35.7989 34.0291 35.8539 36.7738 36.4376 39.4296C37.0214 42.0853 38.1225 44.6001 39.6782 46.8303Z" fill="#F8F8F8" stroke="#45413C" stroke-linecap="round" stroke-linejoin="round"/>
<path d="M41.3575 41.3225C42.19 43.3321 43.4101 45.1581 44.9482 46.6962C46.4863 48.2343 48.3123 49.4544 50.3219 50.2869C52.3316 51.1193 54.4855 51.5477 56.6607 51.5477C58.8359 51.5477 60.9898 51.1193 62.9995 50.2869C65.0091 49.4544 66.8351 48.2343 68.3732 46.6962C69.9113 45.1581 71.1314 43.3321 71.9638 41.3225C72.7963 39.3128 73.2247 37.1589 73.2247 34.9837C73.2247 32.8085 72.7962 30.6546 71.9638 28.6449C71.1314 26.6353 69.9113 24.8093 68.3732 23.2712C66.8351 21.7331 65.0091 20.513 62.9995 19.6805C60.9898 18.8481 58.8359 18.4197 56.6607 18.4197C54.4855 18.4197 52.3316 18.8481 50.3219 19.6805C48.3123 20.513 46.4863 21.7331 44.9482 23.2712C43.4101 24.8093 42.19 26.6353 41.3575 28.6449C40.5251 30.6546 40.0967 32.8085 40.0967 34.9837C40.0967 37.1589 40.5251 39.3128 41.3575 41.3225Z" fill="#00B8F0"/>
<path d="M68.387 23.286C66.8527 21.7309 65.0259 20.4947 63.0118 19.6485C60.9977 18.8023 58.8361 18.3629 56.6515 18.3556C54.4669 18.3482 52.3024 18.7731 50.2827 19.6058C48.263 20.4384 46.4279 21.6624 44.8832 23.2072C43.3385 24.752 42.1146 26.5871 41.282 28.6069C40.4495 30.6266 40.0247 32.7911 40.0321 34.9757C40.0395 37.1603 40.479 39.3219 41.3253 41.3359C42.1715 43.35 43.4078 45.1767 44.963 46.711L68.387 23.286Z" fill="#4ACFFF"/>
<path d="M68.374 23.271C70.6907 25.5876 72.2684 28.5392 72.9076 31.7525C73.5468 34.9658 73.2188 38.2965 71.9651 41.3234C70.7113 44.3503 68.5882 46.9375 65.864 48.7577C63.1399 50.5779 59.9372 51.5494 56.661 51.5494C53.3847 51.5494 50.182 50.5779 47.4579 48.7577C44.7338 46.9375 42.6106 44.3503 41.3568 41.3234C40.1031 38.2965 39.7751 34.9658 40.4143 31.7525C41.0535 28.5392 42.6312 25.5876 44.948 23.271C48.0545 20.1646 52.2678 18.4194 56.661 18.4194C61.0542 18.4194 65.2674 20.1646 68.374 23.271Z" stroke="#45413C"/>
<path d="M91.488 70.4349L93.088 68.8349C93.6526 68.2703 93.9698 67.5044 93.9698 66.7059C93.9698 65.9074 93.6526 65.1416 93.088 64.5769L79.82 51.3109C79.727 51.2173 79.6165 51.1431 79.4947 51.0924C79.373 51.0417 79.2424 51.0156 79.1105 51.0156C78.9786 51.0156 78.848 51.0417 78.7262 51.0924C78.6045 51.1431 78.4939 51.2173 78.401 51.3109L73.964 55.7479C73.8704 55.8409 73.7961 55.9514 73.7455 56.0732C73.6948 56.1949 73.6687 56.3255 73.6687 56.4574C73.6687 56.5893 73.6948 56.7199 73.7455 56.8417C73.7961 56.9634 73.8704 57.074 73.964 57.1669L87.232 70.4359C87.5115 70.7154 87.8433 70.937 88.2084 71.0882C88.5736 71.2394 88.965 71.3171 89.3602 71.3171C89.7554 71.317 90.1468 71.239 90.5118 71.0877C90.8769 70.9363 91.2086 70.7145 91.488 70.4349Z" fill="#BF8256"/>
<path d="M78.166 51.5461L76.166 53.5461L92.266 69.6601L92.386 69.5401C92.7581 69.168 93.0533 68.7262 93.2547 68.2401C93.4561 67.7539 93.5598 67.2328 93.5598 66.7066C93.5598 66.1803 93.4561 65.6592 93.2547 65.1731C93.0533 64.6869 92.7581 64.2452 92.386 63.8731L80.055 51.5461C79.931 51.4219 79.7838 51.3235 79.6217 51.2563C79.4597 51.1891 79.2859 51.1545 79.1105 51.1545C78.9351 51.1545 78.7614 51.1891 78.5993 51.2563C78.4372 51.3235 78.29 51.4219 78.166 51.5461Z" fill="#E09F7E"/>
<path d="M93.088 68.8349L91.488 70.4349C91.2085 70.7145 90.8767 70.9362 90.5114 71.0875C90.1462 71.2388 89.7548 71.3166 89.3595 71.3166C88.9642 71.3166 88.5728 71.2388 88.2075 71.0875C87.8423 70.9362 87.5105 70.7145 87.231 70.4349L73.964 57.1669C73.8704 57.074 73.7961 56.9634 73.7455 56.8417C73.6948 56.7199 73.6687 56.5893 73.6687 56.4574C73.6687 56.3255 73.6948 56.1949 73.7455 56.0732C73.7961 55.9514 73.8704 55.8409 73.964 55.7479L78.4 51.3109C78.4929 51.2173 78.6035 51.1431 78.7252 51.0924C78.847 51.0417 78.9776 51.0156 79.1095 51.0156C79.2414 51.0156 79.372 51.0417 79.4937 51.0924C79.6155 51.1431 79.726 51.2173 79.819 51.3109L93.089 64.5789C93.3684 64.8584 93.5901 65.1902 93.7413 65.5554C93.8925 65.9205 93.9702 66.3119 93.9701 66.7071C93.97 67.1023 93.8921 67.4937 93.7407 67.8588C93.5894 68.2239 93.3676 68.5556 93.088 68.8349Z" stroke="#45413C"/>
<path d="M62.5271 50.4791C63.9523 49.9399 65.2963 49.2066 66.5211 48.3001V28.9231H62.5271V50.4791Z" fill="#FF6242" stroke="#45413C" stroke-linejoin="round"/>
<path d="M54.5391 51.4141C55.8644 51.5838 57.2054 51.5935 58.5331 51.4431V34.9131H54.5391V51.4141Z" fill="#FFE500" stroke="#45413C" stroke-linejoin="round"/>
<path d="M46.552 48.106C47.7708 49.0473 49.1151 49.8137 50.546 50.383V40.238H46.552V48.106Z" fill="#6DD627" stroke="#45413C" stroke-linejoin="round"/>
<path opacity="0.15" d="M17.813 78.5851C17.813 79.0455 20.2523 79.4871 24.5943 79.8127C28.9364 80.1382 34.8254 80.3211 40.966 80.3211C47.1065 80.3211 52.9956 80.1382 57.3376 79.8127C61.6797 79.4871 64.119 79.0455 64.119 78.5851C64.119 78.1247 61.6797 77.6831 57.3376 77.3576C52.9956 77.032 47.1065 76.8491 40.966 76.8491C34.8254 76.8491 28.9364 77.032 24.5943 77.3576C20.2523 77.6831 17.813 78.1247 17.813 78.5851Z" fill="#45413C"/>
</svg>
