<svg width="64" height="64" viewBox="0 0 64 64" fill="none" xmlns="http://www.w3.org/2000/svg">
<path d="M5.32605 33.3154C5.32605 40.0371 7.99621 46.4834 12.7491 51.2364C17.5021 55.9893 23.9484 58.6594 30.67 58.6594C37.3917 58.6594 43.838 55.9893 48.591 51.2364C53.3439 46.4834 56.014 40.0371 56.014 33.3154C56.014 26.5938 53.3439 20.1474 48.591 15.3945C43.838 10.6416 37.3917 7.97144 30.67 7.97144C23.9484 7.97144 17.5021 10.6416 12.7491 15.3945C7.99621 20.1474 5.32605 26.5938 5.32605 33.3154Z" fill="#DAEDF7" stroke="#DAEDF7" stroke-width="0.64" stroke-miterlimit="10"/>
<path d="M47.0892 22.385C47.0892 21.9969 46.9351 21.6248 46.6607 21.3503C46.3864 21.0758 46.0143 20.9216 45.6262 20.9214H12.7937C12.4056 20.9216 12.0335 21.0758 11.7591 21.3503C11.4848 21.6248 11.3307 21.9969 11.3307 22.385V43.6233H47.0892V22.385Z" fill="#F8F8F8" stroke="#45413C" stroke-width="0.64" stroke-linecap="round" stroke-linejoin="round"/>
<path d="M44.5656 24.1775C44.5654 23.9835 44.4882 23.7975 44.351 23.6604C44.2138 23.5233 44.0277 23.4463 43.8338 23.4463H14.6204C14.4265 23.4463 14.2406 23.5232 14.1033 23.6602C13.9661 23.7971 13.8889 23.983 13.8886 24.1768L13.855 43.6239H44.5656V24.1775Z" fill="#00B8F0"/>
<path d="M36.9579 23.4463L15.292 43.6233H13.855L13.8886 24.1762C13.8891 23.9824 13.9664 23.7968 14.1036 23.66C14.2408 23.5231 14.4266 23.4463 14.6204 23.4463H36.9579Z" fill="#4ACFFF"/>
<path d="M44.5656 24.1775C44.5654 23.9835 44.4882 23.7975 44.351 23.6604C44.2138 23.5233 44.0277 23.4463 43.8338 23.4463H14.6204C14.4265 23.4463 14.2406 23.5232 14.1033 23.6602C13.9661 23.7971 13.8889 23.983 13.8886 24.1768L13.855 43.6239H44.5656V24.1775Z" stroke="#45413C" stroke-width="0.64" stroke-linecap="round" stroke-linejoin="round"/>
<path opacity="0.15" d="M9.85815 48.6713C9.85815 49.006 11.9857 49.3271 15.7727 49.5638C19.5597 49.8005 24.696 49.9334 30.0516 49.9334C35.4073 49.9334 40.5435 49.8005 44.3306 49.5638C48.1176 49.3271 50.2451 49.006 50.2451 48.6713C50.2451 48.3366 48.1176 48.0155 44.3306 47.7788C40.5435 47.5422 35.4073 47.4092 30.0516 47.4092C24.696 47.4092 19.5597 47.5422 15.7727 47.7788C11.9857 48.0155 9.85815 48.3366 9.85815 48.6713Z" fill="#45413C"/>
<path d="M50.2477 46.1476H8.17664V44.3551C8.17664 44.161 8.25374 43.9749 8.39098 43.8376C8.52822 43.7004 8.71436 43.6233 8.90844 43.6233H49.5127C49.6091 43.6229 49.7046 43.6415 49.7937 43.6781C49.8829 43.7147 49.9639 43.7685 50.0322 43.8365C50.1005 43.9045 50.1547 43.9853 50.1917 44.0743C50.2286 44.1633 50.2477 44.2587 50.2477 44.3551V46.1476Z" fill="#F8F8F8" stroke="#45413C" stroke-width="0.64" stroke-linecap="round" stroke-linejoin="round"/>
<path d="M50.2477 46.1477C46.3403 47.2641 42.2964 47.8305 38.2327 47.8305H20.1903C16.127 47.8304 12.0836 47.264 8.17664 46.1477H50.2477Z" fill="#BDBEC0" stroke="#45413C" stroke-width="0.64" stroke-linecap="round" stroke-linejoin="round"/>
<path opacity="0.15" d="M47.0892 22.385C47.0892 21.9969 46.9351 21.6248 46.6608 21.3503C46.3864 21.0758 46.0143 20.9216 45.6262 20.9214H31.7726C32.4935 24.2266 34.3231 27.1858 36.9576 29.3079C39.5921 31.43 42.8731 32.5874 46.256 32.5879C46.5374 32.5879 46.8117 32.5613 47.0892 32.5454V22.385Z" fill="#45413C"/>
<path d="M33.8381 17.7585C33.8381 19.3892 34.1593 21.004 34.7834 22.5106C35.4075 24.0173 36.3222 25.3862 37.4753 26.5393C38.6284 27.6924 39.9973 28.6071 41.5039 29.2312C43.0105 29.8552 44.6253 30.1764 46.2561 30.1764C47.8868 30.1764 49.5016 29.8552 51.0082 29.2312C52.5148 28.6071 53.8838 27.6924 55.0369 26.5393C56.19 25.3862 57.1047 24.0173 57.7287 22.5106C58.3528 21.004 58.674 19.3892 58.674 17.7585C58.674 16.1278 58.3528 14.513 57.7287 13.0064C57.1047 11.4998 56.19 10.1308 55.0369 8.9777C53.8838 7.82459 52.5148 6.90989 51.0082 6.28583C49.5016 5.66178 47.8868 5.34058 46.2561 5.34058C44.6253 5.34058 43.0105 5.66178 41.5039 6.28583C39.9973 6.90989 38.6284 7.82459 37.4753 8.9777C36.3222 10.1308 35.4075 11.4998 34.7834 13.0064C34.1593 14.513 33.8381 16.1278 33.8381 17.7585Z" fill="#F8F8F8"/>
<path d="M46.256 9.99701C49.1448 9.99845 51.9427 11.0069 54.168 12.8488C56.3934 14.6907 57.9071 17.2508 58.4484 20.0884C58.796 18.291 58.7419 16.439 58.29 14.665C57.838 12.891 56.9995 11.2388 55.8344 9.82676C54.6692 8.41474 53.2063 7.27777 51.5504 6.49726C49.8944 5.71675 48.0864 5.31201 46.2557 5.31201C44.425 5.31201 42.617 5.71675 40.9611 6.49726C39.3051 7.27777 37.8422 8.41474 36.6771 9.82676C35.5119 11.2388 34.6734 12.891 34.2215 14.665C33.7696 16.439 33.7155 18.291 34.063 20.0884C34.6044 17.2507 36.1181 14.6905 38.3436 12.8486C40.5692 11.0067 43.3672 9.9983 46.256 9.99701Z" fill="white"/>
<path d="M33.8381 17.7585C33.8381 19.3892 34.1593 21.004 34.7834 22.5106C35.4075 24.0173 36.3222 25.3862 37.4753 26.5393C38.6284 27.6924 39.9973 28.6071 41.5039 29.2312C43.0105 29.8552 44.6253 30.1764 46.2561 30.1764C47.8868 30.1764 49.5016 29.8552 51.0082 29.2312C52.5148 28.6071 53.8838 27.6924 55.0369 26.5393C56.19 25.3862 57.1047 24.0173 57.7287 22.5106C58.3528 21.004 58.674 19.3892 58.674 17.7585C58.674 16.1278 58.3528 14.513 57.7287 13.0064C57.1047 11.4998 56.19 10.1308 55.0369 8.9777C53.8838 7.82459 52.5148 6.90989 51.0082 6.28583C49.5016 5.66178 47.8868 5.34058 46.2561 5.34058C44.6253 5.34058 43.0105 5.66178 41.5039 6.28583C39.9973 6.90989 38.6284 7.82459 37.4753 8.9777C36.3222 10.1308 35.4075 11.4998 34.7834 13.0064C34.1593 14.513 33.8381 16.1278 33.8381 17.7585Z" stroke="#45413C" stroke-width="0.64" stroke-linecap="round" stroke-linejoin="round"/>
<path d="M54.6418 17.486C54.4985 17.4861 54.3566 17.4578 54.2242 17.4028C54.0919 17.3477 53.9717 17.2669 53.8708 17.1652C51.8592 15.1551 49.1318 14.026 46.288 14.026C43.4442 14.026 40.7168 15.1551 38.7052 17.1652C38.604 17.2673 38.4835 17.3485 38.3508 17.4039C38.2181 17.4594 38.0758 17.4881 37.9319 17.4883C37.7881 17.4886 37.6456 17.4605 37.5127 17.4055C37.3798 17.3506 37.259 17.2699 37.1574 17.1682C37.0557 17.0664 36.9752 16.9456 36.9203 16.8126C36.8655 16.6797 36.8375 16.5372 36.8379 16.3933C36.8383 16.2495 36.8671 16.1072 36.9227 15.9745C36.9783 15.8419 37.0595 15.7215 37.1617 15.6203C39.583 13.1997 42.8666 11.8398 46.2904 11.8398C49.7141 11.8398 52.9977 13.1997 55.419 15.6203C55.5717 15.7731 55.6757 15.9678 55.7179 16.1797C55.76 16.3916 55.7384 16.6112 55.6557 16.8108C55.573 17.0104 55.433 17.1811 55.2534 17.3011C55.0738 17.4212 54.8626 17.4853 54.6466 17.4853L54.6418 17.486Z" fill="#B8ECFF"/>
<path d="M46.2877 12.1748C47.9393 12.1702 49.5755 12.4934 51.1014 13.1254C52.6273 13.7575 54.0127 14.6859 55.1774 15.8569C55.319 15.9985 55.3985 16.1905 55.3985 16.3908C55.3985 16.591 55.319 16.783 55.1774 16.9246C55.0358 17.0662 54.8438 17.1457 54.6436 17.1457C54.4434 17.1457 54.2513 17.0662 54.1098 16.9246C52.0347 14.8505 49.2209 13.6853 46.287 13.6853C43.3531 13.6853 40.5394 14.8505 38.4643 16.9246C38.3942 16.9947 38.3109 17.0503 38.2193 17.0882C38.1276 17.1261 38.0294 17.1457 37.9303 17.1456C37.8311 17.1456 37.7329 17.126 37.6413 17.088C37.5497 17.0501 37.4664 16.9944 37.3963 16.9243C37.3262 16.8541 37.2706 16.7708 37.2327 16.6792C37.1948 16.5876 37.1753 16.4894 37.1753 16.3902C37.1753 16.291 37.1949 16.1928 37.2329 16.1012C37.2709 16.0096 37.3265 15.9264 37.3967 15.8563C38.5618 14.6855 39.9475 13.7573 41.4736 13.1254C42.9997 12.4935 44.636 12.1704 46.2877 12.1748ZM46.2877 11.5007C44.5472 11.4959 42.823 11.8363 41.2148 12.5021C39.6067 13.1679 38.1465 14.146 36.9188 15.3797C36.6506 15.6479 36.5 16.0116 36.5 16.3908C36.5 16.77 36.6506 17.1337 36.9188 17.4018C37.1869 17.67 37.5506 17.8206 37.9298 17.8206C38.309 17.8206 38.6727 17.67 38.9409 17.4018C40.8895 15.4535 43.5322 14.3589 46.2877 14.3589C49.0433 14.3589 51.686 15.4535 53.6346 17.4018C53.7673 17.5346 53.925 17.6399 54.0984 17.7118C54.2719 17.7836 54.4578 17.8206 54.6456 17.8206C54.8334 17.8206 55.0193 17.7836 55.1928 17.7118C55.3662 17.6399 55.5239 17.5346 55.6566 17.4018C55.7894 17.269 55.8947 17.1114 55.9666 16.9379C56.0384 16.7645 56.0754 16.5785 56.0754 16.3908C56.0754 16.203 56.0384 16.0171 55.9666 15.8436C55.8947 15.6701 55.7894 15.5125 55.6566 15.3797C54.4293 14.1455 52.9692 13.167 51.361 12.501C49.7527 11.8351 48.0284 11.4948 46.2877 11.5001V11.5007Z" fill="#009FD9"/>
<path d="M51.7345 20.3903C51.591 20.3908 51.4489 20.3627 51.3164 20.3077C51.1839 20.2527 51.0637 20.172 50.9627 20.0702C49.7221 18.8298 48.0396 18.133 46.2853 18.133C44.531 18.133 42.8485 18.8298 41.6079 20.0702C41.5067 20.1723 41.3863 20.2535 41.2536 20.309C41.1209 20.3646 40.9786 20.3933 40.8348 20.3937C40.6909 20.394 40.5484 20.3659 40.4155 20.311C40.2825 20.2562 40.1618 20.1755 40.06 20.0738C39.9583 19.9721 39.8777 19.8513 39.8229 19.7184C39.768 19.5855 39.7399 19.443 39.7402 19.2991C39.7406 19.1553 39.7693 19.013 39.8249 18.8803C39.8804 18.7476 39.9615 18.6272 40.0637 18.526C41.7139 16.8761 43.9518 15.9492 46.2853 15.9492C48.6188 15.9492 50.8567 16.8761 52.5069 18.526C52.6594 18.6788 52.7632 18.8734 52.8052 19.0852C52.8472 19.297 52.8255 19.5165 52.7429 19.7159C52.6602 19.9154 52.5203 20.0859 52.3409 20.2059C52.1614 20.326 51.9504 20.3901 51.7345 20.3903Z" fill="#B8ECFF"/>
<path d="M46.2859 16.2873C47.3974 16.2845 48.4984 16.502 49.5253 16.9275C50.5522 17.3529 51.4846 17.9777 52.2685 18.7657C52.4101 18.9073 52.4896 19.0993 52.4896 19.2996C52.4896 19.4998 52.4101 19.6918 52.2685 19.8334C52.1269 19.975 51.9349 20.0545 51.7347 20.0545C51.5344 20.0545 51.3424 19.975 51.2008 19.8334C49.8969 18.53 48.1288 17.7979 46.2852 17.7979C44.4416 17.7979 42.6734 18.53 41.3695 19.8334C41.2994 19.9035 41.2161 19.9591 41.1245 19.997C41.0328 20.0349 40.9346 20.0544 40.8355 20.0544C40.7363 20.0544 40.6381 20.0348 40.5465 19.9968C40.4549 19.9588 40.3716 19.9032 40.3015 19.833C40.2314 19.7629 40.1758 19.6796 40.1379 19.588C40.1 19.4964 40.0805 19.3982 40.0805 19.299C40.0805 19.1998 40.1001 19.1016 40.1381 19.01C40.1761 18.9184 40.2317 18.8352 40.3019 18.7651C41.0863 17.9773 42.0189 17.3528 43.046 16.9276C44.0731 16.5023 45.1742 16.2847 46.2859 16.2873ZM46.2859 15.6133C45.0857 15.6102 43.8969 15.8451 42.7881 16.3042C41.6793 16.7634 40.6726 17.4379 39.826 18.2885C39.5579 18.5567 39.4072 18.9203 39.4072 19.2996C39.4072 19.6788 39.5579 20.0424 39.826 20.3106C40.0942 20.5787 40.4578 20.7294 40.837 20.7294C41.2163 20.7294 41.5799 20.5787 41.8481 20.3106C43.0255 19.1332 44.6224 18.4718 46.2875 18.4718C47.9526 18.4718 49.5496 19.1332 50.727 20.3106C50.9951 20.5787 51.3588 20.7294 51.738 20.7294C52.1172 20.7294 52.4809 20.5787 52.7491 20.3106C53.0172 20.0424 53.1678 19.6788 53.1678 19.2996C53.1678 18.9203 53.0172 18.5567 52.7491 18.2885C51.9022 17.4374 50.8949 16.7627 49.7854 16.3035C48.676 15.8443 47.4865 15.6097 46.2859 15.6133Z" fill="#009FD9"/>
<path d="M43.7439 23.2965C43.528 23.2967 43.3168 23.2327 43.1372 23.1128C42.9575 22.993 42.8175 22.8225 42.7347 22.623C42.6519 22.4235 42.6302 22.204 42.6722 21.9921C42.7143 21.7803 42.8182 21.5856 42.9708 21.4329C43.406 20.9972 43.9228 20.6516 44.4917 20.4158C45.0605 20.18 45.6702 20.0586 46.286 20.0586C46.9018 20.0586 47.5115 20.18 48.0804 20.4158C48.6492 20.6516 49.166 20.9972 49.6012 21.4329C49.7033 21.5341 49.7845 21.6546 49.8399 21.7873C49.8954 21.92 49.9241 22.0623 49.9244 22.2062C49.9246 22.35 49.8965 22.4925 49.8415 22.6254C49.7866 22.7583 49.706 22.8791 49.6042 22.9807C49.5025 23.0824 49.3816 23.1629 49.2487 23.2177C49.1157 23.2726 48.9732 23.3006 48.8294 23.3002C48.6855 23.2998 48.5432 23.271 48.4106 23.2154C48.2779 23.1598 48.1575 23.0786 48.0563 22.9764C47.824 22.7437 47.548 22.5591 47.2442 22.4332C46.9405 22.3072 46.6149 22.2424 46.286 22.2424C45.9572 22.2424 45.6316 22.3072 45.3278 22.4332C45.024 22.5591 44.7481 22.7437 44.5157 22.9764C44.4146 23.0781 44.2944 23.1588 44.1619 23.2138C44.0294 23.2688 43.8874 23.2969 43.7439 23.2965Z" fill="#B8ECFF"/>
<path d="M46.2864 20.4006C46.8581 20.399 47.4245 20.5109 47.9527 20.7298C48.4809 20.9487 48.9603 21.2703 49.3633 21.6759C49.4334 21.746 49.4889 21.8293 49.5268 21.9209C49.5647 22.0125 49.5842 22.1107 49.5841 22.2098C49.584 22.309 49.5644 22.4071 49.5264 22.4987C49.4884 22.5903 49.4328 22.6735 49.3626 22.7435C49.2925 22.8136 49.2092 22.8691 49.1176 22.907C49.026 22.9449 48.9278 22.9644 48.8287 22.9643C48.7295 22.9642 48.6314 22.9446 48.5398 22.9066C48.4482 22.8687 48.365 22.813 48.295 22.7428C47.7622 22.2102 47.0397 21.911 46.2864 21.911C45.5331 21.911 44.8106 22.2102 44.2778 22.7428C44.2077 22.813 44.1245 22.8687 44.033 22.9068C43.9414 22.9448 43.8432 22.9644 43.744 22.9645C43.6448 22.9646 43.5466 22.9452 43.455 22.9073C43.3633 22.8695 43.28 22.8139 43.2098 22.7439C43.1396 22.6738 43.0839 22.5906 43.0459 22.499C43.0078 22.4074 42.9882 22.3092 42.9881 22.2101C42.988 22.1109 43.0075 22.0127 43.0453 21.921C43.0832 21.8294 43.1387 21.7461 43.2088 21.6759C43.6119 21.2702 44.0915 20.9486 44.6198 20.7297C45.1481 20.5108 45.7145 20.399 46.2864 20.4006ZM46.2864 19.7266C45.626 19.7245 44.9717 19.8537 44.3616 20.1065C43.7515 20.3593 43.1977 20.7308 42.7323 21.1993C42.5995 21.3321 42.4942 21.4897 42.4223 21.6632C42.3505 21.8367 42.3135 22.0226 42.3135 22.2104C42.3135 22.3981 42.3505 22.5841 42.4223 22.7575C42.4942 22.931 42.5995 23.0886 42.7323 23.2214C42.865 23.3542 43.0227 23.4595 43.1961 23.5313C43.3696 23.6032 43.5555 23.6402 43.7433 23.6402C43.9311 23.6402 44.117 23.6032 44.2905 23.5313C44.4639 23.4595 44.6216 23.3542 44.7543 23.2214C44.9554 23.0203 45.1942 22.8608 45.4569 22.7519C45.7197 22.6431 46.0013 22.5871 46.2857 22.5871C46.5701 22.5871 46.8517 22.6431 47.1145 22.7519C47.3773 22.8608 47.616 23.0203 47.8171 23.2214C48.0852 23.4895 48.4489 23.6402 48.8281 23.6402C49.2073 23.6402 49.571 23.4895 49.8392 23.2214C50.1073 22.9533 50.258 22.5896 50.258 22.2104C50.258 21.8312 50.1073 21.4675 49.8392 21.1993C49.3739 20.7309 48.8203 20.3596 48.2104 20.1068C47.6006 19.8539 46.9466 19.7247 46.2864 19.7266Z" fill="#009FD9"/>
</svg>
