<svg width="100" height="100" viewBox="0 0 100 100" fill="none" xmlns="http://www.w3.org/2000/svg">
<path d="M6.37012 50C6.37012 60.6087 10.5844 70.7828 18.0858 78.2843C25.5873 85.7857 35.7615 90 46.3701 90C56.9788 90 67.1529 85.7857 74.6544 78.2843C82.1558 70.7828 86.3701 60.6087 86.3701 50C86.3701 39.3913 82.1558 29.2172 74.6544 21.7157C67.1529 14.2143 56.9788 10 46.3701 10C35.7615 10 25.5873 14.2143 18.0858 21.7157C10.5844 29.2172 6.37012 39.3913 6.37012 50Z" fill="#DAEDF7" stroke="#DAEDF7"/>
<path d="M17.7061 22.8259H70.4251V67.2599H17.7061V22.8259Z" fill="white" stroke="#45413C" stroke-linecap="round" stroke-linejoin="round"/>
<path d="M70.4251 36.3819H17.7061V25.5459C17.7059 25.1888 17.7762 24.8351 17.9127 24.5051C18.0493 24.1751 18.2496 23.8752 18.5021 23.6227C18.7546 23.3701 19.0544 23.1697 19.3843 23.033C19.7143 22.8963 20.0679 22.8259 20.4251 22.8259H67.7051C68.4264 22.8259 69.1183 23.1125 69.6284 23.6226C70.1385 24.1327 70.4251 24.8245 70.4251 25.5459V36.3819Z" fill="#00B8F0"/>
<path d="M67.7051 22.8259H20.4251C20.0679 22.8259 19.7143 22.8963 19.3843 23.033C19.0544 23.1697 18.7546 23.3701 18.5021 23.6227C18.2496 23.8752 18.0493 24.1751 17.9127 24.5051C17.7762 24.8351 17.7059 25.1888 17.7061 25.5459V29.3109C17.7061 28.5898 17.9925 27.8982 18.5024 27.3883C19.0123 26.8784 19.7039 26.5919 20.4251 26.5919H67.7051C68.0622 26.5918 68.4159 26.662 68.7459 26.7986C69.0759 26.9352 69.3757 27.1355 69.6283 27.388C69.8809 27.6404 70.0813 27.9402 70.218 28.2702C70.3547 28.6001 70.4251 28.9538 70.4251 29.3109V25.5459C70.4251 24.8245 70.1385 24.1327 69.6284 23.6226C69.1183 23.1125 68.4264 22.8259 67.7051 22.8259Z" fill="#4ACFFF"/>
<path d="M70.4251 36.3819H17.7061V25.5459C17.7059 25.1888 17.7762 24.8351 17.9127 24.5051C18.0493 24.1751 18.2496 23.8752 18.5021 23.6227C18.7546 23.3701 19.0544 23.1697 19.3843 23.033C19.7143 22.8963 20.0679 22.8259 20.4251 22.8259H67.7051C68.4264 22.8259 69.1183 23.1125 69.6284 23.6226C70.1385 24.1327 70.4251 24.8245 70.4251 25.5459V36.3819Z" stroke="#45413C" stroke-linecap="round" stroke-linejoin="round"/>
<path d="M17.7061 43.9141H70.4251" stroke="#45413C" stroke-linecap="round" stroke-linejoin="round"/>
<path d="M17.7061 51.4451H70.4251" stroke="#45413C" stroke-linecap="round" stroke-linejoin="round"/>
<path d="M17.7061 58.9761H70.4251" stroke="#45413C" stroke-linecap="round" stroke-linejoin="round"/>
<path d="M28.25 36.3821V67.2611" stroke="#45413C" stroke-linecap="round" stroke-linejoin="round"/>
<path d="M38.793 36.3821V67.2611" stroke="#45413C" stroke-linecap="round" stroke-linejoin="round"/>
<path d="M49.3369 36.3821V67.2601" stroke="#45413C" stroke-linecap="round" stroke-linejoin="round"/>
<path d="M59.8811 36.3821V67.2601" stroke="#45413C" stroke-linecap="round" stroke-linejoin="round"/>
<path d="M17.7061 43.9141H28.2501V51.4451H17.7061V43.9141Z" fill="#FFA694" stroke="#45413C" stroke-linecap="round" stroke-linejoin="round"/>
<path d="M28.25 58.9761H38.794V67.2601H28.25V58.9761Z" fill="#DAEDF7" stroke="#45413C" stroke-linecap="round" stroke-linejoin="round"/>
<path d="M38.793 36.3821H49.337V43.9131H38.793V36.3821Z" fill="#DAEDF7" stroke="#45413C" stroke-linecap="round" stroke-linejoin="round"/>
<path opacity="0.15" d="M28.082 73.1149C28.082 73.6997 29.7082 74.2606 32.6028 74.6741C35.4975 75.0876 39.4234 75.3199 43.517 75.3199C47.6106 75.3199 51.5366 75.0876 54.4312 74.6741C57.3258 74.2606 58.952 73.6997 58.952 73.1149C58.952 72.5301 57.3258 71.9693 54.4312 71.5557C51.5366 71.1422 47.6106 70.9099 43.517 70.9099C39.4234 70.9099 35.4975 71.1422 32.6028 71.5557C29.7082 71.9693 28.082 72.5301 28.082 73.1149Z" fill="#45413C"/>
<path d="M67.7751 51.1439V39.6759C67.7749 38.8073 67.4298 37.9743 66.8157 37.3601C66.2016 36.7458 65.3687 36.4004 64.5001 36.3999C63.6313 36.3999 62.798 36.7451 62.1836 37.3594C61.5693 37.9738 61.2241 38.8071 61.2241 39.6759V51.1439H67.7751Z" fill="#FFE500"/>
<path d="M67.7751 51.1439V39.6759C67.7749 38.8073 67.4298 37.9743 66.8157 37.3601C66.2016 36.7458 65.3687 36.4004 64.5001 36.3999C63.6313 36.3999 62.798 36.7451 62.1836 37.3594C61.5693 37.9738 61.2241 38.8071 61.2241 39.6759V51.1439H67.7751Z" stroke="#45413C" stroke-linecap="round" stroke-linejoin="round"/>
<path d="M80.777 72.3819C80.397 72.1074 80.0874 71.7468 79.8735 71.3297C79.6595 70.9126 79.5473 70.4507 79.546 69.9819V60.3109C79.546 51.3939 72.858 44.1379 64.638 44.1379C56.418 44.1379 49.731 51.3939 49.731 60.3109V69.9779C49.7295 70.4468 49.6171 70.9087 49.403 71.3258C49.1889 71.7429 48.8791 72.1034 48.499 72.3779L80.777 72.3819Z" fill="#FFE500"/>
<path d="M60.211 76.708C60.0891 76.7086 59.9715 76.7538 59.8806 76.835C59.7896 76.9162 59.7314 77.0279 59.717 77.149C59.6966 77.3326 59.6862 77.5172 59.686 77.702C59.7046 79.0078 60.2363 80.2538 61.1662 81.1707C62.0962 82.0875 63.3496 82.6015 64.6555 82.6015C65.9615 82.6015 67.2149 82.0875 68.1448 81.1707C69.0748 80.2538 69.6065 79.0078 69.625 77.702C69.6248 77.5172 69.6145 77.3326 69.594 77.149C69.5796 77.0279 69.5215 76.9162 69.4305 76.835C69.3395 76.7538 69.222 76.7086 69.1 76.708H60.211Z" fill="#FFE500"/>
<path d="M69.324 79.408C69.2552 79.3703 69.1784 79.3498 69.1 79.348H60.211C60.1326 79.3498 60.0558 79.3703 59.987 79.408C59.7875 78.8614 59.686 78.2839 59.687 77.702C59.6872 77.5172 59.6976 77.3326 59.718 77.149C59.7324 77.0279 59.7906 76.9162 59.8816 76.835C59.9725 76.7538 60.0901 76.7086 60.212 76.708H69.1C69.222 76.7086 69.3395 76.7538 69.4305 76.835C69.5215 76.9162 69.5796 77.0279 69.594 77.149C69.6145 77.3326 69.6248 77.5172 69.625 77.702C69.6253 78.2839 69.5234 78.8613 69.324 79.408Z" fill="#EBCB00"/>
<path d="M60.211 76.708C60.0891 76.7086 59.9715 76.7538 59.8806 76.835C59.7896 76.9162 59.7314 77.0279 59.717 77.149C59.6966 77.3326 59.6862 77.5172 59.686 77.702C59.7046 79.0078 60.2363 80.2538 61.1662 81.1707C62.0962 82.0875 63.3496 82.6015 64.6555 82.6015C65.9615 82.6015 67.2149 82.0875 68.1448 81.1707C69.0748 80.2538 69.6065 79.0078 69.625 77.702C69.6248 77.5172 69.6145 77.3326 69.594 77.149C69.5796 77.0279 69.5215 76.9162 69.4305 76.835C69.3395 76.7538 69.222 76.7086 69.1 76.708H60.211Z" stroke="#45413C" stroke-linecap="round" stroke-linejoin="round"/>
<path d="M64.638 48.2929C72.858 48.2929 79.546 55.5489 79.546 64.4659V60.3109C79.546 51.3939 72.858 44.1379 64.638 44.1379C56.418 44.1379 49.731 51.3939 49.731 60.3109V64.4659C49.731 55.5489 56.417 48.2929 64.638 48.2929Z" fill="#FFF48C"/>
<path d="M44.809 74.5229C44.7777 74.6621 44.7616 74.8043 44.761 74.9469V74.9699C44.7637 74.8198 44.7797 74.6702 44.809 74.5229Z" fill="#FFE500"/>
<path d="M80.777 72.3819C80.397 72.1074 80.0874 71.7468 79.8735 71.3297C79.6595 70.9126 79.5473 70.4507 79.546 69.9819V60.3109C79.546 51.3939 72.858 44.1379 64.638 44.1379C56.418 44.1379 49.731 51.3939 49.731 60.3109V69.9779C49.7295 70.4468 49.6171 70.9087 49.403 71.3258C49.1889 71.7429 48.8791 72.1034 48.499 72.3779L80.777 72.3819Z" stroke="#45413C" stroke-linecap="round" stroke-linejoin="round"/>
<path d="M84.817 74.9941C84.8171 75.3371 84.7496 75.6768 84.6184 75.9938C84.4872 76.3108 84.2948 76.5988 84.0522 76.8413C83.8096 77.0839 83.5217 77.2763 83.2047 77.4075C82.8877 77.5387 82.548 77.6062 82.205 77.6061H47.374C46.6812 77.6061 46.0168 77.3309 45.527 76.841C45.0372 76.3512 44.762 75.6868 44.762 74.9941C44.762 74.3013 45.0372 73.637 45.527 73.1471C46.0168 72.6573 46.6812 72.3821 47.374 72.3821H82.205C82.548 72.3819 82.8877 72.4494 83.2047 72.5806C83.5217 72.7119 83.8096 72.9042 84.0522 73.1468C84.2948 73.3894 84.4872 73.6774 84.6184 73.9944C84.7496 74.3113 84.8171 74.651 84.817 74.9941Z" fill="#FFE500"/>
<path d="M47.3739 74.1311H82.2049C82.7445 74.1311 83.2709 74.2982 83.7117 74.6094C84.1525 74.9206 84.4862 75.3606 84.6669 75.8691C84.8066 75.4749 84.8496 75.053 84.7925 74.6387C84.7353 74.2245 84.5796 73.83 84.3384 73.4884C84.0972 73.1468 83.7776 72.868 83.4063 72.6755C83.0351 72.483 82.6231 72.3824 82.2049 72.3821H47.3739C46.9556 72.3819 46.5433 72.4823 46.1718 72.6746C45.8004 72.867 45.4805 73.1458 45.2392 73.4875C44.998 73.8293 44.8423 74.224 44.7853 74.6384C44.7284 75.0529 44.7718 75.4749 44.9119 75.8691C45.0926 75.3606 45.4263 74.9206 45.8671 74.6094C46.3079 74.2982 46.8343 74.1311 47.3739 74.1311Z" fill="#FFF48C"/>
<path d="M84.817 74.9941C84.8171 75.3371 84.7496 75.6768 84.6184 75.9938C84.4872 76.3108 84.2948 76.5988 84.0522 76.8413C83.8096 77.0839 83.5217 77.2763 83.2047 77.4075C82.8877 77.5387 82.548 77.6062 82.205 77.6061H47.374C46.6812 77.6061 46.0168 77.3309 45.527 76.841C45.0372 76.3512 44.762 75.6868 44.762 74.9941C44.762 74.3013 45.0372 73.637 45.527 73.1471C46.0168 72.6573 46.6812 72.3821 47.374 72.3821H82.205C82.548 72.3819 82.8877 72.4494 83.2047 72.5806C83.5217 72.7119 83.8096 72.9042 84.0522 73.1468C84.2948 73.3894 84.4872 73.6774 84.6184 73.9944C84.7496 74.3113 84.8171 74.651 84.817 74.9941Z" stroke="#45413C" stroke-linecap="round" stroke-linejoin="round"/>
<path d="M25.809 27.6731C25.8141 27.8681 25.7801 28.0622 25.7089 28.2438C25.6378 28.4255 25.5311 28.5911 25.395 28.7308C25.2588 28.8705 25.0961 28.9816 24.9164 29.0574C24.7366 29.1332 24.5435 29.1723 24.3485 29.1723C24.1534 29.1723 23.9603 29.1332 23.7805 29.0574C23.6008 28.9816 23.4381 28.8705 23.3019 28.7308C23.1658 28.5911 23.0591 28.4255 22.988 28.2438C22.9168 28.0622 22.8828 27.8681 22.888 27.6731V18.9101C22.8979 18.5294 23.0562 18.1676 23.329 17.9018C23.6018 17.636 23.9676 17.4873 24.3485 17.4873C24.7293 17.4873 25.0951 17.636 25.3679 17.9018C25.6407 18.1676 25.799 18.5294 25.809 18.9101V27.6731Z" fill="#E0E0E0" stroke="#45413C" stroke-linecap="round" stroke-linejoin="round"/>
<path d="M37.493 27.6731C37.4981 27.8681 37.4641 28.0622 37.393 28.2438C37.3219 28.4255 37.2152 28.5911 37.079 28.7308C36.9429 28.8705 36.7802 28.9816 36.6005 29.0574C36.4207 29.1332 36.2276 29.1723 36.0325 29.1723C35.8375 29.1723 35.6444 29.1332 35.4646 29.0574C35.2849 28.9816 35.1222 28.8705 34.986 28.7308C34.8499 28.5911 34.7431 28.4255 34.672 28.2438C34.6009 28.0622 34.5669 27.8681 34.572 27.6731V18.9101C34.582 18.5294 34.7402 18.1676 35.0131 17.9018C35.2859 17.636 35.6517 17.4873 36.0325 17.4873C36.4134 17.4873 36.7792 17.636 37.052 17.9018C37.3248 18.1676 37.4831 18.5294 37.493 18.9101V27.6731Z" fill="#E0E0E0" stroke="#45413C" stroke-linecap="round" stroke-linejoin="round"/>
<path d="M53.5589 27.6731C53.5641 27.8681 53.5301 28.0622 53.459 28.2438C53.3878 28.4255 53.2811 28.5911 53.145 28.7308C53.0088 28.8705 52.8461 28.9816 52.6664 29.0574C52.4866 29.1332 52.2935 29.1723 52.0985 29.1723C51.9034 29.1723 51.7103 29.1332 51.5305 29.0574C51.3508 28.9816 51.1881 28.8705 51.0519 28.7308C50.9158 28.5911 50.8091 28.4255 50.738 28.2438C50.6669 28.0622 50.6328 27.8681 50.638 27.6731V18.9101C50.6479 18.5294 50.8062 18.1676 51.079 17.9018C51.3518 17.636 51.7176 17.4873 52.0985 17.4873C52.4793 17.4873 52.8451 17.636 53.1179 17.9018C53.3907 18.1676 53.549 18.5294 53.5589 18.9101V27.6731Z" fill="#E0E0E0" stroke="#45413C" stroke-linecap="round" stroke-linejoin="round"/>
<path d="M65.243 27.6731C65.2481 27.8681 65.2141 28.0622 65.143 28.2438C65.0719 28.4255 64.9652 28.5911 64.829 28.7308C64.6929 28.8705 64.5302 28.9816 64.3505 29.0574C64.1707 29.1332 63.9776 29.1723 63.7825 29.1723C63.5875 29.1723 63.3944 29.1332 63.2146 29.0574C63.0349 28.9816 62.8722 28.8705 62.736 28.7308C62.5999 28.5911 62.4931 28.4255 62.422 28.2438C62.3509 28.0622 62.3169 27.8681 62.322 27.6731V18.9101C62.332 18.5294 62.4902 18.1676 62.7631 17.9018C63.0359 17.636 63.4017 17.4873 63.7825 17.4873C64.1634 17.4873 64.5292 17.636 64.802 17.9018C65.0748 18.1676 65.2331 18.5294 65.243 18.9101V27.6731Z" fill="#E0E0E0" stroke="#45413C" stroke-linecap="round" stroke-linejoin="round"/>
<path d="M69.0359 54.9359C69.0359 58.1973 70.3315 61.3251 72.6376 63.6312C74.9437 65.9373 78.0715 67.2329 81.3329 67.2329C84.5943 67.2329 87.722 65.9373 90.0282 63.6312C92.3343 61.3251 93.6299 58.1973 93.6299 54.9359C93.6299 51.6746 92.3343 48.5468 90.0282 46.2406C87.722 43.9345 84.5943 42.6389 81.3329 42.6389C78.0715 42.6389 74.9437 43.9345 72.6376 46.2406C70.3315 48.5468 69.0359 51.6746 69.0359 54.9359Z" fill="#FF6242"/>
<path d="M93.3609 57.5071C92.7717 54.7544 91.2561 52.2872 89.0672 50.5173C86.8782 48.7474 84.1484 47.7818 81.3335 47.7818C78.5185 47.7818 75.7887 48.7474 73.5997 50.5173C71.4108 52.2872 69.8952 54.7544 69.3059 57.5071C68.9221 55.7139 68.944 53.8575 69.3702 52.0739C69.7963 50.2903 70.6159 48.6246 71.769 47.1986C72.922 45.7726 74.3793 44.6225 76.0341 43.8324C77.689 43.0424 79.4996 42.6323 81.3335 42.6323C83.1673 42.6323 84.9779 43.0424 86.6328 43.8324C88.2876 44.6225 89.7449 45.7726 90.8979 47.1986C92.051 48.6246 92.8705 50.2903 93.2967 52.0739C93.7229 53.8575 93.7448 55.7139 93.3609 57.5071Z" fill="#FF6242"/>
<path d="M69.0359 54.9359C69.0359 58.1973 70.3315 61.3251 72.6376 63.6312C74.9437 65.9373 78.0715 67.2329 81.3329 67.2329C84.5943 67.2329 87.722 65.9373 90.0282 63.6312C92.3343 61.3251 93.6299 58.1973 93.6299 54.9359C93.6299 51.6745 92.3343 48.5468 90.0282 46.2406C87.722 43.9345 84.5943 42.6389 81.3329 42.6389C78.0715 42.6389 74.9437 43.9345 72.6376 46.2406C70.3315 48.5468 69.0359 51.6745 69.0359 54.9359Z" stroke="#45413C" stroke-linecap="round" stroke-linejoin="round"/>
<path d="M81.3331 55.748C80.9824 55.7481 80.6417 55.6312 80.365 55.4158C80.0882 55.2005 79.8912 54.899 79.8051 54.559L78.9921 51.359C78.7814 50.6821 78.6144 49.9924 78.4921 49.294C78.4653 48.9053 78.5187 48.5152 78.6489 48.1479C78.7791 47.7807 78.9834 47.4441 79.2491 47.1591C79.5148 46.874 79.8363 46.6467 80.1935 46.491C80.5508 46.3354 80.9362 46.2549 81.3258 46.2544C81.7155 46.2539 82.1011 46.3335 82.4587 46.4883C82.8164 46.643 83.1384 46.8696 83.4048 47.1539C83.6712 47.4383 83.8763 47.7744 84.0075 48.1413C84.1386 48.5083 84.1929 48.8982 84.1671 49.287C84.047 49.9891 83.88 50.6823 83.6671 51.362L82.8541 54.562C82.7677 54.9003 82.5715 55.2002 82.2962 55.4149C82.0209 55.6295 81.6822 55.7467 81.3331 55.748Z" fill="white" stroke="#E04122" stroke-linecap="round" stroke-linejoin="round"/>
<path d="M81.3331 63.7581C80.7704 63.7583 80.2203 63.5917 79.7523 63.2792C79.2843 62.9668 78.9195 62.5226 78.704 62.0028C78.4885 61.483 78.432 60.911 78.5415 60.3591C78.6511 59.8072 78.9219 59.3001 79.3196 58.9021C79.7174 58.5041 80.2242 58.2329 80.776 58.123C81.3279 58.013 81.8999 58.0691 82.4199 58.2843C82.9398 58.4994 83.3843 58.8639 83.697 59.3317C84.0098 59.7994 84.1769 60.3494 84.1771 60.9121C84.1763 61.6663 83.8764 62.3895 83.3433 62.923C82.8102 63.4565 82.0873 63.7568 81.3331 63.7581Z" fill="white" stroke="#E04122" stroke-linecap="round" stroke-linejoin="round"/>
</svg>
