<svg width="100" height="100" viewBox="0 0 100 100" fill="none" xmlns="http://www.w3.org/2000/svg">
<path d="M50 91.4563C56.9467 91.4557 63.7708 89.6254 69.7854 86.1496C75.8 82.6737 80.793 77.6749 84.2619 71.6562H15.738C19.2069 77.6749 24.1999 82.6737 30.2145 86.1496C36.2291 89.6254 43.0532 91.4557 50 91.4563Z" fill="#CCF7AD"/>
<path d="M13.9282 68.1914C14.4688 69.3794 15.0865 70.5308 15.7379 71.6564H84.2618C84.9132 70.5308 85.531 69.3794 86.0715 68.1914H13.9282Z" fill="#CCF7AD"/>
<path d="M89.5999 51.8563C89.6007 45.9461 88.2785 40.1107 85.7304 34.7781C83.1823 29.4455 79.4729 24.7508 74.8742 21.0384C70.2755 17.326 64.9042 14.6901 59.1541 13.3238C53.4041 11.9576 47.4211 11.8958 41.644 13.1428C35.867 14.3899 30.4423 16.9143 25.7678 20.5308C21.0934 24.1474 17.2877 28.7643 14.63 34.0432C11.9722 39.322 10.5297 45.1288 10.4083 51.0377C10.2868 56.9466 11.4896 62.8077 13.9283 68.1913H86.0715C88.4008 63.0608 89.6039 57.4908 89.5999 51.8563Z" fill="#B8ECFF"/>
<path d="M11.3901 68.1914H88.6101" stroke="#45413C" stroke-linecap="round" stroke-linejoin="round"/>
<path d="M6.93506 68.1914H9.41006" stroke="#45413C" stroke-linecap="round" stroke-linejoin="round"/>
<path d="M90.5901 68.1914H93.0651" stroke="#45413C" stroke-linecap="round" stroke-linejoin="round"/>
<path d="M31.4385 25.2321H43.9937C44.3184 25.2321 44.6299 25.1031 44.8596 24.8734C45.0893 24.6438 45.2183 24.3323 45.2183 24.0075V23.854C45.6776 19.9505 42.3116 16.0459 37.4369 16.0459C35.8462 16.0459 34.3206 16.6777 33.1957 17.8024C32.0708 18.9271 31.4387 20.4526 31.4385 22.0433V25.2321Z" fill="white" stroke="#45413C" stroke-linecap="round" stroke-linejoin="round"/>
<path d="M37.4369 16.0432C37.2227 16.053 37.0092 16.0745 36.7974 16.1075V19.5725C36.7974 20.2602 37.0705 20.9197 37.5568 21.4059C38.043 21.8922 38.7025 22.1653 39.3902 22.1653H45.1757C44.8241 20.3915 43.852 18.801 42.4338 17.679C41.0156 16.5571 39.244 15.9771 37.4369 16.0432Z" fill="#00B8F0"/>
<path d="M37.4369 16.0431C37.2227 16.053 37.0092 16.0745 36.7974 16.1075V19.5725C36.7971 19.9942 36.9 20.4096 37.0971 20.7825C37.2941 21.1554 37.5794 21.4744 37.9279 21.7119L42.1374 17.5034C40.7588 16.5432 39.1169 16.0331 37.4369 16.0431Z" fill="#4ACFFF"/>
<path d="M37.4369 16.0432C37.2227 16.053 37.0092 16.0745 36.7974 16.1075V19.5725C36.7974 20.2602 37.0705 20.9197 37.5568 21.4059C38.043 21.8922 38.7025 22.1653 39.3902 22.1653H45.1757C44.8241 20.3915 43.852 18.801 42.4338 17.679C41.0156 16.5571 39.244 15.9771 37.4369 16.0432Z" stroke="#45413C" stroke-linecap="round" stroke-linejoin="round"/>
<path d="M23.7837 21.4048H31.4384V25.2321L23.7837 23.7016V21.4048Z" fill="white" stroke="#45413C" stroke-linecap="round" stroke-linejoin="round"/>
<path d="M41.3909 25.2324L42.9224 28.2945" stroke="#45413C" stroke-linecap="round" stroke-linejoin="round"/>
<path d="M34.5015 25.2324L32.97 28.2945" stroke="#45413C" stroke-linecap="round" stroke-linejoin="round"/>
<path d="M37.5637 16.0458V13.749" stroke="#45413C" stroke-linecap="round" stroke-linejoin="round"/>
<path d="M45.9845 13.749H29.1426" stroke="#45413C" stroke-linecap="round" stroke-linejoin="round"/>
<path d="M21.4871 21.4047C21.4871 22.0139 21.729 22.5981 22.1598 23.0288C22.5905 23.4595 23.1747 23.7015 23.7839 23.7015C24.393 23.7015 24.9772 23.4595 25.4079 23.0288C25.8387 22.5981 26.0807 22.0139 26.0807 21.4047C26.0807 20.7956 25.8387 20.2114 25.4079 19.7806C24.9772 19.3499 24.393 19.1079 23.7839 19.1079C23.1747 19.1079 22.5905 19.3499 22.1598 19.7806C21.729 20.2114 21.4871 20.7956 21.4871 21.4047Z" fill="#FF6242" stroke="#45413C" stroke-linecap="round" stroke-linejoin="round"/>
<path d="M21.4871 61.2129H57.4676V66.5718H21.4871V61.2129Z" fill="white" stroke="#45413C" stroke-linecap="round" stroke-linejoin="round"/>
<path d="M21.4871 48.1982H57.4676V53.5571H21.4871V48.1982Z" fill="white" stroke="#45413C" stroke-linecap="round" stroke-linejoin="round"/>
<path d="M21.4871 35.1846H57.4676V40.5434H21.4871V35.1846Z" fill="white" stroke="#45413C" stroke-linecap="round" stroke-linejoin="round"/>
<path d="M16.1282 76.524H21.488V35.1846H17.3657C17.0375 35.1846 16.7227 35.3149 16.4906 35.547C16.2586 35.7791 16.1282 36.0939 16.1282 36.4221V76.524Z" fill="white"/>
<path d="M16.1282 76.524H21.488V35.1846H17.3657C17.0375 35.1846 16.7227 35.3149 16.4906 35.547C16.2586 35.7791 16.1282 36.0939 16.1282 36.4221V76.524Z" stroke="#45413C" stroke-linecap="round" stroke-linejoin="round"/>
<path d="M21.4871 40.5435H57.4676V48.1991H21.4871V40.5435Z" fill="#00B8F0"/>
<path d="M42.9225 40.5435H21.4871V48.1981H35.2669L42.9225 40.5435Z" fill="#4ACFFF"/>
<path d="M21.4871 40.5435H57.4676V48.1991H21.4871V40.5435Z" stroke="#45413C" stroke-linecap="round" stroke-linejoin="round"/>
<path d="M21.4871 53.5571H57.4676V61.2128H21.4871V53.5571Z" fill="#00B8F0"/>
<path d="M29.908 53.5571H21.4871V61.2128H22.2523L29.908 53.5571Z" fill="#4ACFFF"/>
<path d="M21.4871 53.5571H57.4676V61.2128H21.4871V53.5571Z" stroke="#45413C" stroke-linecap="round" stroke-linejoin="round"/>
<path d="M21.4871 66.5718H31.4395V76.5242H21.4871V66.5718Z" fill="#FFF48C" stroke="#45413C" stroke-linecap="round" stroke-linejoin="round"/>
<path d="M31.4385 66.5718H57.4666V76.5242H31.4385V66.5718Z" fill="#87898C"/>
<path d="M31.4385 70.3989H57.4666V76.5231H31.4385V70.3989Z" fill="#87898C"/>
<path d="M31.4385 66.5718H57.4666V76.5242H31.4385V66.5718Z" stroke="#45413C" stroke-linecap="round" stroke-linejoin="round"/>
<path d="M52.8709 31.356H21.7117C21.4491 31.356 21.1973 31.2517 21.0116 31.0661C20.826 30.8804 20.7217 30.6286 20.7217 30.366V29.2839C20.7217 29.0214 20.826 28.7696 21.0116 28.5839C21.1973 28.3982 21.4491 28.2939 21.7117 28.2939H52.8709V31.356Z" fill="#ADC4D9"/>
<path d="M21.9463 28.2939C21.7854 28.2939 21.6261 28.3257 21.4774 28.3873C21.3288 28.4489 21.1937 28.5392 21.08 28.653C20.9663 28.7668 20.8761 28.9019 20.8146 29.0506C20.7531 29.1993 20.7216 29.3587 20.7217 29.5196V30.1314C20.7215 30.2888 20.7517 30.4448 20.8108 30.5907C20.9024 30.3647 21.0594 30.1711 21.2617 30.0347C21.464 29.8984 21.7024 29.8255 21.9463 29.8255H52.8709V28.2939H21.9463Z" fill="#DAEDF7"/>
<path d="M52.8709 31.356H21.7117C21.4491 31.356 21.1973 31.2517 21.0116 31.0661C20.826 30.8804 20.7217 30.6286 20.7217 30.366V29.2839C20.7217 29.0214 20.826 28.7696 21.0116 28.5839C21.1973 28.3982 21.4491 28.2939 21.7117 28.2939H52.8709V31.356Z" stroke="#45413C" stroke-linecap="round" stroke-linejoin="round"/>
<path d="M60.3763 35.1848H52.8711V26.9767C52.8711 26.8126 52.9363 26.6552 53.0523 26.5391C53.1684 26.4231 53.3257 26.3579 53.4898 26.3579H59.7546C59.9187 26.3579 60.0761 26.4231 60.1921 26.5391C60.3081 26.6552 60.3733 26.8126 60.3733 26.9767L60.3763 35.1848Z" fill="#DAEDF7"/>
<path d="M52.874 29.8257H60.3762V35.1846H52.874V29.8257Z" fill="#ADC4D9"/>
<path d="M60.3763 35.1848H52.8711V26.9767C52.8711 26.8126 52.9363 26.6552 53.0523 26.5391C53.1684 26.4231 53.3257 26.3579 53.4898 26.3579H59.7546C59.9187 26.3579 60.0761 26.4231 60.1921 26.5391C60.3081 26.6552 60.3733 26.8126 60.3733 26.9767L60.3763 35.1848Z" stroke="#45413C" stroke-linecap="round" stroke-linejoin="round"/>
<path d="M80.4336 76.524H57.4656V23.559C57.4656 23.2308 57.596 22.9161 57.828 22.684C58.0601 22.4519 58.3749 22.3215 58.7031 22.3215H79.1961C79.5243 22.3215 79.839 22.4519 80.0711 22.684C80.3032 22.9161 80.4336 23.2308 80.4336 23.559V76.524Z" fill="white"/>
<path d="M23.0176 35.1848V31.3564L26.8459 35.1848L30.6732 31.3564L34.5016 35.1848L38.3289 31.3564L42.1563 35.1848L45.9846 31.3564L49.8119 35.1848L52.874 32.1227" stroke="#45413C" stroke-linecap="round" stroke-linejoin="round"/>
<path d="M25.3145 74.2274V69.6338H26.846C27.0471 69.6338 27.2462 69.6734 27.4319 69.7504C27.6177 69.8274 27.7865 69.9402 27.9286 70.0824C28.0707 70.2246 28.1834 70.3935 28.2603 70.5793C28.3372 70.7651 28.3767 70.9642 28.3765 71.1653C28.3765 71.5712 28.2153 71.9605 27.9282 72.2476C27.6412 72.5346 27.2519 72.6959 26.846 72.6959H25.3145" stroke="#45413C" stroke-linecap="round" stroke-linejoin="round"/>
<path d="M80.4336 28.1416C79.5712 30.4938 78.0074 32.5244 75.9535 33.959C73.8997 35.3935 71.4548 36.1628 68.9496 36.1628C66.4443 36.1628 63.9995 35.3935 61.9456 33.959C59.8917 32.5244 58.3279 30.4938 57.4656 28.1416V31.2037C58.3279 33.5558 59.8917 35.5865 61.9456 37.021C63.9995 38.4556 66.4443 39.2249 68.9496 39.2249C71.4548 39.2249 73.8997 38.4556 75.9535 37.021C78.0074 35.5865 79.5712 33.5558 80.4336 31.2037V28.1416Z" fill="#DAEDF7"/>
<path d="M29.908 40.5435V48.1981" stroke="#45413C" stroke-linecap="round" stroke-linejoin="round"/>
<path d="M39.0942 40.5435V48.1981" stroke="#45413C" stroke-linecap="round" stroke-linejoin="round"/>
<path d="M48.2803 40.5435V48.1981" stroke="#45413C" stroke-linecap="round" stroke-linejoin="round"/>
<path d="M29.908 53.5571V61.2128" stroke="#45413C" stroke-linecap="round" stroke-linejoin="round"/>
<path d="M39.0942 53.5571V61.2128" stroke="#45413C" stroke-linecap="round" stroke-linejoin="round"/>
<path d="M48.2803 53.5571V61.2128" stroke="#45413C" stroke-linecap="round" stroke-linejoin="round"/>
<path d="M68.4398 70.9097C68.4398 70.1653 68.1441 69.4514 67.6178 68.9251C67.0914 68.3987 66.3775 68.103 65.6332 68.103C64.8888 68.103 64.1749 68.3987 63.6486 68.9251C63.1222 69.4514 62.8265 70.1653 62.8265 70.9097C62.1314 70.9106 61.4612 71.1693 60.9459 71.6358C60.4305 72.1024 60.1065 72.7435 60.0367 73.4352C59.9668 74.1268 60.156 74.8198 60.5677 75.38C60.9794 75.9401 61.5842 76.3277 62.2652 76.4675V76.524H68.4398C68.8129 76.531 69.1836 76.4635 69.5303 76.3256C69.8771 76.1877 70.1928 75.982 70.4591 75.7207C70.7254 75.4593 70.937 75.1475 71.0814 74.8034C71.2258 74.4594 71.3002 74.09 71.3002 73.7168C71.3002 73.3437 71.2258 72.9743 71.0814 72.6302C70.937 72.2862 70.7254 71.9743 70.4591 71.713C70.1928 71.4516 69.8771 71.246 69.5303 71.108C69.1836 70.9701 68.8129 70.9027 68.4398 70.9097Z" fill="#6DD627" stroke="#45413C" stroke-linecap="round" stroke-linejoin="round"/>
<path d="M80.4336 76.524H57.4656V23.559C57.4656 23.2308 57.596 22.9161 57.828 22.684C58.0601 22.4519 58.3749 22.3215 58.7031 22.3215H79.1961C79.5243 22.3215 79.839 22.4519 80.0711 22.684C80.3032 22.9161 80.4336 23.2308 80.4336 23.559V76.524Z" stroke="#45413C"/>
<path d="M82.2196 70.9097C82.2196 70.1653 81.9239 69.4514 81.3976 68.9251C80.8712 68.3987 80.1573 68.103 79.413 68.103C78.6686 68.103 77.9547 68.3987 77.4284 68.9251C76.902 69.4514 76.6063 70.1653 76.6063 70.9097C75.9111 70.9106 75.241 71.1693 74.7257 71.6358C74.2103 72.1024 73.8863 72.7435 73.8165 73.4352C73.7466 74.1268 73.9358 74.8198 74.3475 75.38C74.7592 75.9401 75.364 76.3277 76.045 76.4675V76.524H82.2196C82.5927 76.531 82.9634 76.4635 83.3101 76.3256C83.6568 76.1877 83.9726 75.982 84.2389 75.7207C84.5052 75.4593 84.7168 75.1475 84.8612 74.8034C85.0056 74.4594 85.08 74.09 85.08 73.7168C85.08 73.3437 85.0056 72.9743 84.8612 72.6302C84.7168 72.2862 84.5052 71.9743 84.2389 71.713C83.9726 71.4516 83.6568 71.246 83.3101 71.108C82.9634 70.9701 82.5927 70.9027 82.2196 70.9097Z" fill="#6DD627" stroke="#45413C" stroke-linecap="round" stroke-linejoin="round"/>
<path d="M55.4766 22.0176C55.4766 25.5911 56.8961 29.0182 59.423 31.5451C61.9498 34.0719 65.377 35.4915 68.9505 35.4915C72.524 35.4915 75.9511 34.0719 78.4779 31.5451C81.0048 29.0182 82.4244 25.5911 82.4244 22.0176C82.4244 20.2482 82.0758 18.4961 81.3987 16.8614C80.7216 15.2266 79.7291 13.7413 78.4779 12.4901C77.2268 11.2389 75.7414 10.2465 74.1067 9.56934C72.472 8.89221 70.7199 8.5437 68.9505 8.5437C67.181 8.5437 65.429 8.89221 63.7942 9.56934C62.1595 10.2465 60.6741 11.2389 59.423 12.4901C58.1718 13.7413 57.1793 15.2266 56.5022 16.8614C55.8251 18.4961 55.4766 20.2482 55.4766 22.0176Z" fill="#F8F8F8"/>
<path d="M68.9505 13.2592C72.1135 13.26 75.1753 14.3744 77.5988 16.4069C80.0223 18.4394 81.6529 21.2603 82.2046 24.3749C82.5598 22.4324 82.4837 20.4356 81.9817 18.5257C81.4796 16.6159 80.564 14.8398 79.2994 13.3231C78.0349 11.8063 76.4525 10.5861 74.6641 9.74872C72.8757 8.91135 70.9252 8.47729 68.9505 8.47729C66.9758 8.47729 65.0252 8.91135 63.2368 9.74872C61.4485 10.5861 59.866 11.8063 58.6015 13.3231C57.337 14.8398 56.4213 16.6159 55.9193 18.5257C55.4172 20.4356 55.3411 22.4324 55.6963 24.3749C56.248 21.2603 57.8786 18.4394 60.3021 16.4069C62.7257 14.3744 65.7874 13.26 68.9505 13.2592Z" fill="white"/>
<path d="M73.8501 19.5675H71.3998V17.1182C71.4 16.9573 71.3684 16.7979 71.3069 16.6492C71.2454 16.5006 71.1552 16.3654 71.0415 16.2516C70.9278 16.1378 70.7927 16.0475 70.6441 15.9859C70.4954 15.9243 70.3361 15.8926 70.1752 15.8926H67.7259C67.565 15.8926 67.4056 15.9243 67.2569 15.9859C67.1082 16.0475 66.9731 16.1377 66.8593 16.2516C66.7455 16.3654 66.6552 16.5005 66.5936 16.6492C66.532 16.7979 66.5003 16.9572 66.5003 17.1182V19.5675H64.0511C63.89 19.5675 63.7305 19.5992 63.5817 19.661C63.4329 19.7227 63.2978 19.8132 63.1841 19.9272C63.0703 20.0412 62.9802 20.1766 62.9188 20.3255C62.8574 20.4744 62.826 20.634 62.8264 20.7951V23.2453C62.8264 23.5701 62.9554 23.8816 63.1851 24.1113C63.4148 24.3409 63.7263 24.4699 64.0511 24.4699H66.5003V26.9202C66.5003 27.0811 66.532 27.2404 66.5936 27.3891C66.6552 27.5377 66.7455 27.6728 66.8593 27.7865C66.9732 27.9002 67.1083 27.9904 67.257 28.0519C67.4057 28.1134 67.565 28.1449 67.7259 28.1448H70.1752C70.5 28.1448 70.8115 28.0158 71.0411 27.7861C71.2708 27.5565 71.3998 27.245 71.3998 26.9202V24.467H73.8501C74.1749 24.467 74.4864 24.3379 74.716 24.1083C74.9457 23.8786 75.0747 23.5671 75.0747 23.2423V20.7951C75.0751 20.634 75.0437 20.4744 74.9823 20.3255C74.921 20.1766 74.8308 20.0412 74.7171 19.9272C74.6033 19.8132 74.4682 19.7227 74.3194 19.661C74.1706 19.5992 74.0111 19.5675 73.8501 19.5675Z" fill="#FF6242" stroke="#45413C" stroke-linecap="round" stroke-linejoin="round"/>
<path d="M55.4766 22.0176C55.4766 25.5911 56.8961 29.0182 59.423 31.5451C61.9498 34.0719 65.377 35.4915 68.9505 35.4915C72.524 35.4915 75.9511 34.0719 78.4779 31.5451C81.0048 29.0182 82.4244 25.5911 82.4244 22.0176C82.4244 20.2482 82.0759 18.4961 81.3987 16.8614C80.7216 15.2266 79.7291 13.7413 78.4779 12.4901C77.2268 11.2389 75.7414 10.2465 74.1067 9.56934C72.472 8.89221 70.7199 8.5437 68.9505 8.5437C67.181 8.5437 65.429 8.89221 63.7942 9.56934C62.1595 10.2465 60.6741 11.2389 59.423 12.4901C58.1718 13.7413 57.1793 15.2266 56.5022 16.8614C55.8251 18.4961 55.4766 20.2482 55.4766 22.0176Z" stroke="#45413C" stroke-linecap="round" stroke-linejoin="round"/>
</svg>
