<svg width="64" height="64" viewBox="0 0 64 64" fill="none" xmlns="http://www.w3.org/2000/svg">
<path d="M5.32605 33.3154C5.32605 40.0371 7.99621 46.4834 12.7491 51.2364C17.5021 55.9893 23.9484 58.6594 30.67 58.6594C37.3917 58.6594 43.838 55.9893 48.591 51.2364C53.3439 46.4834 56.014 40.0371 56.014 33.3154C56.014 26.5938 53.3439 20.1474 48.591 15.3945C43.838 10.6416 37.3917 7.97144 30.67 7.97144C23.9484 7.97144 17.5021 10.6416 12.7491 15.3945C7.99621 20.1474 5.32605 26.5938 5.32605 33.3154Z" fill="#DAEDF7" stroke="#DAEDF7" stroke-width="0.64" stroke-miterlimit="10"/>
<path d="M47.0892 22.385C47.0892 21.9969 46.9351 21.6248 46.6607 21.3503C46.3864 21.0758 46.0143 20.9216 45.6262 20.9214H12.7937C12.4056 20.9216 12.0335 21.0758 11.7591 21.3503C11.4848 21.6248 11.3307 21.9969 11.3307 22.385V43.6233H47.0892V22.385Z" fill="#F8F8F8" stroke="#45413C" stroke-width="0.64" stroke-linecap="round" stroke-linejoin="round"/>
<path d="M44.5656 24.1775C44.5654 23.9835 44.4882 23.7975 44.351 23.6604C44.2138 23.5233 44.0277 23.4463 43.8338 23.4463H14.6204C14.4265 23.4463 14.2406 23.5232 14.1033 23.6602C13.9661 23.7971 13.8889 23.983 13.8886 24.1768L13.855 43.6239H44.5656V24.1775Z" fill="#00B8F0"/>
<path d="M36.9579 23.4463L15.292 43.6233H13.855L13.8886 24.1762C13.8891 23.9824 13.9664 23.7968 14.1036 23.66C14.2408 23.5231 14.4266 23.4463 14.6204 23.4463H36.9579Z" fill="#4ACFFF"/>
<path d="M44.5656 24.1775C44.5654 23.9835 44.4882 23.7975 44.351 23.6604C44.2138 23.5233 44.0277 23.4463 43.8338 23.4463H14.6204C14.4265 23.4463 14.2406 23.5232 14.1033 23.6602C13.9661 23.7971 13.8889 23.983 13.8886 24.1768L13.855 43.6239H44.5656V24.1775Z" stroke="#45413C" stroke-width="0.64" stroke-linecap="round" stroke-linejoin="round"/>
<path opacity="0.15" d="M9.85815 48.6713C9.85815 49.006 11.9857 49.3271 15.7727 49.5638C19.5597 49.8005 24.696 49.9334 30.0516 49.9334C35.4073 49.9334 40.5435 49.8005 44.3306 49.5638C48.1176 49.3271 50.2451 49.006 50.2451 48.6713C50.2451 48.3366 48.1176 48.0155 44.3306 47.7788C40.5435 47.5422 35.4073 47.4092 30.0516 47.4092C24.696 47.4092 19.5597 47.5422 15.7727 47.7788C11.9857 48.0155 9.85815 48.3366 9.85815 48.6713Z" fill="#45413C"/>
<path d="M50.2477 46.1476H8.17664V44.3551C8.17664 44.161 8.25374 43.9749 8.39098 43.8376C8.52822 43.7004 8.71436 43.6233 8.90844 43.6233H49.5127C49.6091 43.6229 49.7046 43.6415 49.7937 43.6781C49.8829 43.7147 49.9639 43.7685 50.0322 43.8365C50.1005 43.9045 50.1547 43.9853 50.1917 44.0743C50.2286 44.1633 50.2477 44.2587 50.2477 44.3551V46.1476Z" fill="#F8F8F8" stroke="#45413C" stroke-width="0.64" stroke-linecap="round" stroke-linejoin="round"/>
<path d="M50.2477 46.1477C46.3403 47.2641 42.2964 47.8305 38.2327 47.8305H20.1903C16.127 47.8304 12.0836 47.264 8.17664 46.1477H50.2477Z" fill="#BDBEC0" stroke="#45413C" stroke-width="0.64" stroke-linecap="round" stroke-linejoin="round"/>
<path opacity="0.15" d="M47.0892 22.385C47.0892 21.9969 46.9351 21.6248 46.6608 21.3503C46.3864 21.0758 46.0143 20.9216 45.6262 20.9214H31.7726C32.4935 24.2266 34.3231 27.1858 36.9576 29.3079C39.5921 31.43 42.8731 32.5874 46.256 32.5879C46.5374 32.5879 46.8117 32.5613 47.0892 32.5454V22.385Z" fill="#45413C"/>
<path d="M33.8381 17.7585C33.8381 19.3892 34.1593 21.004 34.7834 22.5106C35.4075 24.0173 36.3222 25.3862 37.4753 26.5393C38.6284 27.6924 39.9973 28.6071 41.5039 29.2312C43.0105 29.8552 44.6253 30.1764 46.2561 30.1764C47.8868 30.1764 49.5016 29.8552 51.0082 29.2312C52.5148 28.6071 53.8838 27.6924 55.0369 26.5393C56.19 25.3862 57.1047 24.0173 57.7287 22.5106C58.3528 21.004 58.674 19.3892 58.674 17.7585C58.674 16.1278 58.3528 14.513 57.7287 13.0064C57.1047 11.4998 56.19 10.1308 55.0369 8.9777C53.8838 7.82459 52.5148 6.90989 51.0082 6.28583C49.5016 5.66178 47.8868 5.34058 46.2561 5.34058C44.6253 5.34058 43.0105 5.66178 41.5039 6.28583C39.9973 6.90989 38.6284 7.82459 37.4753 8.9777C36.3222 10.1308 35.4075 11.4998 34.7834 13.0064C34.1593 14.513 33.8381 16.1278 33.8381 17.7585Z" fill="#F8F8F8"/>
<path d="M46.256 9.99701C49.1448 9.99845 51.9427 11.0069 54.168 12.8488C56.3934 14.6907 57.9071 17.2508 58.4484 20.0884C58.796 18.291 58.7419 16.439 58.29 14.665C57.838 12.891 56.9995 11.2388 55.8344 9.82676C54.6692 8.41474 53.2063 7.27777 51.5504 6.49726C49.8944 5.71675 48.0864 5.31201 46.2557 5.31201C44.425 5.31201 42.617 5.71675 40.9611 6.49726C39.3051 7.27777 37.8422 8.41474 36.6771 9.82676C35.5119 11.2388 34.6734 12.891 34.2215 14.665C33.7696 16.439 33.7155 18.291 34.063 20.0884C34.6044 17.2507 36.1181 14.6905 38.3436 12.8486C40.5692 11.0067 43.3672 9.9983 46.256 9.99701Z" fill="white"/>
<path d="M33.8381 17.7585C33.8381 19.3892 34.1593 21.004 34.7834 22.5106C35.4075 24.0173 36.3222 25.3862 37.4753 26.5393C38.6284 27.6924 39.9973 28.6071 41.5039 29.2312C43.0105 29.8552 44.6253 30.1764 46.2561 30.1764C47.8868 30.1764 49.5016 29.8552 51.0082 29.2312C52.5148 28.6071 53.8838 27.6924 55.0369 26.5393C56.19 25.3862 57.1047 24.0173 57.7287 22.5106C58.3528 21.004 58.674 19.3892 58.674 17.7585C58.674 16.1278 58.3528 14.513 57.7287 13.0064C57.1047 11.4998 56.19 10.1308 55.0369 8.9777C53.8838 7.82459 52.5148 6.90989 51.0082 6.28583C49.5016 5.66178 47.8868 5.34058 46.2561 5.34058C44.6253 5.34058 43.0105 5.66178 41.5039 6.28583C39.9973 6.90989 38.6284 7.82459 37.4753 8.9777C36.3222 10.1308 35.4075 11.4998 34.7834 13.0064C34.1593 14.513 33.8381 16.1278 33.8381 17.7585Z" stroke="#45413C" stroke-width="0.64" stroke-linecap="round" stroke-linejoin="round"/>
<path d="M43.6741 24.2302C43.4374 24.2303 43.203 24.1838 42.9844 24.0932C42.7657 24.0027 42.5671 23.8698 42.3999 23.7024L38.7953 20.0978C38.4573 19.7599 38.2674 19.3015 38.2673 18.8236C38.2673 18.3456 38.4571 17.8872 38.795 17.5492C39.133 17.2112 39.5913 17.0212 40.0693 17.0212C40.5472 17.0211 41.0057 17.2109 41.3437 17.5489L43.6741 19.8792L51.0124 12.5415C51.3507 12.2055 51.8085 12.0173 52.2853 12.0181C52.7622 12.0189 53.2192 12.2087 53.5564 12.5458C53.8936 12.883 54.0834 13.3401 54.0842 13.817C54.085 14.2938 53.8968 14.7515 53.5608 15.0899L44.9482 23.6998C44.7813 23.8679 44.5828 24.0012 44.3641 24.0922C44.1454 24.1832 43.9109 24.2301 43.6741 24.2302Z" fill="#9CEB60" stroke="#46B000" stroke-width="0.64" stroke-miterlimit="10"/>
</svg>
