<svg width="100" height="100" viewBox="0 0 100 100" fill="none" xmlns="http://www.w3.org/2000/svg">
<path d="M10.3999 49.9999C10.3999 60.5025 14.572 70.5749 21.9985 78.0013C29.4249 85.4278 39.4973 89.5999 49.9999 89.5999C60.5025 89.5999 70.5749 85.4278 78.0013 78.0013C85.4278 70.5749 89.5999 60.5025 89.5999 49.9999C89.5999 44.7996 88.5756 39.6501 86.5855 34.8456C84.5954 30.0411 81.6785 25.6757 78.0013 21.9985C74.3241 18.3213 69.9587 15.4044 65.1542 13.4143C60.3497 11.4242 55.2002 10.3999 49.9999 10.3999C44.7996 10.3999 39.6501 11.4242 34.8456 13.4143C30.0411 15.4044 25.6757 18.3213 21.9985 21.9985C18.3213 25.6757 15.4044 30.0411 13.4143 34.8456C11.4242 39.6501 10.3999 44.7996 10.3999 49.9999Z" fill="#DAEDF7" stroke="#DAEDF7"/>
<path d="M46.6786 25.9795C46.6787 25.7512 46.6317 25.5252 46.5405 25.3159C46.4493 25.1065 46.316 24.9181 46.1487 24.7626C45.9815 24.6071 45.784 24.4877 45.5686 24.412C45.3531 24.3362 45.1244 24.3057 44.8966 24.3223C38.608 24.7645 32.721 27.5747 28.4226 32.1861C24.1241 36.7975 21.7339 42.8672 21.7339 49.1713C21.7339 55.4754 24.1241 61.545 28.4226 66.1564C32.721 70.7678 38.608 73.578 44.8966 74.0203C45.1243 74.0367 45.3529 74.0061 45.5682 73.9303C45.7835 73.8546 45.9809 73.7353 46.148 73.5799C46.3152 73.4245 46.4486 73.2364 46.5399 73.0272C46.6312 72.818 46.6784 72.5922 46.6786 72.364V25.9795Z" fill="#6DD627"/>
<path d="M75.3677 41.6978C75.6108 41.6973 75.8508 41.6435 76.0709 41.5402C76.291 41.4369 76.4858 41.2867 76.6415 41.1C76.7973 40.9133 76.9102 40.6947 76.9723 40.4597C77.0344 40.2246 77.0443 39.9788 77.0012 39.7395C76.0122 34.2995 73.2422 29.3429 69.1272 25.6499C65.0121 21.9569 59.7857 19.7373 54.2708 19.3406C54.0431 19.3244 53.8145 19.3553 53.5993 19.4312C53.3841 19.5072 53.1868 19.6265 53.0196 19.782C52.8525 19.9374 52.7191 20.1256 52.6278 20.3347C52.5365 20.5439 52.4891 20.7696 52.4888 20.9979V40.0366C52.4888 40.477 52.6637 40.8993 52.975 41.2109C53.2863 41.5224 53.7086 41.6975 54.149 41.6978H75.3677Z" fill="#FF6242"/>
<path d="M23.4293 54.9816C23.4321 48.6663 25.8354 42.5881 30.1523 37.9786C34.4692 33.3691 40.3768 30.5728 46.6784 30.1563V25.9795C46.6785 25.7512 46.6315 25.5252 46.5403 25.3159C46.4491 25.1065 46.3157 24.9181 46.1485 24.7626C45.9813 24.6071 45.7838 24.4877 45.5684 24.412C45.3529 24.3362 45.1242 24.3057 44.8964 24.3223C40.936 24.6063 37.1009 25.8329 33.7107 27.8998C30.3205 29.9667 27.4735 32.8141 25.4069 36.2045C23.3404 39.595 22.1143 43.4302 21.8307 47.3907C21.5471 51.3511 22.2144 55.322 23.7768 58.9723C23.554 57.6535 23.4378 56.319 23.4293 54.9816Z" fill="#9CEB60"/>
<path d="M76.1636 41.4859C76.3458 41.3891 76.508 41.2587 76.6418 41.1018C76.7979 40.9153 76.911 40.6968 76.9731 40.4617C77.0352 40.2266 77.0448 39.9807 77.0012 39.7415C76.0122 34.3015 73.2422 29.3448 69.1272 25.6518C65.0121 21.9588 59.7857 19.7393 54.2708 19.3426C54.0431 19.3264 53.8145 19.3572 53.5993 19.4332C53.3841 19.5091 53.1868 19.6285 53.0196 19.7839C52.8525 19.9394 52.7191 20.1275 52.6278 20.3367C52.5365 20.5459 52.4891 20.7716 52.4888 20.9998V24.2599C57.7487 24.2623 62.8727 25.9304 67.1259 29.0251C71.3791 32.1197 74.5429 36.4819 76.1636 41.4859Z" fill="#FF6242"/>
<path d="M75.3677 41.6978C75.6108 41.6973 75.8508 41.6435 76.0709 41.5402C76.291 41.4369 76.4858 41.2867 76.6415 41.1C76.7973 40.9133 76.9102 40.6947 76.9723 40.4597C77.0344 40.2246 77.0443 39.9788 77.0012 39.7395C76.0122 34.2995 73.2422 29.3429 69.1272 25.6499C65.0121 21.9569 59.7857 19.7373 54.2708 19.3406C54.0431 19.3244 53.8145 19.3553 53.5993 19.4312C53.3841 19.5072 53.1868 19.6265 53.0196 19.782C52.8525 19.9374 52.7191 20.1256 52.6278 20.3347C52.5365 20.5439 52.4891 20.7696 52.4888 20.9979V40.0366C52.4888 40.477 52.6637 40.8993 52.975 41.2109C53.2863 41.5224 53.7086 41.6975 54.149 41.6978H75.3677Z" stroke="#45413C" stroke-linecap="round" stroke-linejoin="round"/>
<path d="M78.215 49.1584C78.1996 48.7287 78.0179 48.3217 77.7081 48.0234C77.3984 47.7251 76.9849 47.5588 76.5548 47.5596H57.0409C56.7196 47.5589 56.4049 47.6515 56.1352 47.8261C55.8654 48.0008 55.6521 48.25 55.5212 48.5435C55.3903 48.8369 55.3474 49.1621 55.3976 49.4795C55.4479 49.7969 55.5892 50.0929 55.8044 50.3316L69.9109 66.0627C70.07 66.2397 70.2652 66.3805 70.4834 66.4756C70.7015 66.5707 70.9375 66.618 71.1755 66.6141C71.4134 66.6103 71.6478 66.5554 71.8628 66.4533C72.0777 66.3512 72.2683 66.2041 72.4216 66.0221C76.1797 61.5491 78.2371 55.8925 78.2309 50.0504C78.2309 49.7524 78.2239 49.4544 78.215 49.1584Z" fill="#FFE500" stroke="#45413C" stroke-linecap="round" stroke-linejoin="round"/>
<path d="M46.6786 25.9795C46.6787 25.7512 46.6317 25.5252 46.5405 25.3159C46.4493 25.1065 46.316 24.9181 46.1487 24.7626C45.9815 24.6071 45.784 24.4877 45.5686 24.412C45.3531 24.3362 45.1244 24.3057 44.8966 24.3223C38.608 24.7645 32.721 27.5747 28.4226 32.1861C24.1241 36.7975 21.7339 42.8672 21.7339 49.1713C21.7339 55.4754 24.1241 61.545 28.4226 66.1564C32.721 70.7678 38.608 73.578 44.8966 74.0203C45.1243 74.0367 45.3529 74.0061 45.5682 73.9303C45.7835 73.8546 45.9809 73.7353 46.148 73.5799C46.3152 73.4245 46.4486 73.2364 46.5399 73.0272C46.6312 72.818 46.6784 72.5922 46.6786 72.364V25.9795Z" stroke="#45413C" stroke-linecap="round" stroke-linejoin="round"/>
<path d="M54.554 56.5528C54.3298 56.3023 54.0347 56.1257 53.708 56.0466C53.3812 55.9675 53.0381 55.9895 52.7241 56.1097C52.4101 56.2299 52.1401 56.4427 51.9497 56.7199C51.7594 56.997 51.6577 57.3254 51.6582 57.6616V79.007C51.6577 79.2355 51.7044 79.4617 51.7955 79.6713C51.8865 79.8808 52.0198 80.0693 52.1872 80.225C52.3545 80.3806 52.5522 80.4999 52.7678 80.5755C52.9834 80.6511 53.2123 80.6813 53.4402 80.6643C58.953 80.2727 64.177 78.0511 68.2833 74.3521C68.6109 74.058 68.8083 73.6458 68.8321 73.2061C68.8559 72.7665 68.704 72.3354 68.41 72.0077L54.554 56.5528Z" fill="#00B8F0" stroke="#45413C" stroke-linecap="round" stroke-linejoin="round"/>
<path d="M82.8645 65.8362V29.1458C82.8645 27.2506 82.1117 25.4331 80.7716 24.093C79.4315 22.7529 77.6139 22 75.7187 22C73.8235 22 72.006 22.7529 70.6659 24.093C69.3258 25.4331 68.5729 27.2506 68.5729 29.1458V65.8362C66.9549 67.2834 65.8144 69.1878 65.3024 71.2974C64.7904 73.4069 64.931 75.6222 65.7056 77.6502C66.4802 79.6781 67.8523 81.423 69.6403 82.654C71.4283 83.8851 73.5479 84.5442 75.7187 84.5442C77.8895 84.5442 80.0092 83.8851 81.7972 82.654C83.5852 81.423 84.9573 79.6781 85.7319 77.6502C86.5065 75.6222 86.6471 73.4069 86.1351 71.2974C85.6231 69.1878 84.4826 67.2834 82.8645 65.8362Z" fill="#F8F8F8"/>
<path d="M75.7188 25.4047C77.6139 25.405 79.4314 26.1579 80.7714 27.498C82.1114 28.838 82.8644 30.6554 82.8646 32.5506V29.1459C82.8425 27.2652 82.0799 25.469 80.7421 24.1469C79.4043 22.8247 77.5992 22.0833 75.7183 22.0833C73.8375 22.0833 72.0324 22.8247 70.6946 24.1469C69.3568 25.469 68.5942 27.2652 68.572 29.1459V32.5506C68.5723 30.6553 69.3254 28.8377 70.6656 27.4976C72.0059 26.1576 73.8236 25.4047 75.7188 25.4047Z" fill="white"/>
<path d="M77.5046 70.7358V30.0389C77.5046 29.5651 77.3164 29.1107 76.9814 28.7757C76.6463 28.4407 76.1919 28.2524 75.7181 28.2524C75.2443 28.2524 74.7899 28.4407 74.4549 28.7757C74.1199 29.1107 73.9317 29.5651 73.9317 30.0389V70.7358C73.389 71.0432 72.9379 71.4894 72.6247 72.0288C72.3116 72.5681 72.1476 73.1811 72.1497 73.8048C72.1497 74.7524 72.5261 75.6612 73.1962 76.3312C73.8662 77.0013 74.775 77.3777 75.7226 77.3777C76.6702 77.3777 77.579 77.0013 78.249 76.3312C78.9191 75.6612 79.2955 74.7524 79.2955 73.8048C79.2966 73.1803 79.1312 72.5667 78.8165 72.0273C78.5017 71.4879 78.0489 71.0421 77.5046 70.7358Z" fill="#BDBEC0"/>
<path d="M77.5046 70.736V43.3753C77.5046 42.9015 77.3164 42.4471 76.9814 42.1121C76.6463 41.7771 76.1919 41.5889 75.7181 41.5889C75.2443 41.5889 74.7899 41.7771 74.4549 42.1121C74.1199 42.4471 73.9317 42.9015 73.9317 43.3753V70.736C73.389 71.0433 72.9379 71.4896 72.6247 72.0289C72.3116 72.5683 72.1476 73.1813 72.1497 73.805C72.1497 74.7525 72.5261 75.6613 73.1962 76.3314C73.8662 77.0014 74.775 77.3779 75.7226 77.3779C76.6702 77.3779 77.579 77.0014 78.249 76.3314C78.9191 75.6613 79.2955 74.7525 79.2955 73.805C79.2966 73.1804 79.1312 72.5669 78.8165 72.0275C78.5017 71.488 78.0489 71.0422 77.5046 70.736Z" fill="#FF6242"/>
<path d="M75.7189 43.7406C76.1907 43.7432 76.6425 43.9318 76.9761 44.2654C77.3097 44.5991 77.4983 45.0508 77.5009 45.5226V43.3753C77.5009 42.9015 77.3127 42.4471 76.9777 42.1121C76.6426 41.7771 76.1882 41.5889 75.7144 41.5889C75.2406 41.5889 74.7863 41.7771 74.4512 42.1121C74.1162 42.4471 73.928 42.9015 73.928 43.3753V45.5276C73.9293 45.0534 74.1185 44.599 74.4542 44.2641C74.7899 43.9291 75.2447 43.7409 75.7189 43.7406Z" fill="#FF6242"/>
<path d="M82.8645 65.8362V29.1458C82.8645 27.2506 82.1117 25.4331 80.7716 24.093C79.4315 22.7529 77.6139 22 75.7187 22C73.8235 22 72.006 22.7529 70.6659 24.093C69.3258 25.4331 68.5729 27.2506 68.5729 29.1458V65.8362C66.9549 67.2834 65.8144 69.1878 65.3024 71.2974C64.7904 73.4069 64.931 75.6222 65.7056 77.6502C66.4802 79.6781 67.8523 81.423 69.6403 82.654C71.4283 83.8851 73.5479 84.5442 75.7187 84.5442C77.8895 84.5442 80.0092 83.8851 81.7972 82.654C83.5852 81.423 84.9573 79.6781 85.7319 77.6502C86.5065 75.6222 86.6471 73.4069 86.1351 71.2974C85.6231 69.1878 84.4826 67.2834 82.8645 65.8362Z" stroke="#45413C" stroke-linecap="round" stroke-linejoin="round"/>
<path d="M86.4375 57.7302H94.4763" stroke="#FF6242" stroke-linecap="round" stroke-linejoin="round"/>
<path d="M86.4375 52.3704H90.9034" stroke="#FF6242" stroke-linecap="round" stroke-linejoin="round"/>
<path d="M86.4375 47.0105H94.4763" stroke="#FF6242" stroke-linecap="round" stroke-linejoin="round"/>
<path d="M86.4375 41.6516H90.9034" stroke="#FF6242" stroke-linecap="round" stroke-linejoin="round"/>
<path d="M86.4375 36.2917H94.4763" stroke="#FF6242" stroke-linecap="round" stroke-linejoin="round"/>
<path d="M86.4375 30.9319H90.9034" stroke="#FF6242" stroke-linecap="round" stroke-linejoin="round"/>
<path d="M77.5046 70.7358V30.0389C77.5046 29.5651 77.3164 29.1107 76.9814 28.7757C76.6463 28.4407 76.1919 28.2524 75.7181 28.2524C75.2443 28.2524 74.7899 28.4407 74.4549 28.7757C74.1199 29.1107 73.9317 29.5651 73.9317 30.0389V70.7358C73.389 71.0432 72.9379 71.4894 72.6247 72.0288C72.3116 72.5681 72.1476 73.1811 72.1497 73.8048C72.1497 74.7524 72.5261 75.6612 73.1962 76.3312C73.8662 77.0013 74.775 77.3777 75.7226 77.3777C76.6702 77.3777 77.579 77.0013 78.249 76.3312C78.9191 75.6612 79.2955 74.7524 79.2955 73.8048C79.2966 73.1803 79.1312 72.5667 78.8165 72.0273C78.5017 71.4879 78.0489 71.0421 77.5046 70.7358Z" stroke="#45413C" stroke-linecap="round" stroke-linejoin="round"/>
</svg>
