<svg width="64" height="64" viewBox="0 0 64 64" fill="none" xmlns="http://www.w3.org/2000/svg">
<path d="M5.32605 33.3154C5.32605 40.0371 7.99621 46.4834 12.7491 51.2364C17.5021 55.9893 23.9484 58.6594 30.67 58.6594C37.3917 58.6594 43.838 55.9893 48.591 51.2364C53.3439 46.4834 56.014 40.0371 56.014 33.3154C56.014 26.5938 53.3439 20.1474 48.591 15.3945C43.838 10.6416 37.3917 7.97144 30.67 7.97144C23.9484 7.97144 17.5021 10.6416 12.7491 15.3945C7.99621 20.1474 5.32605 26.5938 5.32605 33.3154Z" fill="#DAEDF7" stroke="#DAEDF7" stroke-width="0.64" stroke-miterlimit="10"/>
<path d="M47.0892 22.385C47.0892 21.9969 46.9351 21.6248 46.6607 21.3503C46.3864 21.0758 46.0143 20.9216 45.6262 20.9214H12.7937C12.4056 20.9216 12.0335 21.0758 11.7591 21.3503C11.4848 21.6248 11.3307 21.9969 11.3307 22.385V43.6233H47.0892V22.385Z" fill="#F8F8F8" stroke="#45413C" stroke-width="0.64" stroke-linecap="round" stroke-linejoin="round"/>
<path d="M44.5656 24.1775C44.5654 23.9835 44.4882 23.7975 44.351 23.6604C44.2138 23.5233 44.0277 23.4463 43.8338 23.4463H14.6204C14.4265 23.4463 14.2406 23.5232 14.1033 23.6602C13.9661 23.7971 13.8889 23.983 13.8886 24.1768L13.855 43.6239H44.5656V24.1775Z" fill="#00B8F0"/>
<path d="M36.9579 23.4463L15.292 43.6233H13.855L13.8886 24.1762C13.8891 23.9824 13.9664 23.7968 14.1036 23.66C14.2408 23.5231 14.4266 23.4463 14.6204 23.4463H36.9579Z" fill="#4ACFFF"/>
<path d="M44.5656 24.1775C44.5654 23.9835 44.4882 23.7975 44.351 23.6604C44.2138 23.5233 44.0277 23.4463 43.8338 23.4463H14.6204C14.4265 23.4463 14.2406 23.5232 14.1033 23.6602C13.9661 23.7971 13.8889 23.983 13.8886 24.1768L13.855 43.6239H44.5656V24.1775Z" stroke="#45413C" stroke-width="0.64" stroke-linecap="round" stroke-linejoin="round"/>
<path opacity="0.15" d="M9.85815 48.6713C9.85815 49.006 11.9857 49.3271 15.7727 49.5638C19.5597 49.8005 24.696 49.9334 30.0516 49.9334C35.4073 49.9334 40.5435 49.8005 44.3306 49.5638C48.1176 49.3271 50.2451 49.006 50.2451 48.6713C50.2451 48.3366 48.1176 48.0155 44.3306 47.7788C40.5435 47.5422 35.4073 47.4092 30.0516 47.4092C24.696 47.4092 19.5597 47.5422 15.7727 47.7788C11.9857 48.0155 9.85815 48.3366 9.85815 48.6713Z" fill="#45413C"/>
<path d="M50.2477 46.1476H8.17664V44.3551C8.17664 44.161 8.25374 43.9749 8.39098 43.8376C8.52822 43.7004 8.71436 43.6233 8.90844 43.6233H49.5127C49.6091 43.6229 49.7046 43.6415 49.7937 43.6781C49.8829 43.7147 49.9639 43.7685 50.0322 43.8365C50.1005 43.9045 50.1547 43.9853 50.1917 44.0743C50.2286 44.1633 50.2477 44.2587 50.2477 44.3551V46.1476Z" fill="#F8F8F8" stroke="#45413C" stroke-width="0.64" stroke-linecap="round" stroke-linejoin="round"/>
<path d="M50.2477 46.1477C46.3403 47.2641 42.2964 47.8305 38.2327 47.8305H20.1903C16.127 47.8304 12.0836 47.264 8.17664 46.1477H50.2477Z" fill="#BDBEC0" stroke="#45413C" stroke-width="0.64" stroke-linecap="round" stroke-linejoin="round"/>
<path opacity="0.15" d="M47.0892 22.385C47.0892 21.9969 46.9351 21.6248 46.6608 21.3503C46.3864 21.0758 46.0143 20.9216 45.6262 20.9214H31.7726C32.4935 24.2266 34.3231 27.1858 36.9576 29.3079C39.5921 31.43 42.8731 32.5874 46.256 32.5879C46.5374 32.5879 46.8117 32.5613 47.0892 32.5454V22.385Z" fill="#45413C"/>
<path d="M33.8381 17.7585C33.8381 19.3892 34.1593 21.004 34.7834 22.5106C35.4075 24.0173 36.3222 25.3862 37.4753 26.5393C38.6284 27.6924 39.9973 28.6071 41.5039 29.2312C43.0105 29.8552 44.6253 30.1764 46.2561 30.1764C47.8868 30.1764 49.5016 29.8552 51.0082 29.2312C52.5148 28.6071 53.8838 27.6924 55.0369 26.5393C56.19 25.3862 57.1047 24.0173 57.7287 22.5106C58.3528 21.004 58.674 19.3892 58.674 17.7585C58.674 16.1278 58.3528 14.513 57.7287 13.0064C57.1047 11.4998 56.19 10.1308 55.0369 8.9777C53.8838 7.82459 52.5148 6.90989 51.0082 6.28583C49.5016 5.66178 47.8868 5.34058 46.2561 5.34058C44.6253 5.34058 43.0105 5.66178 41.5039 6.28583C39.9973 6.90989 38.6284 7.82459 37.4753 8.9777C36.3222 10.1308 35.4075 11.4998 34.7834 13.0064C34.1593 14.513 33.8381 16.1278 33.8381 17.7585Z" fill="#F8F8F8"/>
<path d="M48.5859 17.3707L51.2242 14.6874C51.3729 14.5415 51.491 14.3674 51.5716 14.1754C51.6523 13.9834 51.6939 13.7772 51.694 13.5689C51.6941 13.3606 51.6527 13.1544 51.5722 12.9623C51.4917 12.7702 51.3738 12.596 51.2253 12.45C51.0768 12.304 50.9007 12.189 50.7072 12.1118C50.5138 12.0345 50.3069 11.9966 50.0987 12.0002C49.8904 12.0038 49.685 12.0489 49.4943 12.1328C49.3037 12.2167 49.1316 12.3377 48.9883 12.4888L46.35 15.1721L43.6667 12.5337C43.3702 12.2423 42.97 12.0805 42.5542 12.0841C42.1385 12.0877 41.7412 12.2562 41.4497 12.5528C41.1582 12.8493 40.9965 13.2494 41.0001 13.6652C41.0036 14.0809 41.1722 14.4783 41.4687 14.7697L44.1514 17.408L41.5137 20.0913C41.2221 20.3878 41.0603 20.7879 41.0637 21.2036C41.0672 21.6194 41.2356 22.0167 41.5321 22.3083C41.8285 22.5998 42.2286 22.7617 42.6444 22.7583C43.0601 22.7548 43.4575 22.5863 43.749 22.2899L46.3873 19.6066L49.0706 22.2449C49.3678 22.5339 49.7672 22.6935 50.1816 22.6888C50.596 22.6842 50.9917 22.5156 51.2823 22.2201C51.5728 21.9245 51.7345 21.5259 51.7321 21.1115C51.7297 20.6971 51.5632 20.3004 51.2692 20.0083L48.5859 17.3707Z" fill="#FF6242" stroke="#E04122" stroke-width="0.64" stroke-linecap="round" stroke-linejoin="round"/>
<path d="M46.4189 9.68451C49.3076 9.68595 52.1055 10.6944 54.3309 12.5363C56.5563 14.3782 58.0699 16.9383 58.6112 19.7759C58.9588 17.9785 58.9047 16.1265 58.4528 14.3525C58.0009 12.5785 57.1623 10.9263 55.9972 9.51426C54.8321 8.10224 53.3692 6.96527 51.7132 6.18476C50.0573 5.40425 48.2492 4.99951 46.4186 4.99951C44.5879 4.99951 42.7799 5.40425 41.1239 6.18476C39.468 6.96527 38.005 8.10224 36.8399 9.51426C35.6748 10.9263 34.8362 12.5785 34.3843 14.3525C33.9324 16.1265 33.8783 17.9785 34.2259 19.7759C34.7672 16.9382 36.281 14.378 38.5065 12.5361C40.732 10.6942 43.53 9.6858 46.4189 9.68451Z" fill="white"/>
<path d="M33.8381 17.7585C33.8381 19.3892 34.1593 21.004 34.7834 22.5106C35.4075 24.0173 36.3222 25.3862 37.4753 26.5393C38.6284 27.6924 39.9973 28.6071 41.5039 29.2312C43.0105 29.8552 44.6253 30.1764 46.2561 30.1764C47.8868 30.1764 49.5016 29.8552 51.0082 29.2312C52.5148 28.6071 53.8838 27.6924 55.0369 26.5393C56.19 25.3862 57.1047 24.0173 57.7287 22.5106C58.3528 21.004 58.674 19.3892 58.674 17.7585C58.674 16.1278 58.3528 14.513 57.7287 13.0064C57.1047 11.4998 56.19 10.1308 55.0369 8.9777C53.8838 7.82459 52.5148 6.90989 51.0082 6.28583C49.5016 5.66178 47.8868 5.34058 46.2561 5.34058C44.6253 5.34058 43.0105 5.66178 41.5039 6.28583C39.9973 6.90989 38.6284 7.82459 37.4753 8.9777C36.3222 10.1308 35.4075 11.4998 34.7834 13.0064C34.1593 14.513 33.8381 16.1278 33.8381 17.7585Z" stroke="#45413C" stroke-width="0.64" stroke-linecap="round" stroke-linejoin="round"/>
</svg>
