<svg preserveAspectRatio="none" width="100%" height="100%" overflow="visible" style="display: block;" viewBox="0 0 100 100" fill="none" xmlns="http://www.w3.org/2000/svg">
<g id="Note-Sync--Streamline-Ux">
<path id="Vector" d="M10 50C10 60.6087 14.2143 70.7828 21.7157 78.2843C29.2172 85.7857 39.3913 90 50 90C60.6087 90 70.7828 85.7857 78.2843 78.2843C85.7857 70.7828 90 60.6087 90 50C90 39.3913 85.7857 29.2172 78.2843 21.7157C70.7828 14.2143 60.6087 10 50 10C39.3913 10 29.2172 14.2143 21.7157 21.7157C14.2143 29.2172 10 39.3913 10 50Z" fill="var(--fill-0, #DAEDF7)" stroke="var(--stroke-0, #DAEDF7)"/>
<path id="Vector_2" d="M26.253 29.837H63.738V65.117H26.253V29.837Z" fill="var(--fill-0, white)"/>
<path id="Vector_3" d="M55.449 51.141C53.7386 52.8421 52.3826 54.8656 51.4595 57.0943C50.5363 59.323 50.0644 61.7127 50.071 64.125C50.071 64.457 50.08 64.787 50.097 65.117H61.533C61.8223 65.117 62.1088 65.0599 62.3761 64.9491C62.6433 64.8382 62.8861 64.6757 63.0904 64.4709C63.2948 64.2661 63.4567 64.0229 63.567 63.7554C63.6772 63.4879 63.7337 63.2013 63.733 62.912V46.378C60.5977 47.2018 57.7383 48.8458 55.449 51.141Z" fill="var(--fill-0, #DAEDF7)"/>
<path id="Vector_4" d="M26.253 29.837H63.738V65.117H26.253V29.837Z" stroke="var(--stroke-0, #45413C)" stroke-linecap="round" stroke-linejoin="round"/>
<path id="Vector_5" d="M35.624 33.7C35.6134 34.1315 35.4345 34.5417 35.1256 34.8432C34.8167 35.1446 34.4021 35.3133 33.9705 35.3133C33.5389 35.3133 33.1243 35.1446 32.8154 34.8432C32.5065 34.5417 32.3276 34.1315 32.317 33.7V25.427C32.3116 25.2064 32.3503 24.987 32.431 24.7817C32.5117 24.5763 32.6326 24.3892 32.7867 24.2312C32.9407 24.0733 33.1248 23.9478 33.3282 23.8622C33.5315 23.7765 33.7499 23.7323 33.9705 23.7323C34.1911 23.7323 34.4095 23.7765 34.6128 23.8622C34.8162 23.9478 35.0003 24.0733 35.1543 24.2312C35.3084 24.3892 35.4294 24.5763 35.51 24.7817C35.5907 24.987 35.6294 25.2064 35.624 25.427V33.7Z" fill="var(--fill-0, #ADC4D9)"/>
<path id="Vector_6" d="M33.971 23.773C33.7538 23.7729 33.5386 23.8156 33.3379 23.8986C33.1372 23.9817 32.9548 24.1035 32.8012 24.2572C32.6475 24.4108 32.5257 24.5932 32.4426 24.7939C32.3596 24.9946 32.3169 25.2098 32.317 25.427V28.183C32.3116 27.9624 32.3503 27.743 32.431 27.5377C32.5117 27.3323 32.6326 27.1452 32.7867 26.9872C32.9407 26.8293 33.1248 26.7038 33.3282 26.6182C33.5315 26.5325 33.7499 26.4883 33.9705 26.4883C34.1911 26.4883 34.4095 26.5325 34.6128 26.6182C34.8162 26.7038 35.0003 26.8293 35.1543 26.9872C35.3084 27.1452 35.4294 27.3323 35.51 27.5377C35.5907 27.743 35.6294 27.9624 35.624 28.183V25.427C35.6241 25.2098 35.5815 24.9948 35.4985 24.7941C35.4154 24.5935 35.2937 24.4111 35.1402 24.2575C34.9867 24.1039 34.8044 23.9821 34.6038 23.8989C34.4032 23.8158 34.1882 23.773 33.971 23.773Z" fill="var(--fill-0, #ADC4D9)"/>
<path id="Vector_7" d="M35.624 33.7C35.6134 34.1315 35.4345 34.5417 35.1256 34.8432C34.8167 35.1446 34.4021 35.3133 33.9705 35.3133C33.5389 35.3133 33.1243 35.1446 32.8154 34.8432C32.5065 34.5417 32.3276 34.1315 32.317 33.7V25.427C32.3116 25.2064 32.3503 24.987 32.431 24.7817C32.5117 24.5763 32.6326 24.3892 32.7867 24.2312C32.9407 24.0733 33.1248 23.9478 33.3282 23.8622C33.5315 23.7765 33.7499 23.7323 33.9705 23.7323C34.1911 23.7323 34.4095 23.7765 34.6128 23.8622C34.8162 23.9478 35.0003 24.0733 35.1543 24.2312C35.3084 24.3892 35.4294 24.5763 35.51 24.7817C35.5907 24.987 35.6294 25.2064 35.624 25.427V33.7Z" stroke="var(--stroke-0, #45413C)" stroke-linecap="round" stroke-linejoin="round"/>
<path id="Vector_8" d="M46.649 33.7C46.6384 34.1315 46.4595 34.5417 46.1506 34.8432C45.8417 35.1446 45.4271 35.3133 44.9955 35.3133C44.5639 35.3133 44.1493 35.1446 43.8404 34.8432C43.5315 34.5417 43.3526 34.1315 43.342 33.7V25.427C43.3366 25.2064 43.3753 24.987 43.456 24.7817C43.5366 24.5763 43.6576 24.3892 43.8117 24.2312C43.9657 24.0733 44.1498 23.9478 44.3532 23.8622C44.5565 23.7765 44.7749 23.7323 44.9955 23.7323C45.2161 23.7323 45.4345 23.7765 45.6378 23.8622C45.8412 23.9478 46.0253 24.0733 46.1793 24.2312C46.3334 24.3892 46.4543 24.5763 46.535 24.7817C46.6157 24.987 46.6544 25.2064 46.649 25.427V33.7Z" fill="var(--fill-0, #ADC4D9)"/>
<path id="Vector_9" d="M45 23.773C44.7828 23.7729 44.5676 23.8156 44.3669 23.8986C44.1662 23.9817 43.9838 24.1035 43.8302 24.2572C43.6765 24.4108 43.5547 24.5932 43.4716 24.7939C43.3886 24.9946 43.3459 25.2098 43.346 25.427V28.183C43.3406 27.9624 43.3793 27.743 43.46 27.5377C43.5406 27.3323 43.6616 27.1452 43.8157 26.9872C43.9697 26.8293 44.1538 26.7038 44.3572 26.6182C44.5605 26.5325 44.7789 26.4883 44.9995 26.4883C45.2201 26.4883 45.4385 26.5325 45.6418 26.6182C45.8452 26.7038 46.0293 26.8293 46.1833 26.9872C46.3374 27.1452 46.4584 27.3323 46.539 27.5377C46.6197 27.743 46.6584 27.9624 46.653 28.183V25.427C46.6531 25.2098 46.6105 24.9948 46.5275 24.7941C46.4444 24.5935 46.3227 24.4111 46.1692 24.2575C46.0157 24.1039 45.8334 23.9821 45.6328 23.8989C45.4322 23.8158 45.2172 23.773 45 23.773Z" fill="var(--fill-0, #ADC4D9)"/>
<path id="Vector_10" d="M46.649 33.7C46.6384 34.1315 46.4595 34.5417 46.1506 34.8432C45.8417 35.1446 45.4271 35.3133 44.9955 35.3133C44.5639 35.3133 44.1493 35.1446 43.8404 34.8432C43.5315 34.5417 43.3526 34.1315 43.342 33.7V25.427C43.3366 25.2064 43.3753 24.987 43.456 24.7817C43.5366 24.5763 43.6576 24.3892 43.8117 24.2312C43.9657 24.0733 44.1498 23.9478 44.3532 23.8622C44.5565 23.7765 44.7749 23.7323 44.9955 23.7323C45.2161 23.7323 45.4345 23.7765 45.6378 23.8622C45.8412 23.9478 46.0253 24.0733 46.1793 24.2312C46.3334 24.3892 46.4543 24.5763 46.535 24.7817C46.6157 24.987 46.6544 25.2064 46.649 25.427V33.7Z" stroke="var(--stroke-0, #45413C)" stroke-linecap="round" stroke-linejoin="round"/>
<path id="Vector_11" d="M57.674 33.7C57.6634 34.1315 57.4845 34.5417 57.1756 34.8432C56.8667 35.1446 56.4521 35.3133 56.0205 35.3133C55.5889 35.3133 55.1743 35.1446 54.8654 34.8432C54.5565 34.5417 54.3776 34.1315 54.367 33.7V25.427C54.3616 25.2064 54.4003 24.987 54.481 24.7817C54.5616 24.5763 54.6826 24.3892 54.8367 24.2312C54.9907 24.0733 55.1748 23.9478 55.3782 23.8622C55.5815 23.7765 55.7999 23.7323 56.0205 23.7323C56.2411 23.7323 56.4595 23.7765 56.6628 23.8622C56.8662 23.9478 57.0503 24.0733 57.2043 24.2312C57.3584 24.3892 57.4794 24.5763 57.56 24.7817C57.6407 24.987 57.6794 25.2064 57.674 25.427V33.7Z" fill="var(--fill-0, #ADC4D9)"/>
<path id="Vector_12" d="M56.021 23.773C55.8038 23.7729 55.5886 23.8156 55.3879 23.8986C55.1872 23.9817 55.0048 24.1035 54.8512 24.2572C54.6975 24.4108 54.5757 24.5932 54.4926 24.7939C54.4096 24.9946 54.3669 25.2098 54.367 25.427V28.183C54.3616 27.9624 54.4003 27.743 54.481 27.5377C54.5616 27.3323 54.6826 27.1452 54.8367 26.9872C54.9907 26.8293 55.1748 26.7038 55.3782 26.6182C55.5815 26.5325 55.7999 26.4883 56.0205 26.4883C56.2411 26.4883 56.4595 26.5325 56.6628 26.6182C56.8662 26.7038 57.0503 26.8293 57.2043 26.9872C57.3584 27.1452 57.4794 27.3323 57.56 27.5377C57.6407 27.743 57.6794 27.9624 57.674 28.183V25.427C57.6741 25.2098 57.6315 24.9948 57.5485 24.7941C57.4654 24.5935 57.3437 24.4111 57.1902 24.2575C57.0367 24.1039 56.8544 23.9821 56.6538 23.8989C56.4532 23.8158 56.2382 23.773 56.021 23.773Z" fill="var(--fill-0, #ADC4D9)"/>
<path id="Vector_13" d="M57.674 33.7C57.6634 34.1315 57.4845 34.5417 57.1756 34.8432C56.8667 35.1446 56.4521 35.3133 56.0205 35.3133C55.5889 35.3133 55.1743 35.1446 54.8654 34.8432C54.5565 34.5417 54.3776 34.1315 54.367 33.7V25.427C54.3616 25.2064 54.4003 24.987 54.481 24.7817C54.5616 24.5763 54.6826 24.3892 54.8367 24.2312C54.9907 24.0733 55.1748 23.9478 55.3782 23.8622C55.5815 23.7765 55.7999 23.7323 56.0205 23.7323C56.2411 23.7323 56.4595 23.7765 56.6628 23.8622C56.8662 23.9478 57.0503 24.0733 57.2043 24.2312C57.3584 24.3892 57.4794 24.5763 57.56 24.7817C57.6407 24.987 57.6794 25.2064 57.674 25.427V33.7Z" stroke="var(--stroke-0, #45413C)" stroke-linecap="round" stroke-linejoin="round"/>
<path id="Vector_14" opacity="0.15" d="M27.002 73.976C27.002 74.2656 27.4725 74.5523 28.3867 74.8198C29.3009 75.0873 30.6408 75.3304 32.33 75.5352C34.0192 75.7399 36.0246 75.9023 38.2316 76.0132C40.4386 76.124 42.8041 76.181 45.193 76.181C47.5819 76.181 49.9474 76.124 52.1544 76.0132C54.3614 75.9023 56.3668 75.7399 58.056 75.5352C59.7452 75.3304 61.0851 75.0873 61.9993 74.8198C62.9135 74.5523 63.384 74.2656 63.384 73.976C63.384 73.3912 61.4675 72.8303 58.056 72.4168C54.6445 72.0033 50.0176 71.771 45.193 71.771C40.3684 71.771 35.7415 72.0033 32.33 72.4168C28.9185 72.8303 27.002 73.3912 27.002 73.976Z" fill="var(--fill-0, #45413C)"/>
<path id="Vector_15" d="M52.275 64.125C52.275 66.2468 52.6929 68.3478 53.5049 70.308C54.3168 72.2683 55.507 74.0494 57.0073 75.5497C58.5076 77.05 60.2887 78.2402 62.249 79.0521C64.2092 79.8641 66.3102 80.282 68.432 80.282C70.5538 80.282 72.6548 79.8641 74.615 79.0521C76.5753 78.2402 78.3564 77.05 79.8567 75.5497C81.357 74.0494 82.5472 72.2683 83.3591 70.308C84.1711 68.3478 84.589 66.2468 84.589 64.125C84.589 62.0032 84.1711 59.9022 83.3591 57.942C82.5472 55.9817 81.357 54.2006 79.8567 52.7003C78.3564 51.2 76.5753 50.0098 74.615 49.1979C72.6548 48.3859 70.5538 47.968 68.432 47.968C66.3102 47.968 64.2092 48.3859 62.249 49.1979C60.2887 50.0098 58.5076 51.2 57.0073 52.7003C55.507 54.2006 54.3168 55.9817 53.5049 57.942C52.6929 59.9022 52.275 62.0032 52.275 64.125Z" fill="var(--fill-0, #6DD627)"/>
<path id="Vector_16" d="M52.585 67.279C52.1198 64.9411 52.1777 62.5293 52.7544 60.2165C53.3311 57.9036 54.4124 55.747 55.9208 53.9013C57.4291 52.0555 59.3272 50.5663 61.4788 49.5405C63.6305 48.5147 65.9825 47.9777 68.3661 47.9679C70.7498 47.9582 73.1061 48.4759 75.2661 49.484C77.4261 50.4922 79.3363 51.9657 80.8597 53.799C82.3831 55.6324 83.4821 57.78 84.0777 60.0881C84.6734 62.3962 84.751 64.8074 84.305 67.149C83.5828 63.464 81.5989 60.1459 78.6947 57.7655C75.7904 55.3852 72.1474 54.0914 68.3923 54.1068C64.6372 54.1222 61.0049 55.4458 58.1202 57.8499C55.2356 60.2539 53.279 63.5882 52.587 67.279" fill="var(--fill-0, #9CEB60)"/>
<path id="Vector_17" d="M52.275 64.125C52.275 66.2468 52.6929 68.3478 53.5049 70.308C54.3168 72.2683 55.507 74.0494 57.0073 75.5497C58.5076 77.05 60.2887 78.2402 62.249 79.0521C64.2092 79.8641 66.3102 80.282 68.432 80.282C70.5538 80.282 72.6548 79.8641 74.615 79.0521C76.5753 78.2402 78.3564 77.05 79.8567 75.5497C81.357 74.0494 82.5472 72.2683 83.3591 70.308C84.1711 68.3478 84.589 66.2468 84.589 64.125C84.589 62.0032 84.1711 59.9022 83.3591 57.942C82.5472 55.9817 81.357 54.2006 79.8567 52.7003C78.3564 51.2 76.5753 50.0098 74.615 49.1979C72.6548 48.3859 70.5538 47.968 68.432 47.968C66.3102 47.968 64.2092 48.3859 62.249 49.1979C60.2887 50.0098 58.5076 51.2 57.0073 52.7003C55.507 54.2006 54.3168 55.9817 53.5049 57.942C52.6929 59.9022 52.275 62.0032 52.275 64.125Z" stroke="var(--stroke-0, #45413C)" stroke-linecap="round" stroke-linejoin="round"/>
<path id="Vector_18" d="M60.352 65C60.9741 64.9992 61.5777 64.788 62.0646 64.4008C62.5516 64.0135 62.8932 63.473 63.034 62.867C63.2121 62.1025 63.5505 61.3846 64.027 60.7608C64.5034 60.137 65.1069 59.6215 65.7976 59.2485C66.4883 58.8755 67.2503 58.6535 68.0332 58.5972C68.8161 58.5409 69.6021 58.6516 70.339 58.922L69.994 59.89C69.9081 60.1318 69.8927 60.393 69.9498 60.6431C70.0069 60.8933 70.134 61.122 70.3163 61.3026C70.4987 61.4831 70.7286 61.608 70.9793 61.6626C71.23 61.7172 71.4911 61.6993 71.732 61.611L77.4 59.521C77.5861 59.453 77.755 59.3448 77.8946 59.2043C78.0343 59.0637 78.1413 58.8941 78.2081 58.7075C78.2749 58.521 78.2999 58.322 78.2812 58.1247C78.2625 57.9275 78.2006 57.7367 78.1 57.566L75.026 52.366C74.8953 52.1451 74.7044 51.9661 74.4756 51.8498C74.2468 51.7335 73.9896 51.6848 73.7342 51.7093C73.4787 51.7339 73.2355 51.8307 73.0331 51.9884C72.8306 52.1462 72.6773 52.3583 72.591 52.6L72.186 53.736C70.7184 53.2004 69.1537 52.9828 67.5957 53.0977C66.0376 53.2126 64.5218 53.6573 63.1487 54.4024C61.7755 55.1475 60.5764 56.176 59.6309 57.4196C58.6853 58.6632 58.0149 60.0936 57.664 61.616C57.5705 62.0207 57.5694 62.4412 57.6609 62.8463C57.7523 63.2514 57.934 63.6307 58.1923 63.9559C58.4506 64.2811 58.779 64.5439 59.1529 64.7247C59.5268 64.9054 59.9367 64.9995 60.352 65Z" fill="var(--fill-0, white)" stroke="var(--stroke-0, #388C00)" stroke-linecap="round" stroke-linejoin="round"/>
<path id="Vector_19" d="M77.041 62.526C76.6826 62.4771 76.3181 62.4994 75.9683 62.5914C75.6185 62.6835 75.2903 62.8436 75.0024 63.0626C74.7145 63.2816 74.4726 63.5552 74.2904 63.8677C74.1083 64.1802 73.9896 64.5256 73.941 64.884C73.828 65.7051 73.532 66.4904 73.075 67.1818C72.618 67.8733 72.0116 68.4534 71.3005 68.8792C70.5894 69.3051 69.7918 69.5659 68.9665 69.6423C68.1412 69.7188 67.3092 69.609 66.532 69.321L66.872 68.367C66.9583 68.1253 66.9739 67.8641 66.917 67.6138C66.8601 67.3636 66.733 67.1348 66.5507 66.9542C66.3684 66.7736 66.1385 66.6487 65.8877 66.5941C65.637 66.5395 65.3759 66.5575 65.135 66.646L59.463 68.732C59.277 68.8001 59.1083 68.9082 58.9687 69.0487C58.8292 69.1892 58.7222 69.3587 58.6554 69.5451C58.5887 69.7315 58.5637 69.9304 58.5823 70.1275C58.6008 70.3247 58.6626 70.5153 58.763 70.686L61.837 75.886C61.9677 76.1069 62.1586 76.2859 62.3874 76.4022C62.6162 76.5185 62.8734 76.5672 63.1289 76.5427C63.3843 76.5181 63.6275 76.4213 63.83 76.2636C64.0324 76.1058 64.1857 75.8937 64.272 75.652L64.678 74.513C66.2276 75.0762 67.8836 75.2855 69.5246 75.1255C71.1656 74.9655 72.75 74.4404 74.1616 73.5885C75.5733 72.7366 76.7764 71.5797 77.6828 70.2024C78.5893 68.8251 79.176 67.2625 79.4 65.629C79.4489 65.2704 79.4266 64.9056 79.3345 64.5555C79.2424 64.2055 79.0823 63.877 78.8632 63.5889C78.6442 63.3007 78.3705 63.0586 78.0578 62.8762C77.7452 62.6938 77.3997 62.5748 77.041 62.526Z" fill="var(--fill-0, white)" stroke="var(--stroke-0, #388C00)" stroke-linecap="round" stroke-linejoin="round"/>
</g>
</svg>
