<svg width="100" height="100" viewBox="0 0 100 100" fill="none" xmlns="http://www.w3.org/2000/svg">
<path d="M10.3999 49.9999C10.3999 60.5025 14.572 70.5749 21.9985 78.0013C29.4249 85.4278 39.4973 89.5999 49.9999 89.5999C60.5025 89.5999 70.5749 85.4278 78.0013 78.0013C85.4278 70.5749 89.5999 60.5025 89.5999 49.9999C89.5999 44.7996 88.5756 39.6501 86.5855 34.8456C84.5954 30.0411 81.6785 25.6757 78.0013 21.9985C74.3241 18.3213 69.9587 15.4044 65.1542 13.4143C60.3497 11.4242 55.2002 10.3999 49.9999 10.3999C44.7996 10.3999 39.6501 11.4242 34.8456 13.4143C30.0411 15.4044 25.6757 18.3213 21.9985 21.9985C18.3213 25.6757 15.4044 30.0411 13.4143 34.8456C11.4242 39.6501 10.3999 44.7996 10.3999 49.9999Z" fill="#DAEDF7" stroke="#DAEDF7"/>
<path d="M55.7788 65.0113L61.9583 58.2892C62.4011 57.8414 62.9174 57.473 63.4849 57.2002L70.9228 53.6114C71.797 52.6333 71.9722 54.0223 72.9503 54.8984C73.9284 55.7746 76.738 59.5831 75.8639 60.5612L68.1003 69.0069L68.1439 71.1008C68.1633 71.7309 67.9316 72.343 67.4997 72.8023C67.0679 73.2616 66.4713 73.5306 65.8411 73.55C65.211 73.5694 64.5989 73.3378 64.1396 72.9059C63.6802 72.4741 63.4113 71.8774 63.3919 71.2473C62.9978 71.4667 62.5494 71.5694 62.0991 71.5434C61.6488 71.5174 61.2152 71.3638 60.849 71.1005C60.4827 70.8371 60.199 70.475 60.031 70.0564C59.863 69.6379 59.8176 69.1801 59.9001 68.7366L60.1773 67.2516L59.3259 68.1783C59.1179 68.4109 58.8661 68.6002 58.5849 68.7355C58.3038 68.8708 57.9987 68.9493 57.6871 68.9667C57.3756 68.9841 57.0637 68.9399 56.7692 68.8367C56.4747 68.7336 56.2034 68.5734 55.9708 68.3654C55.7382 68.1574 55.5489 67.9056 55.4136 67.6244C55.2783 67.3432 55.1998 67.0381 55.1824 66.7266C55.165 66.415 55.2092 66.1031 55.3124 65.8086C55.4155 65.5141 55.5757 65.2429 55.7837 65.0103L55.7788 65.0113Z" fill="#BF8256" stroke="#45413C" stroke-linecap="round" stroke-linejoin="round"/>
<path d="M65.1222 66.6318L64.5668 69.6018C64.5233 69.9204 64.4156 70.2269 64.2501 70.5027C64.0847 70.7784 63.865 71.0177 63.6043 71.2061C63.3437 71.3944 63.0475 71.5279 62.7338 71.5985C62.42 71.669 62.0952 71.6751 61.779 71.6164C61.4629 71.5577 61.1619 71.4355 60.8944 71.257C60.6268 71.0786 60.3983 70.8477 60.2226 70.5784C60.0469 70.309 59.9277 70.0068 59.8723 69.6901C59.8168 69.3733 59.8262 69.0486 59.9 68.7356" stroke="#45413C"/>
<path d="M63.8273 63.2778L59.3208 68.1793" stroke="#45413C"/>
<path d="M68.3586 59.5534L70.2931 58.5723L68.3586 59.5534Z" fill="#FFCEBF"/>
<path d="M68.3586 59.5534L70.2931 58.5723" stroke="#45413C" stroke-linecap="round" stroke-linejoin="round"/>
<path d="M74.7787 85.9876L86.9102 82.6077L86.9033 82.585C86.1845 67.0895 84.3035 50.6169 62.87 44.0839L61.6484 43.7077C61.3501 43.6159 61.0367 43.5837 60.7261 43.6131C60.4154 43.6424 60.1136 43.7326 59.8378 43.8786C59.562 44.0246 59.3176 44.2235 59.1187 44.4639C58.9198 44.7043 58.7702 44.9815 58.6784 45.2798C58.5866 45.578 58.5544 45.8914 58.5838 46.2021C58.6131 46.5127 58.7033 46.8146 58.8493 47.0904C58.9953 47.3662 59.1942 47.6105 59.4346 47.8094C59.675 48.0084 59.9522 48.158 60.2505 48.2498L61.4712 48.626C66.8736 50.2902 70.8257 52.6157 72.8631 57.8637C76.0123 65.7619 70.9821 63.7165 69.3466 61.0376L65.6173 55.4362C65.4494 55.1704 65.2305 54.9406 64.9732 54.76C64.7159 54.5795 64.4253 54.4518 64.1182 54.3843C63.8112 54.3168 63.4939 54.311 63.1846 54.3671C62.8753 54.4231 62.5802 54.54 62.3163 54.711C62.0525 54.8819 61.8253 55.1035 61.6477 55.3629C61.4702 55.6223 61.3458 55.9143 61.282 56.2221C61.2181 56.5299 61.2159 56.8473 61.2756 57.1559C61.3352 57.4646 61.4556 57.7583 61.6296 58.0201C66.6964 69.5833 66.3152 72.0603 70.0109 75.549C72.77 78.1517 73.2383 80.4614 74.7787 85.9876Z" fill="#BF8256"/>
<path d="M59.7614 45.7362L58.6545 45.3957C58.6644 45.357 58.6664 45.3184 58.6783 45.2798C58.7701 44.9816 58.9197 44.7043 59.1186 44.4639C59.3175 44.2235 59.5619 44.0246 59.8377 43.8786C60.1135 43.7326 60.4153 43.6424 60.726 43.6131C61.0367 43.5837 61.3501 43.6159 61.6483 43.7077L62.87 44.0839C84.3035 50.6179 86.1845 67.0895 86.9032 82.585L86.9091 82.6078L83.758 83.4859C83.0085 68.2161 80.8484 52.1643 59.7614 45.7362Z" fill="#E09F7E"/>
<path d="M86.9102 82.6077L86.9033 82.585C86.1845 67.0895 84.3035 50.6169 62.87 44.0839L61.6484 43.7077C61.3501 43.6159 61.0367 43.5837 60.7261 43.6131C60.4154 43.6424 60.1136 43.7326 59.8378 43.8786C59.562 44.0246 59.3176 44.2235 59.1187 44.4639C58.9198 44.7043 58.7702 44.9815 58.6784 45.2798C58.5866 45.578 58.5544 45.8914 58.5838 46.2021C58.6131 46.5127 58.7033 46.8146 58.8493 47.0904C58.9953 47.3662 59.1942 47.6105 59.4346 47.8094C59.675 48.0084 59.9522 48.158 60.2505 48.2498L61.4712 48.626C66.8736 50.2902 70.8257 52.6157 72.8631 57.8637C76.0123 65.7619 70.9821 63.7165 69.3466 61.0376L65.6173 55.4362C65.4494 55.1704 65.2305 54.9406 64.9732 54.76C64.7159 54.5795 64.4253 54.4518 64.1182 54.3843C63.8112 54.3168 63.4939 54.311 63.1846 54.3671C62.8753 54.4231 62.5802 54.54 62.3163 54.711C62.0525 54.8819 61.8253 55.1035 61.6477 55.3629C61.4702 55.6223 61.3458 55.9143 61.282 56.2221C61.2181 56.5299 61.2159 56.8473 61.2756 57.1559C61.3352 57.4646 61.4556 57.7583 61.6296 58.0201C66.6964 69.5833 66.3152 72.0603 70.0109 75.549C72.769 78.1517 73.2383 80.4614 74.7787 85.9876" stroke="#45413C" stroke-linecap="round" stroke-linejoin="round"/>
<path d="M27.8496 15.0034H68.8524V68.7644H27.8496V15.0034Z" fill="white"/>
<path d="M27.8496 15.0034H68.8524V68.7644H27.8496V15.0034Z" stroke="#45413C"/>
<path d="M44.06 34.8878C44.06 34.7862 44.0391 34.6858 43.9986 34.5926C43.9581 34.4995 43.8988 34.4157 43.8245 34.3464C43.7503 34.2771 43.6625 34.2239 43.5668 34.19C43.471 34.1561 43.3694 34.1422 43.268 34.1493C40.4664 34.3493 37.8446 35.6034 35.9306 37.659C34.0165 39.7146 32.9524 42.4191 32.9524 45.2278C32.9524 48.0366 34.0165 50.7411 35.9306 52.7967C37.8446 54.8523 40.4664 56.1064 43.268 56.3064C43.3693 56.3132 43.4709 56.2991 43.5665 56.2651C43.6621 56.2311 43.7497 56.1778 43.8239 56.1086C43.8981 56.0394 43.9574 55.9557 43.998 55.8627C44.0386 55.7697 44.0597 55.6694 44.06 55.5679V34.8878Z" fill="#6DD627"/>
<path d="M56.8518 41.8959C56.9603 41.8958 57.0673 41.8718 57.1655 41.8258C57.2637 41.7798 57.3506 41.7128 57.4201 41.6295C57.4895 41.5463 57.5399 41.4488 57.5676 41.3439C57.5953 41.2391 57.5997 41.1295 57.5805 41.0228C57.1393 38.5973 55.9041 36.3874 54.0691 34.741C52.2342 33.0946 49.9038 32.1052 47.4448 31.9286C47.3435 31.9214 47.2417 31.9352 47.1459 31.969C47.0501 32.0029 46.9623 32.0561 46.888 32.1254C46.8137 32.1947 46.7545 32.2786 46.714 32.3718C46.6735 32.465 46.6527 32.5656 46.6528 32.6672V41.1554C46.6528 41.3518 46.7309 41.5402 46.8697 41.679C47.0086 41.8179 47.197 41.8959 47.3934 41.8959H56.8518Z" fill="#FF6242"/>
<path d="M47.4448 34.8986C49.5263 35.0489 51.5234 35.7828 53.2069 37.016C54.8905 38.2492 56.1925 39.9319 56.9637 41.8711C57.1401 41.8488 57.3024 41.7629 57.4201 41.6296C57.4894 41.5464 57.5397 41.4491 57.5674 41.3444C57.5951 41.2397 57.5996 41.1303 57.5805 41.0237C57.1395 38.598 55.9043 36.3879 54.0694 34.7413C52.2344 33.0947 49.9039 32.1052 47.4448 31.9285C47.3435 31.9215 47.2418 31.9353 47.1461 31.9693C47.0503 32.0032 46.9626 32.0564 46.8883 32.1257C46.814 32.195 46.7548 32.2788 46.7143 32.3719C46.6738 32.465 46.6529 32.5655 46.6528 32.6671V35.6371C46.6529 35.5355 46.6738 35.435 46.7143 35.3419C46.7548 35.2488 46.814 35.165 46.8883 35.0957C46.9626 35.0264 47.0503 34.9732 47.1461 34.9393C47.2418 34.9053 47.3435 34.8915 47.4448 34.8986Z" fill="#FF6242"/>
<path d="M33.6947 47.8221C33.6954 45.0059 34.7665 42.2953 36.6912 40.2394C38.6158 38.1835 41.25 36.9361 44.06 36.75V34.8878C44.06 34.7862 44.0391 34.6858 43.9986 34.5926C43.9581 34.4995 43.8988 34.4157 43.8246 34.3464C43.7503 34.2771 43.6625 34.2239 43.5668 34.19C43.4711 34.1561 43.3694 34.1422 43.268 34.1493C41.5015 34.2755 39.7907 34.8224 38.2784 35.7442C36.7661 36.6661 35.4962 37.9362 34.5746 39.4486C33.6529 40.961 33.1063 42.6719 32.9803 44.4385C32.8543 46.2051 33.1525 47.9762 33.8502 49.6041C33.7505 49.0153 33.6985 48.4194 33.6947 47.8221Z" fill="#9CEB60"/>
<path d="M56.8518 41.8959C56.9603 41.8958 57.0673 41.8718 57.1655 41.8258C57.2637 41.7798 57.3506 41.7128 57.4201 41.6295C57.4895 41.5463 57.5399 41.4488 57.5676 41.3439C57.5953 41.2391 57.5997 41.1295 57.5805 41.0228C57.1393 38.5973 55.9041 36.3874 54.0691 34.741C52.2342 33.0946 49.9038 32.1052 47.4448 31.9286C47.3435 31.9214 47.2417 31.9352 47.1459 31.969C47.0501 32.0029 46.9623 32.0561 46.888 32.1254C46.8137 32.1947 46.7545 32.2786 46.714 32.3718C46.6735 32.465 46.6527 32.5656 46.6528 32.6672V41.1554C46.6528 41.3518 46.7309 41.5402 46.8697 41.679C47.0086 41.8179 47.197 41.8959 47.3934 41.8959H56.8518Z" stroke="#45413C" stroke-linecap="round" stroke-linejoin="round"/>
<path d="M58.118 45.2223C58.1108 45.0308 58.0296 44.8495 57.8915 44.7165C57.7534 44.5836 57.5692 44.5094 57.3775 44.5095H48.6803C48.5375 44.5097 48.3979 44.5512 48.2781 44.629C48.1584 44.7068 48.0637 44.8175 48.0054 44.9478C47.9471 45.0782 47.9278 45.2226 47.9497 45.3637C47.9716 45.5048 48.0338 45.6365 48.1289 45.7431L54.4184 52.7582C54.4894 52.837 54.5765 52.8997 54.6738 52.9421C54.7711 52.9844 54.8764 53.0054 54.9825 53.0036C55.0886 53.0018 55.1931 52.9773 55.2889 52.9318C55.3848 52.8862 55.4697 52.8206 55.5381 52.7394C57.2136 50.7451 58.1308 48.223 58.1279 45.6183C58.1279 45.4876 58.1259 45.355 58.118 45.2223Z" fill="#FFE500" stroke="#45413C" stroke-linecap="round" stroke-linejoin="round"/>
<path d="M44.06 34.8878C44.06 34.7862 44.0391 34.6858 43.9986 34.5926C43.9581 34.4995 43.8988 34.4157 43.8245 34.3464C43.7503 34.2771 43.6625 34.2239 43.5668 34.19C43.471 34.1561 43.3694 34.1422 43.268 34.1493C40.4664 34.3493 37.8446 35.6034 35.9306 37.659C34.0165 39.7146 32.9524 42.4191 32.9524 45.2278C32.9524 48.0366 34.0165 50.7411 35.9306 52.7967C37.8446 54.8523 40.4664 56.1064 43.268 56.3064C43.3693 56.3132 43.4709 56.2991 43.5665 56.2651C43.6621 56.2311 43.7497 56.1778 43.8239 56.1086C43.8981 56.0394 43.9574 55.9557 43.998 55.8627C44.0386 55.7697 44.0597 55.6694 44.06 55.5679V34.8878Z" stroke="#45413C" stroke-linecap="round" stroke-linejoin="round"/>
<path d="M47.5736 48.515C47.4732 48.4051 47.3419 48.3281 47.197 48.2939C47.0521 48.2598 46.9003 48.2701 46.7613 48.3235C46.6223 48.377 46.5027 48.4711 46.418 48.5935C46.3334 48.716 46.2876 48.8611 46.2866 49.01V58.5249C46.2865 58.6265 46.3073 58.727 46.3478 58.8202C46.3882 58.9134 46.4475 58.9973 46.5218 59.0666C46.5961 59.1359 46.6839 59.1891 46.7797 59.223C46.8755 59.2569 46.9773 59.2706 47.0786 59.2634C49.5366 59.0895 51.8661 58.0992 53.6968 56.4498C53.8428 56.3186 53.9308 56.1348 53.9414 55.9388C53.952 55.7427 53.8843 55.5505 53.7532 55.4044L47.5736 48.515Z" fill="#00B8F0" stroke="#45413C" stroke-linecap="round" stroke-linejoin="round"/>
<path d="M34.7957 22.1562H49.7229" stroke="#45413C" stroke-linecap="round"/>
<path d="M34.7957 26.1372H43.0889" stroke="#45413C" stroke-linecap="round"/>
<path d="M73.4086 63.2066C72.4572 63.9768 70.3128 62.6126 69.3496 61.0375L65.6202 55.4361C65.4524 55.1703 65.2335 54.9405 64.9761 54.7599C64.7188 54.5794 64.4282 54.4517 64.1212 54.3842C63.8142 54.3168 63.4968 54.3109 63.1875 54.367C62.8782 54.423 62.5831 54.5399 62.3193 54.7109C62.0555 54.8818 61.8282 55.1034 61.6507 55.3628C61.4731 55.6222 61.3488 55.9142 61.2849 56.222C61.221 56.5298 61.2189 56.8472 61.2785 57.1558C61.3382 57.4645 61.4585 57.7582 61.6325 58.02C66.6993 69.5832 66.3182 72.0602 70.0139 75.5489C72.1166 77.5289 72.8898 79.3486 73.8204 82.5492" fill="#BF8256"/>
<path d="M73.4086 63.2066C72.4572 63.9768 70.3128 62.6126 69.3496 61.0375L65.6202 55.4361C65.4524 55.1703 65.2335 54.9405 64.9761 54.7599C64.7188 54.5794 64.4282 54.4517 64.1212 54.3842C63.8142 54.3168 63.4968 54.3109 63.1875 54.367C62.8782 54.423 62.5831 54.5399 62.3193 54.7109C62.0555 54.8818 61.8282 55.1034 61.6507 55.3628C61.4731 55.6222 61.3488 55.9142 61.2849 56.222C61.221 56.5298 61.2189 56.8472 61.2785 57.1558C61.3382 57.4645 61.4585 57.7582 61.6325 58.02C66.6993 69.5832 66.3182 72.0602 70.0139 75.5489C72.1166 77.5289 72.8898 79.3486 73.8204 82.5492" stroke="#45413C" stroke-linecap="round" stroke-linejoin="round"/>
</svg>
